<?xml version="1.0" encoding="utf-8"?>
<!-- Generator: Adobe Illustrator 29.1.0, SVG Export Plug-In . SVG Version: 9.03 Build 55587)  -->
<svg version="1.1" id="레이어_1" xmlns="http://www.w3.org/2000/svg" xmlns:xlink="http://www.w3.org/1999/xlink" x="0px"
	 y="0px" width="64px" height="71px" viewBox="0 0 64 71" enable-background="new 0 0 64 71" xml:space="preserve">
<g>
	<g>
		<path opacity="0.25" fill="#00C17B" d="M-35.6,1c-16.2,0.1-29.3,13.2-29.3,29.5c0,22.4,29.3,39.5,29.3,39.5S-6.3,52.8-6.3,30.5
			C-6.3,14.3-19.4,1.1-35.6,1z"/>
		<path fill="#FFFFFF" stroke="#00C17B" stroke-width="1.5178" stroke-miterlimit="10" d="M-35.6,7C-48.9,7.1-59.8,18-59.8,31.3
			c0,18.5,24.2,32.6,24.2,32.6s24.2-14.2,24.2-32.6C-11.4,18-22.2,7.1-35.6,7z"/>
		<g>
			<path fill="#031106" d="M-14.4,29.6c-0.5-0.2-1.1-0.4-1.7-0.4c-1.1,0-2.1,0.4-2.8,1.1v-0.6l0,0h-1.2v6.9l0,0h1.2l0,0l0,0v-3.7
				c0.2-1.4,1.3-2.5,2.8-2.5c0.6,0,1.2,0.2,1.7,0.5c0,0,0.1,0,0.1,0.1l0.7-1C-13.8,29.9-14.1,29.7-14.4,29.6z"/>
			<path fill="#031106" d="M-25.4,29.2c-2.2,0-4,1.8-4,4c0,2.2,1.8,4,4,4s4-1.8,4-4C-21.4,31-23.2,29.2-25.4,29.2z M-25.4,36.1
				c-1.6,0-2.8-1.3-2.8-2.8c0-1.6,1.3-2.8,2.8-2.8c1.3,0,2.5,0.9,2.7,2.2h-4v1.2h4.1C-22.9,35.1-24,36.1-25.4,36.1z"/>
			<polygon fill="#031106" points="-29.8,29.4 -31.7,29.4 -31.7,27.2 -32.9,27.2 -32.9,29.4 -35.4,29.4 -35.4,27.2 -36.7,27.2 
				-36.7,29.4 -38.5,29.4 -38.5,30.7 -36.7,30.7 -36.7,36.7 -35.4,36.7 -35.4,30.7 -32.9,30.7 -32.9,36.7 -31.7,36.7 -31.7,30.7 
				-29.8,30.7 			"/>
			<path fill="#031106" d="M-39,33.2c0-2.2-1.8-4-4-4s-4,1.8-4,4c0,2.2,1.8,4,4,4c1.1,0,2.1-0.4,2.8-1.2v0.6h1.2L-39,33.2L-39,33.2z
				 M-43.1,36.1c-1.6,0-2.8-1.3-2.8-2.8c0-1.6,1.3-2.8,2.8-2.8s2.8,1.3,2.8,2.8C-40.3,34.8-41.5,36.1-43.1,36.1z"/>
			<path fill="#031106" d="M-52.3,29.2c-1.1,0-2.1,0.4-2.8,1.1v-3.2h-1.2v6.1h0c0,2.2,1.8,4,4,4c2.2,0,4-1.8,4-4
				C-48.2,31-50,29.2-52.3,29.2z M-52.3,36.1c-1.6,0-2.8-1.3-2.8-2.8c0-1.6,1.3-2.8,2.8-2.8s2.8,1.3,2.8,2.8
				C-49.5,34.8-50.7,36.1-52.3,36.1z"/>
		</g>
	</g>
	<path fill="#FFFFFF" stroke="#000000" stroke-width="0.3795" stroke-miterlimit="10" d="M-5.6,11.6C-6,9.1-8.2,7.3-10.7,7.3h-16.8
		c-2.6,0-4.7,1.9-5.1,4.3l0,0v3.7l0,0c0.4,2.4,2.5,4.3,5.1,4.3h16.8c2.6,0,4.7-1.9,5.1-4.3c0.4-0.1,0.8-0.4,0.8-0.9v-1.9
		C-4.9,12-5.2,11.6-5.6,11.6z"/>
	<path fill="#00C17B" d="M-30.8,13.6v-0.3c0-2.1,1.7-3.9,3.9-3.9h15.6c2.1,0,3.9,1.7,3.9,3.9v0.3c0,2.1-1.7,3.9-3.9,3.9h-15.6
		C-29.1,17.4-30.8,15.7-30.8,13.6z"/>
</g>
<g>
	<path opacity="0.25" fill="#E2D827" d="M31.3,1C15.1,1.1,2,14.3,2,30.5C2,52.8,31.3,70,31.3,70s29.3-17.2,29.3-39.5
		C60.5,14.3,47.5,1.1,31.3,1z"/>
	<path fill="#FFFFFF" stroke="#E2D827" stroke-width="1.5178" stroke-miterlimit="10" d="M31.3,7C17.9,7.1,7.1,18,7.1,31.3
		C7.1,49.8,31.3,64,31.3,64s24.2-14.2,24.2-32.6C55.4,18,44.6,7.1,31.3,7z"/>
	<g>
		<path fill="#141204" d="M52.5,29.6c-0.5-0.2-1.1-0.4-1.7-0.4c-1.1,0-2.1,0.4-2.8,1.1v-0.6l0,0h-1.2v6.9l0,0H48l0,0l0,0v-3.7
			c0.2-1.4,1.3-2.5,2.8-2.5c0.6,0,1.2,0.2,1.7,0.5c0,0,0.1,0,0.1,0.1l0.7-1C53.1,29.9,52.8,29.7,52.5,29.6z"/>
		<path fill="#141204" d="M41.5,29.2c-2.2,0-4,1.8-4,4c0,2.2,1.8,4,4,4s4-1.8,4-4C45.5,31,43.7,29.2,41.5,29.2z M41.5,36.1
			c-1.6,0-2.8-1.3-2.8-2.8c0-1.6,1.3-2.8,2.8-2.8c1.3,0,2.5,0.9,2.7,2.2h-4v1.2h4.1C43.9,35.1,42.8,36.1,41.5,36.1z"/>
		<polygon fill="#141204" points="37,29.4 35.2,29.4 35.2,27.2 34,27.2 34,29.4 31.4,29.4 31.4,27.2 30.2,27.2 30.2,29.4 28.4,29.4 
			28.4,30.7 30.2,30.7 30.2,36.7 31.4,36.7 31.4,30.7 34,30.7 34,36.7 35.2,36.7 35.2,30.7 37,30.7 		"/>
		<path fill="#141204" d="M27.8,33.2c0-2.2-1.8-4-4-4s-4,1.8-4,4c0,2.2,1.8,4,4,4c1.1,0,2.1-0.4,2.8-1.2v0.6h1.2L27.8,33.2
			L27.8,33.2z M23.8,36.1c-1.6,0-2.8-1.3-2.8-2.8c0-1.6,1.3-2.8,2.8-2.8c1.6,0,2.8,1.3,2.8,2.8C26.6,34.8,25.3,36.1,23.8,36.1z"/>
		<path fill="#141204" d="M14.6,29.2c-1.1,0-2.1,0.4-2.8,1.1v-3.2h-1.2v6.1h0c0,2.2,1.8,4,4,4c2.2,0,4-1.8,4-4
			C18.6,31,16.8,29.2,14.6,29.2z M14.6,36.1c-1.6,0-2.8-1.3-2.8-2.8c0-1.6,1.3-2.8,2.8-2.8s2.8,1.3,2.8,2.8
			C17.4,34.8,16.1,36.1,14.6,36.1z"/>
	</g>
	<path fill="#FFFFFF" stroke="#000000" stroke-width="0.3795" stroke-miterlimit="10" d="M61.2,11.6c-0.4-2.5-2.5-4.3-5.1-4.3H39.3
		c-2.6,0-4.7,1.9-5.1,4.3l0,0v3.7l0,0c0.4,2.4,2.5,4.3,5.1,4.3h16.8c2.6,0,4.7-1.9,5.1-4.3c0.4-0.1,0.8-0.4,0.8-0.9v-1.9
		C62,12,61.7,11.6,61.2,11.6z"/>
	<path fill="#E2D827" d="M36.1,13.6v-0.3c0-2.1,1.7-3.9,3.9-3.9h15.6c2.1,0,3.9,1.7,3.9,3.9v0.3c0,2.1-1.7,3.9-3.9,3.9H39.9
		C37.8,17.4,36.1,15.7,36.1,13.6z"/>
	<g>
		<rect x="48.1" y="9.2" fill="#FFFFFF" width="11.7" height="8.5"/>
	</g>
</g>
<g>
	<path opacity="0.25" fill="#E86B6B" d="M98,1.1C81.9,1.2,68.9,14.3,68.9,30.5C68.9,52.8,98,69.9,98,69.9s29.2-17.1,29.2-39.4
		C127.2,14.3,114.1,1.2,98,1.1z"/>
	<path fill="#FFFFFF" stroke="#E86B6B" stroke-width="1.5122" stroke-miterlimit="10" d="M98,7.1C84.7,7.2,73.9,18,73.9,31.4
		C73.9,49.8,98,63.9,98,63.9s24.1-14.1,24.1-32.5C122.1,18,111.3,7.2,98,7.1z"/>
	<g>
		<path fill="#160404" d="M119.9,29.6c-0.5-0.2-1.1-0.4-1.7-0.4c-1.1,0-2.1,0.4-2.8,1.1v-0.6l0,0h-1.2v6.9l0,0h1.2l0,0l0,0V33
			c0.2-1.4,1.3-2.5,2.8-2.5c0.6,0,1.2,0.2,1.7,0.5c0,0,0.1,0,0.1,0.1l0.7-1C120.5,29.9,120.2,29.7,119.9,29.6z"/>
		<path fill="#160404" d="M108.9,29.2c-2.2,0-4,1.8-4,4c0,2.2,1.8,4,4,4s4-1.8,4-4C113,31,111.2,29.2,108.9,29.2z M108.9,36.1
			c-1.6,0-2.8-1.3-2.8-2.8c0-1.6,1.3-2.8,2.8-2.8c1.3,0,2.4,0.9,2.7,2.2h-4v1.2h4C111.4,35.1,110.3,36.1,108.9,36.1z"/>
		<polygon fill="#160404" points="104.5,29.4 102.7,29.4 102.7,27.2 101.5,27.2 101.5,29.4 98.9,29.4 98.9,27.2 97.7,27.2 
			97.7,29.4 95.9,29.4 95.9,30.7 97.7,30.7 97.7,36.7 98.9,36.7 98.9,30.7 101.5,30.7 101.5,36.7 102.7,36.7 102.7,30.7 104.5,30.7 
					"/>
		<path fill="#160404" d="M95.3,33.3c0-2.2-1.8-4-4-4s-4,1.8-4,4c0,2.2,1.8,4,4,4c1.1,0,2.1-0.4,2.8-1.1v0.6h1.2L95.3,33.3
			L95.3,33.3z M91.3,36.1c-1.6,0-2.8-1.3-2.8-2.8c0-1.6,1.3-2.8,2.8-2.8s2.8,1.3,2.8,2.8C94.1,34.8,92.9,36.1,91.3,36.1z"/>
		<path fill="#160404" d="M82.1,29.2c-1.1,0-2.1,0.4-2.8,1.1v-3.1h-1.2v6h0c0,2.2,1.8,4,4,4c2.2,0,4-1.8,4-4
			C86.2,31,84.4,29.2,82.1,29.2z M82.1,36.1c-1.6,0-2.8-1.3-2.8-2.8c0-1.6,1.3-2.8,2.8-2.8c1.6,0,2.8,1.3,2.8,2.8
			C85,34.8,83.7,36.1,82.1,36.1z"/>
	</g>
	<path fill="#FFFFFF" stroke="#000000" stroke-width="0.378" stroke-miterlimit="10" d="M128.1,11.7c-0.4-2.4-2.5-4.3-5.1-4.3h-16.8
		c-2.6,0-4.7,1.9-5.1,4.3l0,0v3.7l0,0c0.4,2.4,2.5,4.3,5.1,4.3H123c2.6,0,4.7-1.9,5.1-4.3c0.4-0.1,0.8-0.4,0.8-0.9v-1.9
		C128.9,12.1,128.5,11.7,128.1,11.7z"/>
	<path fill="#E86B6B" d="M103,13.7v-0.3c0-2.1,1.7-3.8,3.8-3.8h15.5c2.1,0,3.8,1.7,3.8,3.8v0.3c0,2.1-1.7,3.8-3.8,3.8h-15.5
		C104.7,17.5,103,15.8,103,13.7z"/>
	<g>
		<rect x="107.5" y="9.3" fill="#FFFFFF" width="19.1" height="8.5"/>
	</g>
</g>
<g>
	<path opacity="0.25" fill="#FFFFFF" d="M-191.9,1c-12.1,0.1-22,9.9-22,22.1c0,16.8,22,29.6,22,29.6s22-12.9,22-29.6
		C-169.9,10.9-179.7,1.1-191.9,1z"/>
	<path fill="#00C17B" stroke="#FFFFFF" stroke-width="1.1384" stroke-miterlimit="10" d="M-191.9,5.5c-10,0.1-18.1,8.2-18.1,18.2
		c0,13.9,18.1,24.5,18.1,24.5s18.1-10.6,18.1-24.5C-173.7,13.7-181.8,5.6-191.9,5.5z"/>
	<g>
		<path fill="#031106" d="M-175.9,22.4c-0.4-0.2-0.8-0.3-1.2-0.3c-0.8,0-1.6,0.3-2.1,0.9v-0.4l0,0h-0.9v5.2l0,0h0.9l0,0l0,0V25
			c0.1-1.1,1-1.9,2.1-1.9c0.5,0,0.9,0.2,1.2,0.4c0,0,0,0,0.1,0l0.6-0.7C-175.5,22.7-175.7,22.5-175.9,22.4z"/>
		<path fill="#031106" d="M-184.2,22.2c-1.7,0-3,1.4-3,3c0,1.7,1.4,3,3,3c1.7,0,3-1.4,3-3C-181.2,23.5-182.5,22.2-184.2,22.2z
			 M-184.2,27.3c-1.2,0-2.1-0.9-2.1-2.1c0-1.2,0.9-2.1,2.1-2.1c1,0,1.8,0.7,2.1,1.6h-3v0.9h3C-182.4,26.6-183.2,27.3-184.2,27.3z"/>
		<polygon fill="#031106" points="-187.6,22.3 -188.9,22.3 -188.9,20.7 -189.8,20.7 -189.8,22.3 -191.7,22.3 -191.7,20.7 
			-192.7,20.7 -192.7,22.3 -194,22.3 -194,23.2 -192.7,23.2 -192.7,27.8 -191.7,27.8 -191.7,23.2 -189.8,23.2 -189.8,27.8 
			-188.9,27.8 -188.9,23.2 -187.6,23.2 		"/>
		<path fill="#031106" d="M-194.4,25.2c0-1.7-1.4-3-3-3c-1.7,0-3,1.4-3,3c0,1.7,1.4,3,3,3c0.8,0,1.6-0.3,2.1-0.9v0.4h0.9
			L-194.4,25.2L-194.4,25.2z M-197.5,27.3c-1.2,0-2.1-0.9-2.1-2.1c0-1.2,0.9-2.1,2.1-2.1s2.1,0.9,2.1,2.1
			C-195.4,26.4-196.3,27.3-197.5,27.3z"/>
		<path fill="#031106" d="M-204.4,22.2c-0.8,0-1.6,0.3-2.1,0.9v-2.4h-0.9v4.6h0c0,1.7,1.4,3,3,3c1.7,0,3-1.4,3-3
			C-201.3,23.5-202.7,22.2-204.4,22.2z M-204.4,27.3c-1.2,0-2.1-0.9-2.1-2.1c0-1.2,0.9-2.1,2.1-2.1s2.1,0.9,2.1,2.1
			C-202.3,26.4-203.2,27.3-204.4,27.3z"/>
	</g>
	<path fill="#FFFFFF" stroke="#000000" stroke-width="0.2846" stroke-miterlimit="10" d="M-169.4,8.9c-0.3-1.8-1.9-3.2-3.8-3.2
		h-12.6c-1.9,0-3.5,1.4-3.8,3.2l0,0v2.8l0,0c0.3,1.8,1.9,3.2,3.8,3.2h12.6c1.9,0,3.5-1.4,3.8-3.2c0.3,0,0.6-0.3,0.6-0.7V9.6
		C-168.8,9.3-169.1,9-169.4,8.9z"/>
	<path fill="#00C17B" d="M-188.3,10.4v-0.2c0-1.6,1.3-2.9,2.9-2.9h11.7c1.6,0,2.9,1.3,2.9,2.9v0.2c0,1.6-1.3,2.9-2.9,2.9h-11.7
		C-187,13.3-188.3,12-188.3,10.4z"/>
</g>
<g>
	<g opacity="0.25">
		<path fill="#FFFFFF" d="M-142.5,1c-12.1,0.1-22,9.9-22,22.1c0,16.8,22,29.6,22,29.6s22-12.9,22-29.6
			C-120.6,10.9-130.4,1.1-142.5,1z"/>
	</g>
	<path fill="#E2D827" stroke="#FFFFFF" stroke-width="1.1384" stroke-miterlimit="10" d="M-142.5,5.5c-10,0.1-18.1,8.2-18.1,18.2
		c0,13.9,18.1,24.5,18.1,24.5s18.1-10.6,18.1-24.5C-124.4,13.7-132.5,5.6-142.5,5.5z"/>
	<g>
		<path fill="#141204" d="M-126.6,22.4c-0.4-0.2-0.8-0.3-1.2-0.3c-0.8,0-1.6,0.3-2.1,0.9v-0.4l0,0h-0.9v5.2l0,0h0.9l0,0l0,0V25
			c0.1-1.1,1-1.9,2.1-1.9c0.5,0,0.9,0.2,1.2,0.4c0,0,0,0,0.1,0l0.6-0.7C-126.2,22.7-126.4,22.5-126.6,22.4z"/>
		<path fill="#141204" d="M-134.9,22.2c-1.7,0-3,1.4-3,3c0,1.7,1.4,3,3,3c1.7,0,3-1.4,3-3C-131.9,23.5-133.2,22.2-134.9,22.2z
			 M-134.9,27.3c-1.2,0-2.1-0.9-2.1-2.1c0-1.2,0.9-2.1,2.1-2.1c1,0,1.8,0.7,2.1,1.6h-3v0.9h3C-133,26.6-133.9,27.3-134.9,27.3z"/>
		<polygon fill="#141204" points="-138.2,22.3 -139.6,22.3 -139.6,20.7 -140.5,20.7 -140.5,22.3 -142.4,22.3 -142.4,20.7 
			-143.4,20.7 -143.4,22.3 -144.7,22.3 -144.7,23.2 -143.4,23.2 -143.4,27.8 -142.4,27.8 -142.4,23.2 -140.5,23.2 -140.5,27.8 
			-139.6,27.8 -139.6,23.2 -138.2,23.2 		"/>
		<path fill="#141204" d="M-145.1,25.2c0-1.7-1.4-3-3-3c-1.7,0-3,1.4-3,3c0,1.7,1.4,3,3,3c0.8,0,1.6-0.3,2.1-0.9v0.4h0.9
			L-145.1,25.2L-145.1,25.2z M-148.2,27.3c-1.2,0-2.1-0.9-2.1-2.1c0-1.2,0.9-2.1,2.1-2.1s2.1,0.9,2.1,2.1
			C-146,26.4-147,27.3-148.2,27.3z"/>
		<path fill="#141204" d="M-155.1,22.2c-0.8,0-1.6,0.3-2.1,0.9v-2.4h-0.9v4.6h0c0,1.7,1.4,3,3,3c1.7,0,3-1.4,3-3
			C-152,23.5-153.4,22.2-155.1,22.2z M-155.1,27.3c-1.2,0-2.1-0.9-2.1-2.1c0-1.2,0.9-2.1,2.1-2.1s2.1,0.9,2.1,2.1
			C-152.9,26.4-153.9,27.3-155.1,27.3z"/>
	</g>
	<path fill="#FFFFFF" stroke="#000000" stroke-width="0.2846" stroke-miterlimit="10" d="M-120.1,8.9c-0.3-1.8-1.9-3.2-3.8-3.2
		h-12.6c-1.9,0-3.5,1.4-3.8,3.2l0,0v2.8l0,0c0.3,1.8,1.9,3.2,3.8,3.2h12.6c1.9,0,3.5-1.4,3.8-3.2c0.3,0,0.6-0.3,0.6-0.7V9.6
		C-119.5,9.3-119.8,9-120.1,8.9z"/>
	<path fill="#E2D827" d="M-139,10.4v-0.2c0-1.6,1.3-2.9,2.9-2.9h11.7c1.6,0,2.9,1.3,2.9,2.9v0.2c0,1.6-1.3,2.9-2.9,2.9h-11.7
		C-137.7,13.3-139,12-139,10.4z"/>
	<g>
		<rect x="-129.9" y="7.1" fill="#FFFFFF" width="8.8" height="6.4"/>
	</g>
</g>
<g>
	<path opacity="0.25" fill="#FFFFFF" d="M-93.3,1.1c-12.1,0.1-21.9,9.9-21.9,22c0,16.7,21.9,29.5,21.9,29.5s21.9-12.8,21.9-29.5
		C-71.4,11-81.2,1.2-93.3,1.1z"/>
	<path fill="#E86B6B" stroke="#FFFFFF" stroke-width="1.1341" stroke-miterlimit="10" d="M-93.3,5.6c-10,0.1-18.1,8.2-18.1,18.2
		c0,13.8,18.1,24.4,18.1,24.4s18.1-10.6,18.1-24.4C-75.2,13.8-83.3,5.7-93.3,5.6z"/>
	<g>
		<path fill="#160404" d="M-76.9,22.4c-0.4-0.2-0.8-0.3-1.2-0.3c-0.8,0-1.6,0.3-2.1,0.8v-0.4l0,0h-0.9v5.2l0,0h0.9l0,0l0,0V25
			c0.1-1.1,1-1.9,2.1-1.9c0.5,0,0.9,0.2,1.2,0.4c0,0,0,0,0.1,0l0.6-0.7C-76.5,22.7-76.7,22.5-76.9,22.4z"/>
		<path fill="#160404" d="M-85.1,22.2c-1.7,0-3,1.4-3,3c0,1.7,1.4,3,3,3c1.7,0,3-1.4,3-3C-82.1,23.5-83.5,22.2-85.1,22.2z
			 M-85.1,27.3c-1.2,0-2.1-0.9-2.1-2.1c0-1.2,0.9-2.1,2.1-2.1c1,0,1.8,0.7,2.1,1.6h-3v0.9h3C-83.3,26.6-84.1,27.3-85.1,27.3z"/>
		<polygon fill="#160404" points="-88.5,22.3 -89.8,22.3 -89.8,20.7 -90.7,20.7 -90.7,22.3 -92.6,22.3 -92.6,20.7 -93.5,20.7 
			-93.5,22.3 -94.9,22.3 -94.9,23.3 -93.5,23.3 -93.5,27.8 -92.6,27.8 -92.6,23.3 -90.7,23.3 -90.7,27.8 -89.8,27.8 -89.8,23.3 
			-88.5,23.3 		"/>
		<path fill="#160404" d="M-95.3,25.2c0-1.7-1.4-3-3-3c-1.7,0-3,1.4-3,3c0,1.7,1.4,3,3,3c0.8,0,1.6-0.3,2.1-0.9v0.4h0.9L-95.3,25.2
			L-95.3,25.2z M-98.3,27.3c-1.2,0-2.1-0.9-2.1-2.1c0-1.2,0.9-2.1,2.1-2.1s2.1,0.9,2.1,2.1C-96.2,26.4-97.2,27.3-98.3,27.3z"/>
		<path fill="#160404" d="M-105.2,22.2c-0.8,0-1.6,0.3-2.1,0.9v-2.4h-0.9v4.5h0c0,1.7,1.4,3,3,3c1.7,0,3-1.4,3-3
			C-102.2,23.5-103.5,22.2-105.2,22.2z M-105.2,27.3c-1.2,0-2.1-0.9-2.1-2.1c0-1.2,0.9-2.1,2.1-2.1s2.1,0.9,2.1,2.1
			C-103.1,26.4-104,27.3-105.2,27.3z"/>
	</g>
	<path fill="#FFFFFF" stroke="#000000" stroke-width="0.2835" stroke-miterlimit="10" d="M-70.8,9c-0.3-1.8-1.9-3.2-3.8-3.2h-12.6
		c-1.9,0-3.5,1.4-3.8,3.2l0,0v2.8l0,0c0.3,1.8,1.9,3.2,3.8,3.2h12.6c1.9,0,3.5-1.4,3.8-3.2c0.3,0,0.6-0.3,0.6-0.7V9.7
		C-70.2,9.3-70.4,9-70.8,9z"/>
	<path fill="#E86B6B" d="M-89.6,10.5v-0.2c0-1.6,1.3-2.9,2.9-2.9H-75c1.6,0,2.9,1.3,2.9,2.9v0.2c0,1.6-1.3,2.9-2.9,2.9h-11.6
		C-88.3,13.4-89.6,12.1-89.6,10.5z"/>
	<g>
		<rect x="-86.2" y="7.2" fill="#FFFFFF" width="14.4" height="6.4"/>
	</g>
</g>
<g>
	<path opacity="0.4" fill="#FF4A4A" d="M165.3,0.2c-16.6,0.1-30,13.6-30,30.2c0,22.9,30,40.5,30,40.5s30-17.6,30-40.5
		C195.3,13.7,181.9,0.3,165.3,0.2z"/>
	<path fill="#FF4A4A" stroke="#FFFFFF" stroke-width="1.5555" stroke-miterlimit="10" d="M165.3,6.3c-13.7,0.1-24.8,11.2-24.8,24.9
		c0,18.9,24.8,33.4,24.8,33.4s24.8-14.5,24.8-33.4C190.1,17.5,179,6.4,165.3,6.3z"/>
	<path fill="#FFFFFF" d="M157.6,24.4c0,0,1,2.7-3.5,9.5s0.6,17.2,10.1,17c0,0-0.2-0.9,0-3.1c0.2-2.2,0.5-3.8,0.5-3.8s0.3,3.2,1,4.6
		c0.7,1.4,1.3,2.1,1.3,2.1s3.3-0.1,5.5-1.8c2.2-1.7,4.8-4.4,4.9-8.5c0.1-4.1-2.1-8.1-2.4-10.2s-0.4-3.5-0.4-3.5s-1.6,1.7-1.9,4.4
		c-0.3,2.7-0.2,5.7-2.1,7.9c0,0,1.2-3,1-5.9c-0.2-2.9-1.1-6.1-2.6-8.4s-1.9-5.6-1.8-7.2c0.1-1.5,0.4-2.6,0.4-2.6s-3.7,1.6-5,4.7
		c-1.3,3.1-1.2,5.8-1.2,7.2c0.1,1.4,0,4.2-0.5,6.1c0,0-0.8-3.5-1.7-5.6S157.6,24.4,157.6,24.4z"/>
</g>
</svg>
