<?xml version="1.0" encoding="utf-8"?>
<!-- Generator: Adobe Illustrator 29.1.0, SVG Export Plug-In . SVG Version: 9.03 Build 55587)  -->
<svg version="1.1" id="레이어_1" xmlns="http://www.w3.org/2000/svg" xmlns:xlink="http://www.w3.org/1999/xlink" x="0px"
	 y="0px" width="47px" height="53.8px" viewBox="0 0 47 53.8" enable-background="new 0 0 47 53.8" xml:space="preserve">
<g>
	<g>
		<path opacity="0.25" fill="#00C17B" d="M80.6,1C64.4,1.1,51.3,14.3,51.3,30.5C51.3,52.8,80.6,70,80.6,70s29.3-17.2,29.3-39.5
			C109.9,14.3,96.8,1.1,80.6,1z"/>
		<path fill="#FFFFFF" stroke="#00C17B" stroke-width="1.5178" stroke-miterlimit="10" d="M80.6,7C67.3,7.1,56.5,18,56.5,31.3
			C56.5,49.8,80.6,64,80.6,64s24.2-14.2,24.2-32.6C104.8,18,94,7.1,80.6,7z"/>
		<g>
			<path fill="#031106" d="M101.8,29.6c-0.5-0.2-1.1-0.4-1.7-0.4c-1.1,0-2.1,0.4-2.8,1.1v-0.6l0,0h-1.2v6.9l0,0h1.2l0,0l0,0v-3.7
				c0.2-1.4,1.3-2.5,2.8-2.5c0.6,0,1.2,0.2,1.7,0.5c0,0,0.1,0,0.1,0.1l0.7-1C102.4,29.9,102.1,29.7,101.8,29.6z"/>
			<path fill="#031106" d="M90.8,29.2c-2.2,0-4,1.8-4,4c0,2.2,1.8,4,4,4c2.2,0,4-1.8,4-4C94.9,31,93,29.2,90.8,29.2z M90.8,36.1
				c-1.6,0-2.8-1.3-2.8-2.8c0-1.6,1.3-2.8,2.8-2.8c1.3,0,2.5,0.9,2.7,2.2h-4v1.2h4.1C93.3,35.1,92.2,36.1,90.8,36.1z"/>
			<polygon fill="#031106" points="86.4,29.4 84.5,29.4 84.5,27.2 83.3,27.2 83.3,29.4 80.8,29.4 80.8,27.2 79.5,27.2 79.5,29.4 
				77.7,29.4 77.7,30.7 79.5,30.7 79.5,36.7 80.8,36.7 80.8,30.7 83.3,30.7 83.3,36.7 84.5,36.7 84.5,30.7 86.4,30.7 			"/>
			<path fill="#031106" d="M77.2,33.2c0-2.2-1.8-4-4-4c-2.2,0-4,1.8-4,4c0,2.2,1.8,4,4,4c1.1,0,2.1-0.4,2.8-1.2v0.6h1.2L77.2,33.2
				L77.2,33.2z M73.1,36.1c-1.6,0-2.8-1.3-2.8-2.8c0-1.6,1.3-2.8,2.8-2.8c1.6,0,2.8,1.3,2.8,2.8C75.9,34.8,74.7,36.1,73.1,36.1z"/>
			<path fill="#031106" d="M63.9,29.2c-1.1,0-2.1,0.4-2.8,1.1v-3.2h-1.2v6.1h0c0,2.2,1.8,4,4,4c2.2,0,4-1.8,4-4
				C68,31,66.2,29.2,63.9,29.2z M63.9,36.1c-1.6,0-2.8-1.3-2.8-2.8c0-1.6,1.3-2.8,2.8-2.8c1.6,0,2.8,1.3,2.8,2.8
				C66.7,34.8,65.5,36.1,63.9,36.1z"/>
		</g>
	</g>
	<path fill="#FFFFFF" stroke="#000000" stroke-width="0.3795" stroke-miterlimit="10" d="M110.6,11.6c-0.4-2.5-2.5-4.3-5.1-4.3H88.6
		c-2.6,0-4.7,1.9-5.1,4.3l0,0v3.7l0,0c0.4,2.4,2.5,4.3,5.1,4.3h16.8c2.6,0,4.7-1.9,5.1-4.3c0.4-0.1,0.8-0.4,0.8-0.9v-1.9
		C111.3,12,111,11.6,110.6,11.6z"/>
	<path fill="#00C17B" d="M85.4,13.6v-0.3c0-2.1,1.7-3.9,3.9-3.9h15.6c2.1,0,3.9,1.7,3.9,3.9v0.3c0,2.1-1.7,3.9-3.9,3.9H89.3
		C87.1,17.4,85.4,15.7,85.4,13.6z"/>
</g>
<g>
	<path opacity="0.25" fill="#E2D827" d="M147.5,1c-16.2,0.1-29.3,13.2-29.3,29.5c0,22.4,29.3,39.5,29.3,39.5s29.3-17.2,29.3-39.5
		C176.7,14.3,163.7,1.1,147.5,1z"/>
	<path fill="#FFFFFF" stroke="#E2D827" stroke-width="1.5178" stroke-miterlimit="10" d="M147.5,7c-13.4,0.1-24.2,10.9-24.2,24.3
		c0,18.5,24.2,32.6,24.2,32.6s24.2-14.2,24.2-32.6C171.6,18,160.8,7.1,147.5,7z"/>
	<g>
		<path fill="#141204" d="M168.7,29.6c-0.5-0.2-1.1-0.4-1.7-0.4c-1.1,0-2.1,0.4-2.8,1.1v-0.6l0,0H163v6.9l0,0h1.2l0,0l0,0v-3.7
			c0.2-1.4,1.3-2.5,2.8-2.5c0.6,0,1.2,0.2,1.7,0.5c0,0,0.1,0,0.1,0.1l0.7-1C169.3,29.9,169,29.7,168.7,29.6z"/>
		<path fill="#141204" d="M157.7,29.2c-2.2,0-4,1.8-4,4c0,2.2,1.8,4,4,4c2.2,0,4-1.8,4-4C161.7,31,159.9,29.2,157.7,29.2z
			 M157.7,36.1c-1.6,0-2.8-1.3-2.8-2.8c0-1.6,1.3-2.8,2.8-2.8c1.3,0,2.5,0.9,2.7,2.2h-4v1.2h4.1C160.1,35.1,159,36.1,157.7,36.1z"/>
		<polygon fill="#141204" points="153.2,29.4 151.4,29.4 151.4,27.2 150.2,27.2 150.2,29.4 147.6,29.4 147.6,27.2 146.4,27.2 
			146.4,29.4 144.6,29.4 144.6,30.7 146.4,30.7 146.4,36.7 147.6,36.7 147.6,30.7 150.2,30.7 150.2,36.7 151.4,36.7 151.4,30.7 
			153.2,30.7 		"/>
		<path fill="#141204" d="M144,33.2c0-2.2-1.8-4-4-4c-2.2,0-4,1.8-4,4c0,2.2,1.8,4,4,4c1.1,0,2.1-0.4,2.8-1.2v0.6h1.2L144,33.2
			L144,33.2z M140,36.1c-1.6,0-2.8-1.3-2.8-2.8c0-1.6,1.3-2.8,2.8-2.8c1.6,0,2.8,1.3,2.8,2.8C142.8,34.8,141.5,36.1,140,36.1z"/>
		<path fill="#141204" d="M130.8,29.2c-1.1,0-2.1,0.4-2.8,1.1v-3.2h-1.2v6.1h0c0,2.2,1.8,4,4,4c2.2,0,4-1.8,4-4
			C134.8,31,133,29.2,130.8,29.2z M130.8,36.1c-1.6,0-2.8-1.3-2.8-2.8c0-1.6,1.3-2.8,2.8-2.8s2.8,1.3,2.8,2.8
			C133.6,34.8,132.3,36.1,130.8,36.1z"/>
	</g>
	<path fill="#FFFFFF" stroke="#000000" stroke-width="0.3795" stroke-miterlimit="10" d="M177.4,11.6c-0.4-2.5-2.5-4.3-5.1-4.3
		h-16.8c-2.6,0-4.7,1.9-5.1,4.3l0,0v3.7l0,0c0.4,2.4,2.5,4.3,5.1,4.3h16.8c2.6,0,4.7-1.9,5.1-4.3c0.4-0.1,0.8-0.4,0.8-0.9v-1.9
		C178.2,12,177.9,11.6,177.4,11.6z"/>
	<path fill="#E2D827" d="M152.3,13.6v-0.3c0-2.1,1.7-3.9,3.9-3.9h15.6c2.1,0,3.9,1.7,3.9,3.9v0.3c0,2.1-1.7,3.9-3.9,3.9h-15.6
		C154,17.4,152.3,15.7,152.3,13.6z"/>
	<g>
		<rect x="164.3" y="9.2" fill="#FFFFFF" width="11.7" height="8.5"/>
	</g>
</g>
<g>
	<path opacity="0.25" fill="#E86B6B" d="M214.2,1.1c-16.1,0.1-29.2,13.2-29.2,29.3c0,22.3,29.2,39.4,29.2,39.4s29.2-17.1,29.2-39.4
		C243.4,14.3,230.3,1.2,214.2,1.1z"/>
	<path fill="#FFFFFF" stroke="#E86B6B" stroke-width="1.5122" stroke-miterlimit="10" d="M214.2,7.1c-13.3,0.1-24.1,10.9-24.1,24.2
		c0,18.4,24.1,32.5,24.1,32.5s24.1-14.1,24.1-32.5C238.3,18,227.5,7.2,214.2,7.1z"/>
	<g>
		<path fill="#160404" d="M236.1,29.6c-0.5-0.2-1.1-0.4-1.7-0.4c-1.1,0-2.1,0.4-2.8,1.1v-0.6l0,0h-1.2v6.9l0,0h1.2l0,0l0,0V33
			c0.2-1.4,1.3-2.5,2.8-2.5c0.6,0,1.2,0.2,1.7,0.5c0,0,0.1,0,0.1,0.1l0.7-1C236.7,29.9,236.4,29.7,236.1,29.6z"/>
		<path fill="#160404" d="M225.1,29.2c-2.2,0-4,1.8-4,4c0,2.2,1.8,4,4,4s4-1.8,4-4C229.2,31,227.4,29.2,225.1,29.2z M225.1,36.1
			c-1.6,0-2.8-1.3-2.8-2.8c0-1.6,1.3-2.8,2.8-2.8c1.3,0,2.4,0.9,2.7,2.2h-4v1.2h4C227.6,35.1,226.5,36.1,225.1,36.1z"/>
		<polygon fill="#160404" points="220.7,29.4 218.9,29.4 218.9,27.2 217.7,27.2 217.7,29.4 215.1,29.4 215.1,27.2 213.9,27.2 
			213.9,29.4 212.1,29.4 212.1,30.7 213.9,30.7 213.9,36.7 215.1,36.7 215.1,30.7 217.7,30.7 217.7,36.7 218.9,36.7 218.9,30.7 
			220.7,30.7 		"/>
		<path fill="#160404" d="M211.5,33.3c0-2.2-1.8-4-4-4s-4,1.8-4,4c0,2.2,1.8,4,4,4c1.1,0,2.1-0.4,2.8-1.1v0.6h1.2L211.5,33.3
			L211.5,33.3z M207.5,36.1c-1.6,0-2.8-1.3-2.8-2.8c0-1.6,1.3-2.8,2.8-2.8c1.6,0,2.8,1.3,2.8,2.8C210.3,34.8,209.1,36.1,207.5,36.1z
			"/>
		<path fill="#160404" d="M198.4,29.2c-1.1,0-2.1,0.4-2.8,1.1v-3.1h-1.2v6h0c0,2.2,1.8,4,4,4c2.2,0,4-1.8,4-4
			C202.4,31,200.6,29.2,198.4,29.2z M198.4,36.1c-1.6,0-2.8-1.3-2.8-2.8c0-1.6,1.3-2.8,2.8-2.8c1.6,0,2.8,1.3,2.8,2.8
			C201.2,34.8,199.9,36.1,198.4,36.1z"/>
	</g>
	<path fill="#FFFFFF" stroke="#000000" stroke-width="0.378" stroke-miterlimit="10" d="M244.3,11.7c-0.4-2.4-2.5-4.3-5.1-4.3h-16.8
		c-2.6,0-4.7,1.9-5.1,4.3l0,0v3.7l0,0c0.4,2.4,2.5,4.3,5.1,4.3h16.8c2.6,0,4.7-1.9,5.1-4.3c0.4-0.1,0.8-0.4,0.8-0.9v-1.9
		C245.1,12.1,244.7,11.7,244.3,11.7z"/>
	<path fill="#E86B6B" d="M219.2,13.7v-0.3c0-2.1,1.7-3.8,3.8-3.8h15.5c2.1,0,3.8,1.7,3.8,3.8v0.3c0,2.1-1.7,3.8-3.8,3.8h-15.5
		C220.9,17.5,219.2,15.8,219.2,13.7z"/>
	<g>
		<rect x="223.7" y="9.3" fill="#FFFFFF" width="19.1" height="8.5"/>
	</g>
</g>
<g>
	<path opacity="0.25" fill="#FFFFFF" d="M-75.7,1c-12.1,0.1-22,9.9-22,22.1c0,16.8,22,29.6,22,29.6s22-12.9,22-29.6
		C-53.7,10.9-63.5,1.1-75.7,1z"/>
	<path fill="#00C17B" stroke="#FFFFFF" stroke-width="1.1384" stroke-miterlimit="10" d="M-75.7,5.5c-10,0.1-18.1,8.2-18.1,18.2
		c0,13.9,18.1,24.5,18.1,24.5s18.1-10.6,18.1-24.5C-57.5,13.7-65.6,5.6-75.7,5.5z"/>
	<g>
		<path fill="#031106" d="M-59.7,22.4c-0.4-0.2-0.8-0.3-1.2-0.3c-0.8,0-1.6,0.3-2.1,0.9v-0.4l0,0H-64v5.2l0,0h0.9l0,0l0,0V25
			c0.1-1.1,1-1.9,2.1-1.9c0.5,0,0.9,0.2,1.2,0.4c0,0,0,0,0.1,0l0.6-0.7C-59.3,22.7-59.5,22.5-59.7,22.4z"/>
		<path fill="#031106" d="M-68,22.2c-1.7,0-3,1.4-3,3c0,1.7,1.4,3,3,3s3-1.4,3-3C-65,23.5-66.3,22.2-68,22.2z M-68,27.3
			c-1.2,0-2.1-0.9-2.1-2.1c0-1.2,0.9-2.1,2.1-2.1c1,0,1.8,0.7,2.1,1.6h-3v0.9h3C-66.2,26.6-67,27.3-68,27.3z"/>
		<polygon fill="#031106" points="-71.4,22.3 -72.7,22.3 -72.7,20.7 -73.6,20.7 -73.6,22.3 -75.5,22.3 -75.5,20.7 -76.5,20.7 
			-76.5,22.3 -77.8,22.3 -77.8,23.2 -76.5,23.2 -76.5,27.8 -75.5,27.8 -75.5,23.2 -73.6,23.2 -73.6,27.8 -72.7,27.8 -72.7,23.2 
			-71.4,23.2 		"/>
		<path fill="#031106" d="M-78.2,25.2c0-1.7-1.4-3-3-3c-1.7,0-3,1.4-3,3c0,1.7,1.4,3,3,3c0.8,0,1.6-0.3,2.1-0.9v0.4h0.9L-78.2,25.2
			L-78.2,25.2z M-81.3,27.3c-1.2,0-2.1-0.9-2.1-2.1c0-1.2,0.9-2.1,2.1-2.1c1.2,0,2.1,0.9,2.1,2.1C-79.2,26.4-80.1,27.3-81.3,27.3z"
			/>
		<path fill="#031106" d="M-88.2,22.2c-0.8,0-1.6,0.3-2.1,0.9v-2.4h-0.9v4.6h0c0,1.7,1.4,3,3,3c1.7,0,3-1.4,3-3
			C-85.1,23.5-86.5,22.2-88.2,22.2z M-88.2,27.3c-1.2,0-2.1-0.9-2.1-2.1c0-1.2,0.9-2.1,2.1-2.1c1.2,0,2.1,0.9,2.1,2.1
			C-86.1,26.4-87,27.3-88.2,27.3z"/>
	</g>
	<path fill="#FFFFFF" stroke="#000000" stroke-width="0.2846" stroke-miterlimit="10" d="M-53.2,8.9c-0.3-1.8-1.9-3.2-3.8-3.2h-12.6
		c-1.9,0-3.5,1.4-3.8,3.2l0,0v2.8l0,0c0.3,1.8,1.9,3.2,3.8,3.2H-57c1.9,0,3.5-1.4,3.8-3.2c0.3,0,0.6-0.3,0.6-0.7V9.6
		C-52.6,9.3-52.9,9-53.2,8.9z"/>
	<path fill="#00C17B" d="M-72.1,10.4v-0.2c0-1.6,1.3-2.9,2.9-2.9h11.7c1.6,0,2.9,1.3,2.9,2.9v0.2c0,1.6-1.3,2.9-2.9,2.9h-11.7
		C-70.8,13.3-72.1,12-72.1,10.4z"/>
</g>
<g>
	<g opacity="0.25">
		<path fill="#FFFFFF" d="M-26.3,1c-12.1,0.1-22,9.9-22,22.1c0,16.8,22,29.6,22,29.6s22-12.9,22-29.6C-4.4,10.9-14.2,1.1-26.3,1z"/>
	</g>
	<path fill="#E2D827" stroke="#FFFFFF" stroke-width="1.1384" stroke-miterlimit="10" d="M-26.3,5.5c-10,0.1-18.1,8.2-18.1,18.2
		c0,13.9,18.1,24.5,18.1,24.5S-8.2,37.6-8.2,23.8C-8.2,13.7-16.3,5.6-26.3,5.5z"/>
	<g>
		<path fill="#141204" d="M-10.4,22.4c-0.4-0.2-0.8-0.3-1.2-0.3c-0.8,0-1.6,0.3-2.1,0.9v-0.4l0,0h-0.9v5.2l0,0h0.9l0,0l0,0V25
			c0.1-1.1,1-1.9,2.1-1.9c0.5,0,0.9,0.2,1.2,0.4c0,0,0,0,0.1,0l0.6-0.7C-10,22.7-10.2,22.5-10.4,22.4z"/>
		<path fill="#141204" d="M-18.7,22.2c-1.7,0-3,1.4-3,3c0,1.7,1.4,3,3,3c1.7,0,3-1.4,3-3C-15.7,23.5-17,22.2-18.7,22.2z M-18.7,27.3
			c-1.2,0-2.1-0.9-2.1-2.1c0-1.2,0.9-2.1,2.1-2.1c1,0,1.8,0.7,2.1,1.6h-3v0.9h3C-16.8,26.6-17.7,27.3-18.7,27.3z"/>
		<polygon fill="#141204" points="-22,22.3 -23.4,22.3 -23.4,20.7 -24.3,20.7 -24.3,22.3 -26.2,22.3 -26.2,20.7 -27.2,20.7 
			-27.2,22.3 -28.5,22.3 -28.5,23.2 -27.2,23.2 -27.2,27.8 -26.2,27.8 -26.2,23.2 -24.3,23.2 -24.3,27.8 -23.4,27.8 -23.4,23.2 
			-22,23.2 		"/>
		<path fill="#141204" d="M-28.9,25.2c0-1.7-1.4-3-3-3s-3,1.4-3,3c0,1.7,1.4,3,3,3c0.8,0,1.6-0.3,2.1-0.9v0.4h0.9L-28.9,25.2
			L-28.9,25.2z M-32,27.3c-1.2,0-2.1-0.9-2.1-2.1c0-1.2,0.9-2.1,2.1-2.1s2.1,0.9,2.1,2.1C-29.8,26.4-30.8,27.3-32,27.3z"/>
		<path fill="#141204" d="M-38.9,22.2c-0.8,0-1.6,0.3-2.1,0.9v-2.4h-0.9v4.6h0c0,1.7,1.4,3,3,3c1.7,0,3-1.4,3-3
			C-35.8,23.5-37.2,22.2-38.9,22.2z M-38.9,27.3c-1.2,0-2.1-0.9-2.1-2.1c0-1.2,0.9-2.1,2.1-2.1c1.2,0,2.1,0.9,2.1,2.1
			C-36.7,26.4-37.7,27.3-38.9,27.3z"/>
	</g>
	<path fill="#FFFFFF" stroke="#000000" stroke-width="0.2846" stroke-miterlimit="10" d="M-3.9,8.9c-0.3-1.8-1.9-3.2-3.8-3.2h-12.6
		c-1.9,0-3.5,1.4-3.8,3.2l0,0v2.8l0,0c0.3,1.8,1.9,3.2,3.8,3.2h12.6c1.9,0,3.5-1.4,3.8-3.2c0.3,0,0.6-0.3,0.6-0.7V9.6
		C-3.3,9.3-3.5,9-3.9,8.9z"/>
	<path fill="#E2D827" d="M-22.8,10.4v-0.2c0-1.6,1.3-2.9,2.9-2.9h11.7c1.6,0,2.9,1.3,2.9,2.9v0.2c0,1.6-1.3,2.9-2.9,2.9h-11.7
		C-21.5,13.3-22.8,12-22.8,10.4z"/>
	<g>
		<rect x="-13.7" y="7.1" fill="#FFFFFF" width="8.8" height="6.4"/>
	</g>
</g>
<g>
	<path opacity="0.25" fill="#FFFFFF" d="M22.9,1.1C10.8,1.2,1,11,1,23.1c0,16.7,21.9,29.5,21.9,29.5s21.9-12.8,21.9-29.5
		C44.8,11,35,1.2,22.9,1.1z"/>
	<path fill="#E86B6B" stroke="#FFFFFF" stroke-width="1.1341" stroke-miterlimit="10" d="M22.9,5.6c-10,0.1-18.1,8.2-18.1,18.2
		c0,13.8,18.1,24.4,18.1,24.4S41,37.6,41,23.8C41,13.8,32.9,5.7,22.9,5.6z"/>
	<g>
		<path fill="#160404" d="M39.3,22.4c-0.4-0.2-0.8-0.3-1.2-0.3c-0.8,0-1.6,0.3-2.1,0.8v-0.4l0,0h-0.9v5.2l0,0H36l0,0l0,0V25
			c0.1-1.1,1-1.9,2.1-1.9c0.5,0,0.9,0.2,1.2,0.4c0,0,0,0,0.1,0l0.6-0.7C39.8,22.7,39.5,22.5,39.3,22.4z"/>
		<path fill="#160404" d="M31.1,22.2c-1.7,0-3,1.4-3,3c0,1.7,1.4,3,3,3c1.7,0,3-1.4,3-3C34.1,23.5,32.7,22.2,31.1,22.2z M31.1,27.3
			c-1.2,0-2.1-0.9-2.1-2.1c0-1.2,0.9-2.1,2.1-2.1c1,0,1.8,0.7,2.1,1.6h-3v0.9h3C32.9,26.6,32.1,27.3,31.1,27.3z"/>
		<polygon fill="#160404" points="27.8,22.3 26.4,22.3 26.4,20.7 25.5,20.7 25.5,22.3 23.6,22.3 23.6,20.7 22.7,20.7 22.7,22.3 
			21.3,22.3 21.3,23.3 22.7,23.3 22.7,27.8 23.6,27.8 23.6,23.3 25.5,23.3 25.5,27.8 26.4,27.8 26.4,23.3 27.8,23.3 		"/>
		<path fill="#160404" d="M20.9,25.2c0-1.7-1.4-3-3-3s-3,1.4-3,3c0,1.7,1.4,3,3,3c0.8,0,1.6-0.3,2.1-0.9v0.4h0.9L20.9,25.2
			L20.9,25.2z M17.9,27.3c-1.2,0-2.1-0.9-2.1-2.1c0-1.2,0.9-2.1,2.1-2.1S20,24,20,25.2C20,26.4,19,27.3,17.9,27.3z"/>
		<path fill="#160404" d="M11,22.2c-0.8,0-1.6,0.3-2.1,0.9v-2.4H8v4.5h0c0,1.7,1.4,3,3,3c1.7,0,3-1.4,3-3C14,23.5,12.7,22.2,11,22.2
			z M11,27.3c-1.2,0-2.1-0.9-2.1-2.1c0-1.2,0.9-2.1,2.1-2.1s2.1,0.9,2.1,2.1C13.1,26.4,12.2,27.3,11,27.3z"/>
	</g>
	<path fill="#FFFFFF" stroke="#000000" stroke-width="0.2835" stroke-miterlimit="10" d="M45.4,9c-0.3-1.8-1.9-3.2-3.8-3.2H29.1
		c-1.9,0-3.5,1.4-3.8,3.2l0,0v2.8l0,0c0.3,1.8,1.9,3.2,3.8,3.2h12.6c1.9,0,3.5-1.4,3.8-3.2c0.3,0,0.6-0.3,0.6-0.7V9.7
		C46,9.3,45.8,9,45.4,9z"/>
	<path fill="#E86B6B" d="M26.6,10.5v-0.2c0-1.6,1.3-2.9,2.9-2.9h11.6c1.6,0,2.9,1.3,2.9,2.9v0.2c0,1.6-1.3,2.9-2.9,2.9H29.5
		C27.9,13.4,26.6,12.1,26.6,10.5z"/>
	<g>
		<rect x="30" y="7.2" fill="#FFFFFF" width="14.4" height="6.4"/>
	</g>
</g>
<g>
	<path opacity="0.4" fill="#FF4A4A" d="M281.5,0.2c-16.6,0.1-30,13.6-30,30.2c0,22.9,30,40.5,30,40.5s30-17.6,30-40.5
		C311.5,13.7,298.1,0.3,281.5,0.2z"/>
	<path fill="#FF4A4A" stroke="#FFFFFF" stroke-width="1.5555" stroke-miterlimit="10" d="M281.5,6.3c-13.7,0.1-24.8,11.2-24.8,24.9
		c0,18.9,24.8,33.4,24.8,33.4s24.8-14.5,24.8-33.4C306.3,17.5,295.2,6.4,281.5,6.3z"/>
	<path fill="#FFFFFF" d="M273.8,24.4c0,0,1,2.7-3.5,9.5c-4.5,6.9,0.6,17.2,10.1,17c0,0-0.2-0.9,0-3.1s0.5-3.8,0.5-3.8s0.3,3.2,1,4.6
		s1.3,2.1,1.3,2.1s3.3-0.1,5.5-1.8s4.8-4.4,4.9-8.5s-2.1-8.1-2.4-10.2s-0.4-3.5-0.4-3.5s-1.6,1.7-1.9,4.4s-0.2,5.7-2.1,7.9
		c0,0,1.2-3,1-5.9c-0.2-2.9-1.1-6.1-2.6-8.4s-1.9-5.6-1.8-7.2c0.1-1.5,0.4-2.6,0.4-2.6s-3.7,1.6-5,4.7s-1.2,5.8-1.2,7.2
		c0.1,1.4,0,4.2-0.5,6.1c0,0-0.8-3.5-1.7-5.6S273.8,24.4,273.8,24.4z"/>
</g>
</svg>
