<?xml version="1.0" encoding="utf-8"?>
<!-- Generator: Adobe Illustrator 29.1.0, SVG Export Plug-In . SVG Version: 9.03 Build 55587)  -->
<svg version="1.1" id="레이어_1" xmlns="http://www.w3.org/2000/svg" xmlns:xlink="http://www.w3.org/1999/xlink" x="0px"
	 y="0px" width="64px" height="71px" viewBox="0 0 64 71" enable-background="new 0 0 64 71" xml:space="preserve">
<g>
	<g>
		<path opacity="0.25" fill="#00C17B" d="M-102.4,1c-16.2,0.1-29.3,13.2-29.3,29.5c0,22.4,29.3,39.5,29.3,39.5s29.3-17.2,29.3-39.5
			C-73.2,14.3-86.3,1.1-102.4,1z"/>
		<path fill="#FFFFFF" stroke="#00C17B" stroke-width="1.5178" stroke-miterlimit="10" d="M-102.4,7c-13.4,0.1-24.2,10.9-24.2,24.3
			c0,18.5,24.2,32.6,24.2,32.6s24.2-14.2,24.2-32.6C-78.3,18-89.1,7.1-102.4,7z"/>
		<g>
			<path fill="#031106" d="M-81.2,29.6c-0.5-0.2-1.1-0.4-1.7-0.4c-1.1,0-2.1,0.4-2.8,1.1v-0.6l0,0h-1.2v6.9l0,0h1.2l0,0l0,0v-3.7
				c0.2-1.4,1.3-2.5,2.8-2.5c0.6,0,1.2,0.2,1.7,0.5c0,0,0.1,0,0.1,0.1l0.7-1C-80.6,29.9-80.9,29.7-81.2,29.6z"/>
			<path fill="#031106" d="M-92.3,29.2c-2.2,0-4,1.8-4,4c0,2.2,1.8,4,4,4c2.2,0,4-1.8,4-4C-88.2,31-90,29.2-92.3,29.2z M-92.3,36.1
				c-1.6,0-2.8-1.3-2.8-2.8c0-1.6,1.3-2.8,2.8-2.8c1.3,0,2.5,0.9,2.7,2.2h-4v1.2h4.1C-89.8,35.1-90.9,36.1-92.3,36.1z"/>
			<polygon fill="#031106" points="-96.7,29.4 -98.5,29.4 -98.5,27.2 -99.8,27.2 -99.8,29.4 -102.3,29.4 -102.3,27.2 -103.5,27.2 
				-103.5,29.4 -105.3,29.4 -105.3,30.7 -103.5,30.7 -103.5,36.7 -102.3,36.7 -102.3,30.7 -99.8,30.7 -99.8,36.7 -98.5,36.7 
				-98.5,30.7 -96.7,30.7 			"/>
			<path fill="#031106" d="M-105.9,33.2c0-2.2-1.8-4-4-4c-2.2,0-4,1.8-4,4c0,2.2,1.8,4,4,4c1.1,0,2.1-0.4,2.8-1.2v0.6h1.2
				L-105.9,33.2L-105.9,33.2z M-109.9,36.1c-1.6,0-2.8-1.3-2.8-2.8c0-1.6,1.3-2.8,2.8-2.8c1.6,0,2.8,1.3,2.8,2.8
				C-107.1,34.8-108.4,36.1-109.9,36.1z"/>
			<path fill="#031106" d="M-119.1,29.2c-1.1,0-2.1,0.4-2.8,1.1v-3.2h-1.2v6.1h0c0,2.2,1.8,4,4,4c2.2,0,4-1.8,4-4
				C-115.1,31-116.9,29.2-119.1,29.2z M-119.1,36.1c-1.6,0-2.8-1.3-2.8-2.8c0-1.6,1.3-2.8,2.8-2.8c1.6,0,2.8,1.3,2.8,2.8
				C-116.3,34.8-117.6,36.1-119.1,36.1z"/>
		</g>
	</g>
	<path fill="#FFFFFF" stroke="#000000" stroke-width="0.3795" stroke-miterlimit="10" d="M-72.5,11.6c-0.4-2.5-2.5-4.3-5.1-4.3
		h-16.8c-2.6,0-4.7,1.9-5.1,4.3l0,0v3.7l0,0c0.4,2.4,2.5,4.3,5.1,4.3h16.8c2.6,0,4.7-1.9,5.1-4.3c0.4-0.1,0.8-0.4,0.8-0.9v-1.9
		C-71.7,12-72.1,11.6-72.5,11.6z"/>
	<path fill="#00C17B" d="M-97.7,13.6v-0.3c0-2.1,1.7-3.9,3.9-3.9h15.6c2.1,0,3.9,1.7,3.9,3.9v0.3c0,2.1-1.7,3.9-3.9,3.9h-15.6
		C-95.9,17.4-97.7,15.7-97.7,13.6z"/>
</g>
<g>
	<path opacity="0.25" fill="#E2D827" d="M-35.6,1c-16.2,0.1-29.3,13.2-29.3,29.5c0,22.4,29.3,39.5,29.3,39.5S-6.3,52.8-6.3,30.5
		C-6.3,14.3-19.4,1.1-35.6,1z"/>
	<path fill="#FFFFFF" stroke="#E2D827" stroke-width="1.5178" stroke-miterlimit="10" d="M-35.6,7C-48.9,7.1-59.8,18-59.8,31.3
		c0,18.5,24.2,32.6,24.2,32.6s24.2-14.2,24.2-32.6C-11.4,18-22.2,7.1-35.6,7z"/>
	<g>
		<path fill="#141204" d="M-14.4,29.6c-0.5-0.2-1.1-0.4-1.7-0.4c-1.1,0-2.1,0.4-2.8,1.1v-0.6l0,0h-1.2v6.9l0,0h1.2l0,0l0,0v-3.7
			c0.2-1.4,1.3-2.5,2.8-2.5c0.6,0,1.2,0.2,1.7,0.5c0,0,0.1,0,0.1,0.1l0.7-1C-13.8,29.9-14.1,29.7-14.4,29.6z"/>
		<path fill="#141204" d="M-25.4,29.2c-2.2,0-4,1.8-4,4c0,2.2,1.8,4,4,4s4-1.8,4-4C-21.4,31-23.2,29.2-25.4,29.2z M-25.4,36.1
			c-1.6,0-2.8-1.3-2.8-2.8c0-1.6,1.3-2.8,2.8-2.8c1.3,0,2.5,0.9,2.7,2.2h-4v1.2h4.1C-22.9,35.1-24,36.1-25.4,36.1z"/>
		<polygon fill="#141204" points="-29.8,29.4 -31.7,29.4 -31.7,27.2 -32.9,27.2 -32.9,29.4 -35.4,29.4 -35.4,27.2 -36.7,27.2 
			-36.7,29.4 -38.5,29.4 -38.5,30.7 -36.7,30.7 -36.7,36.7 -35.4,36.7 -35.4,30.7 -32.9,30.7 -32.9,36.7 -31.7,36.7 -31.7,30.7 
			-29.8,30.7 		"/>
		<path fill="#141204" d="M-39,33.2c0-2.2-1.8-4-4-4s-4,1.8-4,4c0,2.2,1.8,4,4,4c1.1,0,2.1-0.4,2.8-1.2v0.6h1.2L-39,33.2L-39,33.2z
			 M-43.1,36.1c-1.6,0-2.8-1.3-2.8-2.8c0-1.6,1.3-2.8,2.8-2.8s2.8,1.3,2.8,2.8C-40.3,34.8-41.5,36.1-43.1,36.1z"/>
		<path fill="#141204" d="M-52.3,29.2c-1.1,0-2.1,0.4-2.8,1.1v-3.2h-1.2v6.1h0c0,2.2,1.8,4,4,4c2.2,0,4-1.8,4-4
			C-48.2,31-50,29.2-52.3,29.2z M-52.3,36.1c-1.6,0-2.8-1.3-2.8-2.8c0-1.6,1.3-2.8,2.8-2.8s2.8,1.3,2.8,2.8
			C-49.5,34.8-50.7,36.1-52.3,36.1z"/>
	</g>
	<path fill="#FFFFFF" stroke="#000000" stroke-width="0.3795" stroke-miterlimit="10" d="M-5.6,11.6C-6,9.1-8.2,7.3-10.7,7.3h-16.8
		c-2.6,0-4.7,1.9-5.1,4.3l0,0v3.7l0,0c0.4,2.4,2.5,4.3,5.1,4.3h16.8c2.6,0,4.7-1.9,5.1-4.3c0.4-0.1,0.8-0.4,0.8-0.9v-1.9
		C-4.9,12-5.2,11.6-5.6,11.6z"/>
	<path fill="#E2D827" d="M-30.8,13.6v-0.3c0-2.1,1.7-3.9,3.9-3.9h15.6c2.1,0,3.9,1.7,3.9,3.9v0.3c0,2.1-1.7,3.9-3.9,3.9h-15.6
		C-29.1,17.4-30.8,15.7-30.8,13.6z"/>
	<g>
		<rect x="-18.8" y="9.2" fill="#FFFFFF" width="11.7" height="8.5"/>
	</g>
</g>
<g>
	<path opacity="0.25" fill="#E86B6B" d="M31.2,1.1C15,1.2,2,14.3,2,30.5c0,22.3,29.2,39.4,29.2,39.4s29.2-17.1,29.2-39.4
		C60.3,14.3,47.3,1.2,31.2,1.1z"/>
	<path fill="#FFFFFF" stroke="#E86B6B" stroke-width="1.5122" stroke-miterlimit="10" d="M31.2,7.1C17.9,7.2,7.1,18,7.1,31.4
		c0,18.4,24.1,32.5,24.1,32.5s24.1-14.1,24.1-32.5C55.2,18,44.5,7.2,31.2,7.1z"/>
	<g>
		<path fill="#160404" d="M53.1,29.6c-0.5-0.2-1.1-0.4-1.7-0.4c-1.1,0-2.1,0.4-2.8,1.1v-0.6l0,0h-1.2v6.9l0,0h1.2l0,0l0,0V33
			c0.2-1.4,1.3-2.5,2.8-2.5c0.6,0,1.2,0.2,1.7,0.5c0,0,0.1,0,0.1,0.1l0.7-1C53.6,29.9,53.4,29.7,53.1,29.6z"/>
		<path fill="#160404" d="M42.1,29.2c-2.2,0-4,1.8-4,4c0,2.2,1.8,4,4,4s4-1.8,4-4C46.1,31,44.3,29.2,42.1,29.2z M42.1,36.1
			c-1.6,0-2.8-1.3-2.8-2.8c0-1.6,1.3-2.8,2.8-2.8c1.3,0,2.4,0.9,2.7,2.2h-4v1.2h4C44.5,35.1,43.4,36.1,42.1,36.1z"/>
		<polygon fill="#160404" points="37.6,29.4 35.8,29.4 35.8,27.2 34.6,27.2 34.6,29.4 32.1,29.4 32.1,27.2 30.8,27.2 30.8,29.4 
			29,29.4 29,30.7 30.8,30.7 30.8,36.7 32.1,36.7 32.1,30.7 34.6,30.7 34.6,36.7 35.8,36.7 35.8,30.7 37.6,30.7 		"/>
		<path fill="#160404" d="M28.5,33.3c0-2.2-1.8-4-4-4s-4,1.8-4,4c0,2.2,1.8,4,4,4c1.1,0,2.1-0.4,2.8-1.1v0.6h1.2L28.5,33.3
			L28.5,33.3z M24.5,36.1c-1.6,0-2.8-1.3-2.8-2.8c0-1.6,1.3-2.8,2.8-2.8s2.8,1.3,2.8,2.8C27.3,34.8,26,36.1,24.5,36.1z"/>
		<path fill="#160404" d="M15.3,29.2c-1.1,0-2.1,0.4-2.8,1.1v-3.1h-1.2v6h0c0,2.2,1.8,4,4,4c2.2,0,4-1.8,4-4
			C19.3,31,17.5,29.2,15.3,29.2z M15.3,36.1c-1.6,0-2.8-1.3-2.8-2.8c0-1.6,1.3-2.8,2.8-2.8s2.8,1.3,2.8,2.8
			C18.1,34.8,16.8,36.1,15.3,36.1z"/>
	</g>
	<path fill="#FFFFFF" stroke="#000000" stroke-width="0.378" stroke-miterlimit="10" d="M61.2,11.7c-0.4-2.4-2.5-4.3-5.1-4.3H39.4
		c-2.6,0-4.7,1.9-5.1,4.3l0,0v3.7l0,0c0.4,2.4,2.5,4.3,5.1,4.3h16.8c2.6,0,4.7-1.9,5.1-4.3c0.4-0.1,0.8-0.4,0.8-0.9v-1.9
		C62,12.1,61.7,11.7,61.2,11.7z"/>
	<path fill="#E86B6B" d="M36.2,13.7v-0.3c0-2.1,1.7-3.8,3.8-3.8h15.5c2.1,0,3.8,1.7,3.8,3.8v0.3c0,2.1-1.7,3.8-3.8,3.8H40
		C37.9,17.5,36.2,15.8,36.2,13.7z"/>
	<g>
		<rect x="40.6" y="9.3" fill="#FFFFFF" width="19.1" height="8.5"/>
	</g>
</g>
<g>
	<path opacity="0.25" fill="#FFFFFF" d="M-258.7,1c-12.1,0.1-22,9.9-22,22.1c0,16.8,22,29.6,22,29.6s22-12.9,22-29.6
		C-236.8,10.9-246.6,1.1-258.7,1z"/>
	<path fill="#00C17B" stroke="#FFFFFF" stroke-width="1.1384" stroke-miterlimit="10" d="M-258.7,5.5c-10,0.1-18.1,8.2-18.1,18.2
		c0,13.9,18.1,24.5,18.1,24.5s18.1-10.6,18.1-24.5C-240.6,13.7-248.7,5.6-258.7,5.5z"/>
	<g>
		<path fill="#031106" d="M-242.8,22.4c-0.4-0.2-0.8-0.3-1.2-0.3c-0.8,0-1.6,0.3-2.1,0.9v-0.4l0,0h-0.9v5.2l0,0h0.9l0,0l0,0V25
			c0.1-1.1,1-1.9,2.1-1.9c0.5,0,0.9,0.2,1.2,0.4c0,0,0,0,0.1,0l0.6-0.7C-242.4,22.7-242.6,22.5-242.8,22.4z"/>
		<path fill="#031106" d="M-251.1,22.2c-1.7,0-3,1.4-3,3c0,1.7,1.4,3,3,3c1.7,0,3-1.4,3-3C-248,23.5-249.4,22.2-251.1,22.2z
			 M-251.1,27.3c-1.2,0-2.1-0.9-2.1-2.1c0-1.2,0.9-2.1,2.1-2.1c1,0,1.8,0.7,2.1,1.6h-3v0.9h3C-249.2,26.6-250.1,27.3-251.1,27.3z"/>
		<polygon fill="#031106" points="-254.4,22.3 -255.8,22.3 -255.8,20.7 -256.7,20.7 -256.7,22.3 -258.6,22.3 -258.6,20.7 
			-259.5,20.7 -259.5,22.3 -260.9,22.3 -260.9,23.2 -259.5,23.2 -259.5,27.8 -258.6,27.8 -258.6,23.2 -256.7,23.2 -256.7,27.8 
			-255.8,27.8 -255.8,23.2 -254.4,23.2 		"/>
		<path fill="#031106" d="M-261.3,25.2c0-1.7-1.4-3-3-3s-3,1.4-3,3c0,1.7,1.4,3,3,3c0.8,0,1.6-0.3,2.1-0.9v0.4h0.9L-261.3,25.2
			L-261.3,25.2z M-264.3,27.3c-1.2,0-2.1-0.9-2.1-2.1c0-1.2,0.9-2.1,2.1-2.1c1.2,0,2.1,0.9,2.1,2.1
			C-262.2,26.4-263.2,27.3-264.3,27.3z"/>
		<path fill="#031106" d="M-271.2,22.2c-0.8,0-1.6,0.3-2.1,0.9v-2.4h-0.9v4.6h0c0,1.7,1.4,3,3,3c1.7,0,3-1.4,3-3
			C-268.2,23.5-269.6,22.2-271.2,22.2z M-271.2,27.3c-1.2,0-2.1-0.9-2.1-2.1c0-1.2,0.9-2.1,2.1-2.1c1.2,0,2.1,0.9,2.1,2.1
			C-269.1,26.4-270.1,27.3-271.2,27.3z"/>
	</g>
	<path fill="#FFFFFF" stroke="#000000" stroke-width="0.2846" stroke-miterlimit="10" d="M-236.3,8.9c-0.3-1.8-1.9-3.2-3.8-3.2
		h-12.6c-1.9,0-3.5,1.4-3.8,3.2l0,0v2.8l0,0c0.3,1.8,1.9,3.2,3.8,3.2h12.6c1.9,0,3.5-1.4,3.8-3.2c0.3,0,0.6-0.3,0.6-0.7V9.6
		C-235.7,9.3-235.9,9-236.3,8.9z"/>
	<path fill="#00C17B" d="M-255.1,10.4v-0.2c0-1.6,1.3-2.9,2.9-2.9h11.7c1.6,0,2.9,1.3,2.9,2.9v0.2c0,1.6-1.3,2.9-2.9,2.9h-11.7
		C-253.8,13.3-255.1,12-255.1,10.4z"/>
</g>
<g>
	<g opacity="0.25">
		<path fill="#FFFFFF" d="M-209.4,1c-12.1,0.1-22,9.9-22,22.1c0,16.8,22,29.6,22,29.6s22-12.9,22-29.6
			C-187.4,10.9-197.3,1.1-209.4,1z"/>
	</g>
	<path fill="#E2D827" stroke="#FFFFFF" stroke-width="1.1384" stroke-miterlimit="10" d="M-209.4,5.5c-10,0.1-18.1,8.2-18.1,18.2
		c0,13.9,18.1,24.5,18.1,24.5s18.1-10.6,18.1-24.5C-191.3,13.7-199.4,5.6-209.4,5.5z"/>
	<g>
		<path fill="#141204" d="M-193.5,22.4c-0.4-0.2-0.8-0.3-1.2-0.3c-0.8,0-1.6,0.3-2.1,0.9v-0.4l0,0h-0.9v5.2l0,0h0.9l0,0l0,0V25
			c0.1-1.1,1-1.9,2.1-1.9c0.5,0,0.9,0.2,1.2,0.4c0,0,0,0,0.1,0l0.6-0.7C-193.1,22.7-193.3,22.5-193.5,22.4z"/>
		<path fill="#141204" d="M-201.8,22.2c-1.7,0-3,1.4-3,3c0,1.7,1.4,3,3,3s3-1.4,3-3C-198.7,23.5-200.1,22.2-201.8,22.2z
			 M-201.8,27.3c-1.2,0-2.1-0.9-2.1-2.1c0-1.2,0.9-2.1,2.1-2.1c1,0,1.8,0.7,2.1,1.6h-3v0.9h3C-199.9,26.6-200.7,27.3-201.8,27.3z"/>
		<polygon fill="#141204" points="-205.1,22.3 -206.5,22.3 -206.5,20.7 -207.4,20.7 -207.4,22.3 -209.3,22.3 -209.3,20.7 
			-210.2,20.7 -210.2,22.3 -211.6,22.3 -211.6,23.2 -210.2,23.2 -210.2,27.8 -209.3,27.8 -209.3,23.2 -207.4,23.2 -207.4,27.8 
			-206.5,27.8 -206.5,23.2 -205.1,23.2 		"/>
		<path fill="#141204" d="M-212,25.2c0-1.7-1.4-3-3-3c-1.7,0-3,1.4-3,3c0,1.7,1.4,3,3,3c0.8,0,1.6-0.3,2.1-0.9v0.4h0.9L-212,25.2
			L-212,25.2z M-215,27.3c-1.2,0-2.1-0.9-2.1-2.1c0-1.2,0.9-2.1,2.1-2.1c1.2,0,2.1,0.9,2.1,2.1C-212.9,26.4-213.8,27.3-215,27.3z"/>
		<path fill="#141204" d="M-221.9,22.2c-0.8,0-1.6,0.3-2.1,0.9v-2.4h-0.9v4.6h0c0,1.7,1.4,3,3,3c1.7,0,3-1.4,3-3
			C-218.9,23.5-220.2,22.2-221.9,22.2z M-221.9,27.3c-1.2,0-2.1-0.9-2.1-2.1c0-1.2,0.9-2.1,2.1-2.1c1.2,0,2.1,0.9,2.1,2.1
			C-219.8,26.4-220.7,27.3-221.9,27.3z"/>
	</g>
	<path fill="#FFFFFF" stroke="#000000" stroke-width="0.2846" stroke-miterlimit="10" d="M-186.9,8.9c-0.3-1.8-1.9-3.2-3.8-3.2
		h-12.6c-1.9,0-3.5,1.4-3.8,3.2l0,0v2.8l0,0c0.3,1.8,1.9,3.2,3.8,3.2h12.6c1.9,0,3.5-1.4,3.8-3.2c0.3,0,0.6-0.3,0.6-0.7V9.6
		C-186.4,9.3-186.6,9-186.9,8.9z"/>
	<path fill="#E2D827" d="M-205.8,10.4v-0.2c0-1.6,1.3-2.9,2.9-2.9h11.7c1.6,0,2.9,1.3,2.9,2.9v0.2c0,1.6-1.3,2.9-2.9,2.9h-11.7
		C-204.5,13.3-205.8,12-205.8,10.4z"/>
	<g>
		<rect x="-196.8" y="7.1" fill="#FFFFFF" width="8.8" height="6.4"/>
	</g>
</g>
<g>
	<path opacity="0.25" fill="#FFFFFF" d="M-160.2,1.1c-12.1,0.1-21.9,9.9-21.9,22c0,16.7,21.9,29.5,21.9,29.5s21.9-12.8,21.9-29.5
		C-138.3,11-148.1,1.2-160.2,1.1z"/>
	<path fill="#E86B6B" stroke="#FFFFFF" stroke-width="1.1341" stroke-miterlimit="10" d="M-160.2,5.6c-10,0.1-18.1,8.2-18.1,18.2
		c0,13.8,18.1,24.4,18.1,24.4s18.1-10.6,18.1-24.4C-142.1,13.8-150.2,5.7-160.2,5.6z"/>
	<g>
		<path fill="#160404" d="M-143.7,22.4c-0.4-0.2-0.8-0.3-1.2-0.3c-0.8,0-1.6,0.3-2.1,0.8v-0.4l0,0h-0.9v5.2l0,0h0.9l0,0l0,0V25
			c0.1-1.1,1-1.9,2.1-1.9c0.5,0,0.9,0.2,1.2,0.4c0,0,0,0,0.1,0l0.6-0.7C-143.3,22.7-143.5,22.5-143.7,22.4z"/>
		<path fill="#160404" d="M-152,22.2c-1.7,0-3,1.4-3,3c0,1.7,1.4,3,3,3c1.7,0,3-1.4,3-3C-149,23.5-150.3,22.2-152,22.2z M-152,27.3
			c-1.2,0-2.1-0.9-2.1-2.1c0-1.2,0.9-2.1,2.1-2.1c1,0,1.8,0.7,2.1,1.6h-3v0.9h3C-150.1,26.6-151,27.3-152,27.3z"/>
		<polygon fill="#160404" points="-155.3,22.3 -156.7,22.3 -156.7,20.7 -157.6,20.7 -157.6,22.3 -159.5,22.3 -159.5,20.7 
			-160.4,20.7 -160.4,22.3 -161.8,22.3 -161.8,23.3 -160.4,23.3 -160.4,27.8 -159.5,27.8 -159.5,23.3 -157.6,23.3 -157.6,27.8 
			-156.7,27.8 -156.7,23.3 -155.3,23.3 		"/>
		<path fill="#160404" d="M-162.2,25.2c0-1.7-1.4-3-3-3s-3,1.4-3,3c0,1.7,1.4,3,3,3c0.8,0,1.6-0.3,2.1-0.9v0.4h0.9L-162.2,25.2
			L-162.2,25.2z M-165.2,27.3c-1.2,0-2.1-0.9-2.1-2.1c0-1.2,0.9-2.1,2.1-2.1s2.1,0.9,2.1,2.1C-163.1,26.4-164,27.3-165.2,27.3z"/>
		<path fill="#160404" d="M-172.1,22.2c-0.8,0-1.6,0.3-2.1,0.9v-2.4h-0.9v4.5h0c0,1.7,1.4,3,3,3c1.7,0,3-1.4,3-3
			C-169,23.5-170.4,22.2-172.1,22.2z M-172.1,27.3c-1.2,0-2.1-0.9-2.1-2.1c0-1.2,0.9-2.1,2.1-2.1s2.1,0.9,2.1,2.1
			C-170,26.4-170.9,27.3-172.1,27.3z"/>
	</g>
	<path fill="#FFFFFF" stroke="#000000" stroke-width="0.2835" stroke-miterlimit="10" d="M-137.6,9c-0.3-1.8-1.9-3.2-3.8-3.2H-154
		c-1.9,0-3.5,1.4-3.8,3.2l0,0v2.8l0,0c0.3,1.8,1.9,3.2,3.8,3.2h12.6c1.9,0,3.5-1.4,3.8-3.2c0.3,0,0.6-0.3,0.6-0.7V9.7
		C-137,9.3-137.3,9-137.6,9z"/>
	<path fill="#E86B6B" d="M-156.4,10.5v-0.2c0-1.6,1.3-2.9,2.9-2.9h11.6c1.6,0,2.9,1.3,2.9,2.9v0.2c0,1.6-1.3,2.9-2.9,2.9h-11.6
		C-155.1,13.4-156.4,12.1-156.4,10.5z"/>
	<g>
		<rect x="-153.1" y="7.2" fill="#FFFFFF" width="14.4" height="6.4"/>
	</g>
</g>
<g>
	<path opacity="0.4" fill="#FF4A4A" d="M98.5,0.2c-16.6,0.1-30,13.6-30,30.2c0,22.9,30,40.5,30,40.5s30-17.6,30-40.5
		C128.5,13.7,115,0.3,98.5,0.2z"/>
	<path fill="#FF4A4A" stroke="#FFFFFF" stroke-width="1.5555" stroke-miterlimit="10" d="M98.5,6.3C84.8,6.4,73.7,17.5,73.7,31.2
		c0,18.9,24.8,33.4,24.8,33.4s24.8-14.5,24.8-33.4C123.2,17.5,112.2,6.4,98.5,6.3z"/>
	<path fill="#FFFFFF" d="M90.7,24.4c0,0,1,2.7-3.5,9.5s0.6,17.2,10.1,17c0,0-0.2-0.9,0-3.1c0.2-2.2,0.5-3.8,0.5-3.8s0.3,3.2,1,4.6
		s1.3,2.1,1.3,2.1s3.3-0.1,5.5-1.8s4.8-4.4,4.9-8.5s-2.1-8.1-2.4-10.2c-0.3-2.1-0.4-3.5-0.4-3.5s-1.6,1.7-1.9,4.4
		c-0.3,2.7-0.2,5.7-2.1,7.9c0,0,1.2-3,1-5.9c-0.2-2.9-1.1-6.1-2.6-8.4c-1.6-2.3-1.9-5.6-1.8-7.2c0.1-1.5,0.4-2.6,0.4-2.6
		s-3.7,1.6-5,4.7c-1.3,3.1-1.2,5.8-1.2,7.2c0.1,1.4,0,4.2-0.5,6.1c0,0-0.8-3.5-1.7-5.6C91.5,25.2,90.7,24.4,90.7,24.4z"/>
</g>
</svg>
