<?xml version="1.0" encoding="utf-8"?>
<!-- Generator: Adobe Illustrator 29.1.0, SVG Export Plug-In . SVG Version: 9.03 Build 55587)  -->
<svg version="1.1" id="레이어_1" xmlns="http://www.w3.org/2000/svg" xmlns:xlink="http://www.w3.org/1999/xlink" x="0px"
	 y="0px" width="196.215px" height="224.202px" viewBox="0 0 196.215 224.202" enable-background="new 0 0 196.215 224.202"
	 xml:space="preserve">
<g>
	<g>
		<path opacity="0.25" fill="#00C17B" d="M641.159,1.007c-16.184,0.101-29.274,13.248-29.274,29.456
			c0,22.375,29.274,39.529,29.274,39.529s29.274-17.154,29.274-39.529C670.433,14.255,657.343,1.108,641.159,1.007z"/>
		<path fill="#FFFFFF" stroke="#00C17B" stroke-width="1.5178" stroke-miterlimit="10" d="M641.159,7.025
			c-13.361,0.083-24.167,10.937-24.167,24.317c0,18.472,24.167,32.633,24.167,32.633s24.167-14.162,24.167-32.633
			C665.326,17.962,654.52,7.108,641.159,7.025z"/>
		<g>
			<path fill="#031106" d="M662.377,29.564c-0.506-0.228-1.065-0.358-1.656-0.358c-1.09,0-2.077,0.433-2.804,1.134v-0.558l0,0
				h-1.239v6.911l0,0h1.239l0,0l0,0v-3.746c0.151-1.416,1.348-2.519,2.804-2.519c0.62,0,1.191,0.202,1.656,0.541
				c0.027,0.02,0.054,0.04,0.081,0.06l0.748-0.966C662.952,29.866,662.675,29.698,662.377,29.564z"/>
			<path fill="#031106" d="M651.348,29.207c-2.233,0-4.043,1.81-4.043,4.043c0,2.233,1.81,4.043,4.043,4.043s4.043-1.81,4.043-4.043
				C655.391,31.017,653.581,29.207,651.348,29.207z M651.348,36.07c-1.558,0-2.82-1.263-2.82-2.821c0-1.558,1.263-2.821,2.82-2.821
				c1.337,0,2.454,0.931,2.745,2.179h-4.047v1.239h4.058C653.83,35.117,652.701,36.07,651.348,36.07z"/>
			<polygon fill="#031106" points="646.892,29.417 645.083,29.417 645.083,27.2 643.844,27.2 643.844,29.417 641.307,29.417 
				641.307,27.2 640.068,27.2 640.068,29.417 638.259,29.417 638.259,30.656 640.068,30.656 640.068,36.694 641.307,36.694 
				641.307,30.656 643.844,30.656 643.844,36.694 645.083,36.694 645.083,30.656 646.892,30.656 			"/>
			<path fill="#031106" d="M637.708,33.25c0-2.233-1.81-4.043-4.043-4.043c-2.233,0-4.043,1.81-4.043,4.043
				c0,2.233,1.81,4.043,4.043,4.043c1.1,0,2.096-0.441,2.825-1.153v0.555h1.218L637.708,33.25L637.708,33.25z M633.665,36.07
				c-1.558,0-2.82-1.263-2.82-2.821c0-1.558,1.263-2.821,2.82-2.821c1.558,0,2.821,1.263,2.821,2.821
				C636.486,34.807,635.223,36.07,633.665,36.07z"/>
			<path fill="#031106" d="M624.466,29.207c-1.098,0-2.092,0.439-2.82,1.149V27.2h-1.222v6.068h0.001
				c0.01,2.224,1.815,4.025,4.042,4.025c2.233,0,4.043-1.81,4.043-4.043C628.509,31.017,626.699,29.207,624.466,29.207z
				 M624.466,36.07c-1.558,0-2.82-1.263-2.82-2.821c0-1.558,1.263-2.821,2.82-2.821s2.821,1.263,2.821,2.821
				C627.286,34.807,626.024,36.07,624.466,36.07z"/>
		</g>
	</g>
	<path fill="#FFFFFF" stroke="#000000" stroke-width="0.3795" stroke-miterlimit="10" d="M671.107,11.584
		c-0.404-2.455-2.53-4.329-5.099-4.329h-16.835c-2.566,0-4.689,1.869-5.098,4.319l0,0v3.717l0,0c0.408,2.45,2.532,4.319,5.098,4.319
		h16.835c2.569,0,4.695-1.874,5.099-4.329c0.437-0.055,0.777-0.424,0.777-0.876v-1.946
		C671.885,12.008,671.545,11.639,671.107,11.584z"/>
	<path fill="#00C17B" d="M645.94,13.587V13.28c0-2.133,1.729-3.862,3.862-3.862h15.577c2.133,0,3.862,1.729,3.862,3.862v0.307
		c0,2.133-1.729,3.862-3.862,3.862h-15.577C647.669,17.449,645.94,15.72,645.94,13.587z"/>
</g>
<g>
	<path opacity="0.25" fill="#E2D827" d="M708.016,1.007c-16.184,0.101-29.274,13.248-29.274,29.456
		c0,22.375,29.274,39.529,29.274,39.529s29.274-17.154,29.274-39.529C737.29,14.255,724.2,1.108,708.016,1.007z"/>
	<path fill="#FFFFFF" stroke="#E2D827" stroke-width="1.5178" stroke-miterlimit="10" d="M708.016,7.025
		c-13.361,0.083-24.167,10.937-24.167,24.317c0,18.472,24.167,32.633,24.167,32.633s24.167-14.162,24.167-32.633
		C732.183,17.962,721.377,7.108,708.016,7.025z"/>
	<g>
		<path fill="#141204" d="M729.234,29.564c-0.506-0.228-1.065-0.358-1.656-0.358c-1.09,0-2.077,0.433-2.804,1.134v-0.558l0,0h-1.239
			v6.911l0,0h1.239l0,0l0,0v-3.746c0.151-1.416,1.348-2.519,2.804-2.519c0.62,0,1.191,0.202,1.656,0.541
			c0.027,0.02,0.054,0.04,0.081,0.06l0.748-0.966C729.809,29.866,729.532,29.698,729.234,29.564z"/>
		<path fill="#141204" d="M718.205,29.207c-2.233,0-4.043,1.81-4.043,4.043c0,2.233,1.81,4.043,4.043,4.043
			c2.233,0,4.043-1.81,4.043-4.043C722.248,31.017,720.438,29.207,718.205,29.207z M718.205,36.07c-1.558,0-2.82-1.263-2.82-2.821
			c0-1.558,1.263-2.821,2.82-2.821c1.337,0,2.454,0.931,2.745,2.179h-4.047v1.239h4.058C720.687,35.117,719.558,36.07,718.205,36.07
			z"/>
		<polygon fill="#141204" points="713.749,29.417 711.94,29.417 711.94,27.2 710.701,27.2 710.701,29.417 708.164,29.417 
			708.164,27.2 706.925,27.2 706.925,29.417 705.116,29.417 705.116,30.656 706.925,30.656 706.925,36.694 708.164,36.694 
			708.164,30.656 710.701,30.656 710.701,36.694 711.94,36.694 711.94,30.656 713.749,30.656 		"/>
		<path fill="#141204" d="M704.565,33.25c0-2.233-1.81-4.043-4.043-4.043s-4.043,1.81-4.043,4.043c0,2.233,1.81,4.043,4.043,4.043
			c1.1,0,2.096-0.441,2.825-1.153v0.555h1.218L704.565,33.25L704.565,33.25z M700.522,36.07c-1.558,0-2.82-1.263-2.82-2.821
			c0-1.558,1.263-2.821,2.82-2.821s2.821,1.263,2.821,2.821C703.343,34.807,702.08,36.07,700.522,36.07z"/>
		<path fill="#141204" d="M691.323,29.207c-1.098,0-2.092,0.439-2.82,1.149V27.2h-1.222v6.068h0.001
			c0.01,2.224,1.815,4.025,4.042,4.025c2.233,0,4.043-1.81,4.043-4.043C695.366,31.017,693.556,29.207,691.323,29.207z
			 M691.323,36.07c-1.558,0-2.82-1.263-2.82-2.821c0-1.558,1.263-2.821,2.82-2.821c1.558,0,2.821,1.263,2.821,2.821
			C694.144,34.807,692.881,36.07,691.323,36.07z"/>
	</g>
	<path fill="#FFFFFF" stroke="#000000" stroke-width="0.3795" stroke-miterlimit="10" d="M737.964,11.584
		c-0.404-2.455-2.53-4.329-5.099-4.329H716.03c-2.566,0-4.689,1.869-5.098,4.319l0,0v3.717l0,0c0.408,2.45,2.532,4.319,5.098,4.319
		h16.835c2.569,0,4.695-1.874,5.099-4.329c0.438-0.055,0.777-0.424,0.777-0.876v-1.946
		C738.742,12.008,738.402,11.639,737.964,11.584z"/>
	<path fill="#E2D827" d="M712.797,13.587V13.28c0-2.133,1.729-3.862,3.862-3.862h15.577c2.133,0,3.862,1.729,3.862,3.862v0.307
		c0,2.133-1.729,3.862-3.862,3.862h-15.577C714.526,17.449,712.797,15.72,712.797,13.587z"/>
	<g>
		<rect x="724.837" y="9.16" fill="#FFFFFF" width="11.668" height="8.546"/>
	</g>
</g>
<g>
	<path opacity="0.25" fill="#E86B6B" d="M774.764,1.136c-16.124,0.1-29.165,13.198-29.165,29.346
		c0,22.292,29.165,39.382,29.165,39.382s29.165-17.09,29.165-39.382C803.93,14.334,790.888,1.236,774.764,1.136z"/>
	<path fill="#FFFFFF" stroke="#E86B6B" stroke-width="1.5122" stroke-miterlimit="10" d="M774.764,7.131
		c-13.311,0.083-24.077,10.896-24.077,24.227c0,18.403,24.077,32.512,24.077,32.512s24.077-14.109,24.077-32.512
		C798.841,18.027,788.075,7.214,774.764,7.131z"/>
	<g>
		<path fill="#160404" d="M796.662,29.586c-0.504-0.227-1.062-0.356-1.65-0.356c-1.086,0-2.069,0.432-2.794,1.13v-0.556l0,0h-1.234
			v6.885l0,0h1.234l0,0l0,0v-3.732c0.15-1.411,1.343-2.51,2.794-2.51c0.617,0,1.186,0.201,1.65,0.539
			c0.027,0.02,0.054,0.04,0.08,0.06l0.745-0.962C797.235,29.887,796.958,29.719,796.662,29.586z"/>
		<path fill="#160404" d="M785.674,29.23c-2.225,0-4.028,1.803-4.028,4.028c0,2.225,1.803,4.028,4.028,4.028
			s4.028-1.803,4.028-4.028C789.702,31.033,787.899,29.23,785.674,29.23z M785.674,36.068c-1.552,0-2.81-1.258-2.81-2.81
			c0-1.552,1.258-2.81,2.81-2.81c1.332,0,2.445,0.927,2.734,2.171h-4.032v1.234h4.043C788.146,35.119,787.021,36.068,785.674,36.068
			z"/>
		<polygon fill="#160404" points="781.234,29.44 779.432,29.44 779.432,27.231 778.197,27.231 778.197,29.44 775.67,29.44 
			775.67,27.231 774.436,27.231 774.436,29.44 772.633,29.44 772.633,30.674 774.436,30.674 774.436,36.689 775.67,36.689 
			775.67,30.674 778.197,30.674 778.197,36.689 779.432,36.689 779.432,30.674 781.234,30.674 		"/>
		<path fill="#160404" d="M772.085,33.258c0-2.225-1.803-4.028-4.028-4.028s-4.028,1.803-4.028,4.028
			c0,2.225,1.803,4.028,4.028,4.028c1.096,0,2.088-0.439,2.814-1.149v0.553h1.214L772.085,33.258L772.085,33.258z M768.057,36.068
			c-1.552,0-2.81-1.258-2.81-2.81c0-1.552,1.258-2.81,2.81-2.81c1.552,0,2.81,1.258,2.81,2.81
			C770.867,34.81,769.609,36.068,768.057,36.068z"/>
		<path fill="#160404" d="M758.892,29.23c-1.094,0-2.084,0.437-2.81,1.145v-3.144h-1.218v6.045h0.001
			c0.01,2.216,1.808,4.01,4.027,4.01c2.225,0,4.028-1.803,4.028-4.028C762.92,31.033,761.116,29.23,758.892,29.23z M758.892,36.068
			c-1.552,0-2.81-1.258-2.81-2.81c0-1.552,1.258-2.81,2.81-2.81c1.552,0,2.81,1.258,2.81,2.81
			C761.702,34.81,760.444,36.068,758.892,36.068z"/>
	</g>
	<path fill="#FFFFFF" stroke="#000000" stroke-width="0.378" stroke-miterlimit="10" d="M804.824,11.673
		c-0.403-2.445-2.521-4.313-5.08-4.313h-16.772c-2.556,0-4.672,1.862-5.079,4.303l0,0v3.703l0,0
		c0.407,2.441,2.523,4.303,5.079,4.303h16.772c2.559,0,4.677-1.867,5.08-4.313c0.436-0.055,0.774-0.422,0.774-0.873v-1.939
		C805.599,12.096,805.26,11.728,804.824,11.673z"/>
	<path fill="#E86B6B" d="M779.751,13.669v-0.306c0-2.125,1.723-3.848,3.848-3.848h15.519c2.125,0,3.848,1.723,3.848,3.848v0.306
		c0,2.125-1.723,3.848-3.848,3.848h-15.519C781.473,17.516,779.751,15.794,779.751,13.669z"/>
	<g>
		<rect x="784.223" y="9.258" fill="#FFFFFF" width="19.148" height="8.514"/>
	</g>
</g>
<g>
	<path opacity="0.25" fill="#FFFFFF" d="M95.809,2.875C44.559,3.194,3.107,44.826,3.107,96.151
		c0,70.855,92.702,125.176,92.702,125.176s92.702-54.322,92.702-125.176C188.511,44.826,147.06,3.194,95.809,2.875z"/>
	<path fill="#00C17B" stroke="#FFFFFF" stroke-width="4.8065" stroke-miterlimit="10" d="M95.809,21.93
		C53.5,22.193,19.28,56.562,19.28,98.934c0,58.494,76.529,103.338,76.529,103.338s76.529-44.845,76.529-103.338
		C172.339,56.562,138.119,22.193,95.809,21.93z"/>
	<g>
		<path fill="#031106" d="M163.001,93.304c-1.602-0.721-3.374-1.132-5.245-1.132c-3.451,0-6.577,1.372-8.879,3.592v-1.766l0,0
			h-3.923v21.884l0,0h3.923l0,0l0,0V104.02c0.477-4.484,4.269-7.978,8.879-7.978c1.962,0,3.771,0.64,5.245,1.713
			c0.086,0.063,0.172,0.126,0.256,0.191l2.368-3.057C164.821,94.261,163.943,93.728,163.001,93.304z"/>
		<path fill="#031106" d="M128.076,92.172c-7.071,0-12.803,5.732-12.803,12.803c0,7.071,5.732,12.803,12.803,12.803
			c7.071,0,12.803-5.732,12.803-12.803C140.879,97.904,135.146,92.172,128.076,92.172z M128.076,113.906
			c-4.933,0-8.931-3.999-8.931-8.932c0-4.933,3.999-8.932,8.931-8.932c4.233,0,7.77,2.948,8.691,6.9h-12.816v3.923h12.852
			C135.934,110.89,132.359,113.906,128.076,113.906z"/>
		<polygon fill="#031106" points="113.964,92.84 108.235,92.84 108.235,85.817 104.311,85.817 104.311,92.84 96.279,92.84 
			96.279,85.817 92.356,85.817 92.356,92.84 86.627,92.84 86.627,96.763 92.356,96.763 92.356,115.882 96.279,115.882 
			96.279,96.763 104.311,96.763 104.311,115.882 108.235,115.882 108.235,96.763 113.964,96.763 		"/>
		<path fill="#031106" d="M84.882,104.974c0-7.071-5.732-12.803-12.803-12.803s-12.803,5.732-12.803,12.803
			c0,7.071,5.732,12.803,12.803,12.803c3.483,0,6.637-1.395,8.946-3.652v1.757h3.858L84.882,104.974L84.882,104.974z
			 M72.079,113.906c-4.933,0-8.931-3.999-8.931-8.932c0-4.933,3.999-8.932,8.931-8.932s8.932,3.999,8.932,8.932
			C81.011,109.907,77.012,113.906,72.079,113.906z"/>
		<path fill="#031106" d="M42.948,92.172c-3.476,0-6.625,1.39-8.931,3.639v-9.994h-3.871v19.214h0.003
			c0.031,7.044,5.748,12.746,12.8,12.746c7.071,0,12.803-5.732,12.803-12.803C55.751,97.904,50.019,92.172,42.948,92.172z
			 M42.948,113.906c-4.933,0-8.931-3.999-8.931-8.932c0-4.933,3.999-8.932,8.931-8.932s8.932,3.999,8.932,8.932
			C51.88,109.907,47.881,113.906,42.948,113.906z"/>
	</g>
	<path fill="#FFFFFF" stroke="#000000" stroke-width="1.2016" stroke-miterlimit="10" d="M190.646,36.367
		c-1.28-7.773-8.012-13.708-16.147-13.708h-53.311c-8.125,0-14.85,5.92-16.143,13.678l0,0v11.771l0,0
		c1.293,7.758,8.018,13.678,16.143,13.678h53.311c8.135,0,14.867-5.935,16.147-13.708c1.385-0.173,2.462-1.343,2.462-2.775v-6.162
		C193.107,37.71,192.031,36.541,190.646,36.367z"/>
	<path fill="#00C17B" d="M110.949,42.71v-0.973c0-6.755,5.476-12.23,12.23-12.23h49.327c6.755,0,12.23,5.476,12.23,12.23v0.973
		c0,6.755-5.476,12.23-12.23,12.23h-49.327C116.425,54.94,110.949,49.464,110.949,42.71z"/>
</g>
<g>
	<g opacity="0.25">
		<path fill="#FFFFFF" d="M301.496,2.875c-51.25,0.319-92.702,41.951-92.702,93.277c0,70.855,92.702,125.176,92.702,125.176
			s92.702-54.322,92.702-125.176C394.198,44.826,352.746,3.194,301.496,2.875z"/>
	</g>
	<path fill="#E2D827" stroke="#FFFFFF" stroke-width="4.8065" stroke-miterlimit="10" d="M301.496,21.93
		c-42.31,0.264-76.529,34.633-76.529,77.004c0,58.494,76.529,103.338,76.529,103.338s76.529-44.845,76.529-103.338
		C378.025,56.562,343.805,22.193,301.496,21.93z"/>
	<g>
		<path fill="#141204" d="M368.688,93.304c-1.602-0.721-3.374-1.132-5.245-1.132c-3.451,0-6.577,1.372-8.879,3.592v-1.766l0,0
			h-3.923v21.884l0,0h3.923l0,0l0,0V104.02c0.477-4.484,4.269-7.978,8.879-7.978c1.962,0,3.771,0.64,5.245,1.713
			c0.086,0.063,0.172,0.126,0.256,0.191l2.368-3.057C370.508,94.261,369.629,93.728,368.688,93.304z"/>
		<path fill="#141204" d="M333.762,92.172c-7.071,0-12.803,5.732-12.803,12.803c0,7.071,5.732,12.803,12.803,12.803
			c7.071,0,12.803-5.732,12.803-12.803C346.565,97.904,340.833,92.172,333.762,92.172z M333.762,113.906
			c-4.933,0-8.931-3.999-8.931-8.932c0-4.933,3.999-8.932,8.931-8.932c4.233,0,7.77,2.948,8.691,6.9h-12.816v3.923h12.852
			C341.62,110.89,338.045,113.906,333.762,113.906z"/>
		<polygon fill="#141204" points="319.651,92.84 313.921,92.84 313.921,85.817 309.998,85.817 309.998,92.84 301.965,92.84 
			301.965,85.817 298.042,85.817 298.042,92.84 292.313,92.84 292.313,96.763 298.042,96.763 298.042,115.882 301.965,115.882 
			301.965,96.763 309.998,96.763 309.998,115.882 313.921,115.882 313.921,96.763 319.651,96.763 		"/>
		<path fill="#141204" d="M290.569,104.974c0-7.071-5.732-12.803-12.803-12.803c-7.071,0-12.803,5.732-12.803,12.803
			c0,7.071,5.732,12.803,12.803,12.803c3.483,0,6.637-1.395,8.946-3.652v1.757h3.858L290.569,104.974L290.569,104.974z
			 M277.766,113.906c-4.933,0-8.931-3.999-8.931-8.932c0-4.933,3.999-8.932,8.931-8.932c4.933,0,8.932,3.999,8.932,8.932
			C286.698,109.907,282.699,113.906,277.766,113.906z"/>
		<path fill="#141204" d="M248.634,92.172c-3.476,0-6.625,1.39-8.931,3.639v-9.994h-3.871v19.214h0.003
			c0.031,7.044,5.748,12.746,12.8,12.746c7.071,0,12.803-5.732,12.803-12.803C261.437,97.904,255.705,92.172,248.634,92.172z
			 M248.634,113.906c-4.933,0-8.931-3.999-8.931-8.932c0-4.933,3.999-8.932,8.931-8.932c4.933,0,8.932,3.999,8.932,8.932
			C257.566,109.907,253.567,113.906,248.634,113.906z"/>
	</g>
	<path fill="#FFFFFF" stroke="#000000" stroke-width="1.2016" stroke-miterlimit="10" d="M396.332,36.367
		c-1.28-7.773-8.012-13.708-16.147-13.708h-53.311c-8.125,0-14.85,5.92-16.143,13.678l0,0v11.771l0,0
		c1.293,7.758,8.018,13.678,16.143,13.678h53.311c8.135,0,14.867-5.935,16.147-13.708c1.385-0.173,2.462-1.343,2.462-2.775v-6.162
		C398.794,37.71,397.718,36.541,396.332,36.367z"/>
	<path fill="#E2D827" d="M316.636,42.71v-0.973c0-6.755,5.476-12.23,12.23-12.23h49.327c6.755,0,12.23,5.476,12.23,12.23v0.973
		c0,6.755-5.476,12.23-12.23,12.23h-49.327C322.111,54.94,316.636,49.464,316.636,42.71z"/>
	<g>
		<rect x="354.762" y="28.692" fill="#FFFFFF" width="36.949" height="27.063"/>
	</g>
</g>
<g>
	<path opacity="0.25" fill="#FFFFFF" d="M506.837,3.281c-51.06,0.318-92.357,41.795-92.357,92.93
		c0,70.591,92.357,124.71,92.357,124.71s92.357-54.119,92.357-124.71C599.194,45.076,557.897,3.599,506.837,3.281z"/>
	<path fill="#E86B6B" stroke="#FFFFFF" stroke-width="4.7886" stroke-miterlimit="10" d="M506.837,22.265
		c-42.152,0.263-76.245,34.504-76.245,76.718c0,58.276,76.245,102.954,76.245,102.954s76.245-44.678,76.245-102.954
		C583.082,56.769,548.989,22.528,506.837,22.265z"/>
	<g>
		<path fill="#160404" d="M576.18,93.374c-1.596-0.719-3.361-1.128-5.225-1.128c-3.438,0-6.553,1.367-8.846,3.579v-1.76l0,0H558.2
			v21.803l0,0h3.909l0,0l0,0V104.05c0.475-4.467,4.253-7.948,8.846-7.948c1.955,0,3.757,0.638,5.225,1.707
			c0.086,0.063,0.171,0.125,0.255,0.191l2.36-3.046C577.994,94.328,577.118,93.796,576.18,93.374z"/>
		<path fill="#160404" d="M541.385,92.246c-7.045,0-12.755,5.711-12.755,12.755c0,7.044,5.71,12.755,12.755,12.755
			s12.755-5.711,12.755-12.755C554.14,97.956,548.429,92.246,541.385,92.246z M541.385,113.899c-4.915,0-8.898-3.984-8.898-8.898
			c0-4.915,3.984-8.898,8.898-8.898c4.217,0,7.741,2.937,8.659,6.874h-12.768v3.909h12.804
			C549.214,110.894,545.652,113.899,541.385,113.899z"/>
		<polygon fill="#160404" points="527.326,92.911 521.618,92.911 521.618,85.915 517.709,85.915 517.709,92.911 509.706,92.911 
			509.706,85.915 505.798,85.915 505.798,92.911 500.09,92.911 500.09,96.82 505.798,96.82 505.798,115.868 509.706,115.868 
			509.706,96.82 517.709,96.82 517.709,115.868 521.618,115.868 521.618,96.82 527.326,96.82 		"/>
		<path fill="#160404" d="M498.352,105.001c0-7.045-5.711-12.755-12.755-12.755s-12.755,5.711-12.755,12.755
			c0,7.044,5.71,12.755,12.755,12.755c3.47,0,6.612-1.39,8.912-3.639v1.75h3.844L498.352,105.001L498.352,105.001z M485.597,113.899
			c-4.915,0-8.898-3.984-8.898-8.898c0-4.915,3.984-8.898,8.898-8.898s8.899,3.984,8.899,8.898
			C494.496,109.915,490.511,113.899,485.597,113.899z"/>
		<path fill="#160404" d="M456.574,92.246c-3.463,0-6.6,1.385-8.898,3.626v-9.957h-3.857v19.143h0.003
			c0.031,7.018,5.727,12.699,12.752,12.699c7.045,0,12.755-5.711,12.755-12.755C469.329,97.956,463.618,92.246,456.574,92.246z
			 M456.574,113.899c-4.915,0-8.898-3.984-8.898-8.898c0-4.915,3.984-8.898,8.898-8.898s8.899,3.984,8.899,8.898
			C465.473,109.915,461.488,113.899,456.574,113.899z"/>
	</g>
	<path fill="#FFFFFF" stroke="#000000" stroke-width="1.1971" stroke-miterlimit="10" d="M602.028,36.649
		c-1.276-7.744-7.982-13.657-16.087-13.657h-53.113c-8.095,0-14.795,5.898-16.083,13.627l0,0v11.728l0,0
		c1.288,7.729,7.988,13.627,16.083,13.627h53.113c8.105,0,14.812-5.913,16.087-13.657c1.38-0.173,2.453-1.338,2.453-2.765v-6.139
		C604.48,37.987,603.408,36.822,602.028,36.649z"/>
	<path fill="#E86B6B" d="M522.628,42.968v-0.969c0-6.729,5.455-12.185,12.185-12.185h49.143c6.729,0,12.185,5.455,12.185,12.185
		v0.969c0,6.729-5.455,12.185-12.185,12.185h-49.143C528.083,55.153,522.628,49.697,522.628,42.968z"/>
	<g>
		<rect x="536.79" y="29.002" fill="#FFFFFF" width="60.635" height="26.962"/>
	</g>
</g>
<g>
	<path opacity="0.4" fill="#FF4A4A" d="M842.06,0.152c-16.586,0.103-30,13.576-30,30.186c0,22.93,30,40.509,30,40.509
		s30-17.579,30-40.509C872.06,13.729,858.646,0.256,842.06,0.152z"/>
	<path fill="#FF4A4A" stroke="#FFFFFF" stroke-width="1.5555" stroke-miterlimit="10" d="M842.06,6.319
		c-13.692,0.085-24.766,11.208-24.766,24.92c0,18.93,24.766,33.442,24.766,33.442s24.766-14.513,24.766-33.442
		C866.827,17.527,855.753,6.404,842.06,6.319z"/>
	<path fill="#FFFFFF" d="M834.322,24.371c0,0,0.994,2.684-3.479,9.543c-4.473,6.859,0.596,17.197,10.139,16.998
		c0,0-0.181-0.924,0-3.113s0.49-3.817,0.49-3.817s0.309,3.228,1.01,4.631s1.347,2.077,1.347,2.077s3.309-0.08,5.546-1.82
		c2.237-1.74,4.821-4.423,4.92-8.549s-2.089-8.088-2.37-10.165s-0.365-3.48-0.365-3.48s-1.628,1.712-1.909,4.435
		c-0.281,2.722-0.196,5.698-2.133,7.859c0,0,1.151-2.975,0.954-5.894c-0.196-2.919-1.067-6.09-2.638-8.392
		c-1.572-2.301-1.909-5.641-1.768-7.185c0.14-1.544,0.449-2.638,0.449-2.638s-3.677,1.628-5.024,4.743
		c-1.347,3.115-1.207,5.782-1.151,7.157c0.056,1.375,0,4.199-0.533,6.127c0,0-0.758-3.517-1.74-5.622
		C835.085,25.16,834.322,24.371,834.322,24.371z"/>
</g>
</svg>
