<?xml version="1.0" encoding="utf-8"?>
<!-- Generator: Adobe Illustrator 29.1.0, SVG Export Plug-In . SVG Version: 9.03 Build 55587)  -->
<svg version="1.1" id="레이어_1" xmlns="http://www.w3.org/2000/svg" xmlns:xlink="http://www.w3.org/1999/xlink" x="0px"
	 y="0px" width="47px" height="53.8px" viewBox="0 0 47 53.8" enable-background="new 0 0 47 53.8" xml:space="preserve">
<g>
	<g>
		<path opacity="0.25" fill="#00C17B" d="M179.3,1C163.1,1.1,150,14.3,150,30.5c0,22.4,29.3,39.5,29.3,39.5s29.3-17.2,29.3-39.5
			C208.5,14.3,195.4,1.1,179.3,1z"/>
		<path fill="#FFFFFF" stroke="#00C17B" stroke-width="1.5178" stroke-miterlimit="10" d="M179.3,7c-13.4,0.1-24.2,10.9-24.2,24.3
			c0,18.5,24.2,32.6,24.2,32.6s24.2-14.2,24.2-32.6C203.4,18,192.6,7.1,179.3,7z"/>
		<g>
			<path fill="#031106" d="M200.5,29.6c-0.5-0.2-1.1-0.4-1.7-0.4c-1.1,0-2.1,0.4-2.8,1.1v-0.6l0,0h-1.2v6.9l0,0h1.2l0,0l0,0v-3.7
				c0.2-1.4,1.3-2.5,2.8-2.5c0.6,0,1.2,0.2,1.7,0.5c0,0,0.1,0,0.1,0.1l0.7-1C201,29.9,200.8,29.7,200.5,29.6z"/>
			<path fill="#031106" d="M189.4,29.2c-2.2,0-4,1.8-4,4c0,2.2,1.8,4,4,4c2.2,0,4-1.8,4-4C193.5,31,191.7,29.2,189.4,29.2z
				 M189.4,36.1c-1.6,0-2.8-1.3-2.8-2.8c0-1.6,1.3-2.8,2.8-2.8c1.3,0,2.5,0.9,2.7,2.2h-4v1.2h4.1C191.9,35.1,190.8,36.1,189.4,36.1z
				"/>
			<polygon fill="#031106" points="185,29.4 183.2,29.4 183.2,27.2 181.9,27.2 181.9,29.4 179.4,29.4 179.4,27.2 178.2,27.2 
				178.2,29.4 176.4,29.4 176.4,30.7 178.2,30.7 178.2,36.7 179.4,36.7 179.4,30.7 181.9,30.7 181.9,36.7 183.2,36.7 183.2,30.7 
				185,30.7 			"/>
			<path fill="#031106" d="M175.8,33.2c0-2.2-1.8-4-4-4c-2.2,0-4,1.8-4,4c0,2.2,1.8,4,4,4c1.1,0,2.1-0.4,2.8-1.2v0.6h1.2L175.8,33.2
				L175.8,33.2z M171.8,36.1c-1.6,0-2.8-1.3-2.8-2.8c0-1.6,1.3-2.8,2.8-2.8s2.8,1.3,2.8,2.8C174.6,34.8,173.3,36.1,171.8,36.1z"/>
			<path fill="#031106" d="M162.6,29.2c-1.1,0-2.1,0.4-2.8,1.1v-3.2h-1.2v6.1h0c0,2.2,1.8,4,4,4c2.2,0,4-1.8,4-4
				C166.6,31,164.8,29.2,162.6,29.2z M162.6,36.1c-1.6,0-2.8-1.3-2.8-2.8c0-1.6,1.3-2.8,2.8-2.8s2.8,1.3,2.8,2.8
				C165.4,34.8,164.1,36.1,162.6,36.1z"/>
		</g>
	</g>
	<path fill="#FFFFFF" stroke="#000000" stroke-width="0.3795" stroke-miterlimit="10" d="M209.2,11.6c-0.4-2.5-2.5-4.3-5.1-4.3
		h-16.8c-2.6,0-4.7,1.9-5.1,4.3l0,0v3.7l0,0c0.4,2.4,2.5,4.3,5.1,4.3h16.8c2.6,0,4.7-1.9,5.1-4.3c0.4-0.1,0.8-0.4,0.8-0.9v-1.9
		C210,12,209.6,11.6,209.2,11.6z"/>
	<path fill="#00C17B" d="M184,13.6v-0.3c0-2.1,1.7-3.9,3.9-3.9h15.6c2.1,0,3.9,1.7,3.9,3.9v0.3c0,2.1-1.7,3.9-3.9,3.9h-15.6
		C185.8,17.4,184,15.7,184,13.6z"/>
</g>
<g>
	<path opacity="0.25" fill="#E2D827" d="M246.1,1c-16.2,0.1-29.3,13.2-29.3,29.5c0,22.4,29.3,39.5,29.3,39.5s29.3-17.2,29.3-39.5
		C275.4,14.3,262.3,1.1,246.1,1z"/>
	<path fill="#FFFFFF" stroke="#E2D827" stroke-width="1.5178" stroke-miterlimit="10" d="M246.1,7c-13.4,0.1-24.2,10.9-24.2,24.3
		c0,18.5,24.2,32.6,24.2,32.6s24.2-14.2,24.2-32.6C270.3,18,259.5,7.1,246.1,7z"/>
	<g>
		<path fill="#141204" d="M267.3,29.6c-0.5-0.2-1.1-0.4-1.7-0.4c-1.1,0-2.1,0.4-2.8,1.1v-0.6l0,0h-1.2v6.9l0,0h1.2l0,0l0,0v-3.7
			c0.2-1.4,1.3-2.5,2.8-2.5c0.6,0,1.2,0.2,1.7,0.5c0,0,0.1,0,0.1,0.1l0.7-1C267.9,29.9,267.6,29.7,267.3,29.6z"/>
		<path fill="#141204" d="M256.3,29.2c-2.2,0-4,1.8-4,4c0,2.2,1.8,4,4,4s4-1.8,4-4C260.3,31,258.5,29.2,256.3,29.2z M256.3,36.1
			c-1.6,0-2.8-1.3-2.8-2.8c0-1.6,1.3-2.8,2.8-2.8c1.3,0,2.5,0.9,2.7,2.2h-4v1.2h4.1C258.8,35.1,257.7,36.1,256.3,36.1z"/>
		<polygon fill="#141204" points="251.8,29.4 250,29.4 250,27.2 248.8,27.2 248.8,29.4 246.3,29.4 246.3,27.2 245,27.2 245,29.4 
			243.2,29.4 243.2,30.7 245,30.7 245,36.7 246.3,36.7 246.3,30.7 248.8,30.7 248.8,36.7 250,36.7 250,30.7 251.8,30.7 		"/>
		<path fill="#141204" d="M242.7,33.2c0-2.2-1.8-4-4-4c-2.2,0-4,1.8-4,4c0,2.2,1.8,4,4,4c1.1,0,2.1-0.4,2.8-1.2v0.6h1.2L242.7,33.2
			L242.7,33.2z M238.6,36.1c-1.6,0-2.8-1.3-2.8-2.8c0-1.6,1.3-2.8,2.8-2.8c1.6,0,2.8,1.3,2.8,2.8C241.4,34.8,240.2,36.1,238.6,36.1z
			"/>
		<path fill="#141204" d="M229.4,29.2c-1.1,0-2.1,0.4-2.8,1.1v-3.2h-1.2v6.1h0c0,2.2,1.8,4,4,4c2.2,0,4-1.8,4-4
			C233.5,31,231.7,29.2,229.4,29.2z M229.4,36.1c-1.6,0-2.8-1.3-2.8-2.8c0-1.6,1.3-2.8,2.8-2.8s2.8,1.3,2.8,2.8
			C232.2,34.8,231,36.1,229.4,36.1z"/>
	</g>
	<path fill="#FFFFFF" stroke="#000000" stroke-width="0.3795" stroke-miterlimit="10" d="M276.1,11.6c-0.4-2.5-2.5-4.3-5.1-4.3
		h-16.8c-2.6,0-4.7,1.9-5.1,4.3l0,0v3.7l0,0c0.4,2.4,2.5,4.3,5.1,4.3H271c2.6,0,4.7-1.9,5.1-4.3c0.4-0.1,0.8-0.4,0.8-0.9v-1.9
		C276.8,12,276.5,11.6,276.1,11.6z"/>
	<path fill="#E2D827" d="M250.9,13.6v-0.3c0-2.1,1.7-3.9,3.9-3.9h15.6c2.1,0,3.9,1.7,3.9,3.9v0.3c0,2.1-1.7,3.9-3.9,3.9h-15.6
		C252.6,17.4,250.9,15.7,250.9,13.6z"/>
	<g>
		<rect x="262.9" y="9.2" fill="#FFFFFF" width="11.7" height="8.5"/>
	</g>
</g>
<g>
	<path opacity="0.25" fill="#E86B6B" d="M312.9,1.1c-16.1,0.1-29.2,13.2-29.2,29.3c0,22.3,29.2,39.4,29.2,39.4S342,52.8,342,30.5
		C342,14.3,329,1.2,312.9,1.1z"/>
	<path fill="#FFFFFF" stroke="#E86B6B" stroke-width="1.5122" stroke-miterlimit="10" d="M312.9,7.1c-13.3,0.1-24.1,10.9-24.1,24.2
		c0,18.4,24.1,32.5,24.1,32.5s24.1-14.1,24.1-32.5C336.9,18,326.2,7.2,312.9,7.1z"/>
	<g>
		<path fill="#160404" d="M334.8,29.6c-0.5-0.2-1.1-0.4-1.7-0.4c-1.1,0-2.1,0.4-2.8,1.1v-0.6l0,0h-1.2v6.9l0,0h1.2l0,0l0,0V33
			c0.2-1.4,1.3-2.5,2.8-2.5c0.6,0,1.2,0.2,1.7,0.5c0,0,0.1,0,0.1,0.1l0.7-1C335.3,29.9,335.1,29.7,334.8,29.6z"/>
		<path fill="#160404" d="M323.8,29.2c-2.2,0-4,1.8-4,4c0,2.2,1.8,4,4,4c2.2,0,4-1.8,4-4C327.8,31,326,29.2,323.8,29.2z M323.8,36.1
			c-1.6,0-2.8-1.3-2.8-2.8c0-1.6,1.3-2.8,2.8-2.8c1.3,0,2.4,0.9,2.7,2.2h-4v1.2h4C326.2,35.1,325.1,36.1,323.8,36.1z"/>
		<polygon fill="#160404" points="319.3,29.4 317.5,29.4 317.5,27.2 316.3,27.2 316.3,29.4 313.8,29.4 313.8,27.2 312.5,27.2 
			312.5,29.4 310.7,29.4 310.7,30.7 312.5,30.7 312.5,36.7 313.8,36.7 313.8,30.7 316.3,30.7 316.3,36.7 317.5,36.7 317.5,30.7 
			319.3,30.7 		"/>
		<path fill="#160404" d="M310.2,33.3c0-2.2-1.8-4-4-4c-2.2,0-4,1.8-4,4c0,2.2,1.8,4,4,4c1.1,0,2.1-0.4,2.8-1.1v0.6h1.2L310.2,33.3
			L310.2,33.3z M306.2,36.1c-1.6,0-2.8-1.3-2.8-2.8c0-1.6,1.3-2.8,2.8-2.8c1.6,0,2.8,1.3,2.8,2.8C309,34.8,307.7,36.1,306.2,36.1z"
			/>
		<path fill="#160404" d="M297,29.2c-1.1,0-2.1,0.4-2.8,1.1v-3.1H293v6h0c0,2.2,1.8,4,4,4c2.2,0,4-1.8,4-4
			C301,31,299.2,29.2,297,29.2z M297,36.1c-1.6,0-2.8-1.3-2.8-2.8c0-1.6,1.3-2.8,2.8-2.8c1.6,0,2.8,1.3,2.8,2.8
			C299.8,34.8,298.5,36.1,297,36.1z"/>
	</g>
	<path fill="#FFFFFF" stroke="#000000" stroke-width="0.378" stroke-miterlimit="10" d="M342.9,11.7c-0.4-2.4-2.5-4.3-5.1-4.3h-16.8
		c-2.6,0-4.7,1.9-5.1,4.3l0,0v3.7l0,0c0.4,2.4,2.5,4.3,5.1,4.3h16.8c2.6,0,4.7-1.9,5.1-4.3c0.4-0.1,0.8-0.4,0.8-0.9v-1.9
		C343.7,12.1,343.4,11.7,342.9,11.7z"/>
	<path fill="#E86B6B" d="M317.8,13.7v-0.3c0-2.1,1.7-3.8,3.8-3.8h15.5c2.1,0,3.8,1.7,3.8,3.8v0.3c0,2.1-1.7,3.8-3.8,3.8h-15.5
		C319.6,17.5,317.8,15.8,317.8,13.7z"/>
	<g>
		<rect x="322.3" y="9.3" fill="#FFFFFF" width="19.1" height="8.5"/>
	</g>
</g>
<g>
	<path opacity="0.25" fill="#FFFFFF" d="M23,1C10.8,1.1,1,10.9,1,23.1c0,16.8,22,29.6,22,29.6s22-12.9,22-29.6
		C44.9,10.9,35.1,1.1,23,1z"/>
	<path fill="#00C17B" stroke="#FFFFFF" stroke-width="1.1384" stroke-miterlimit="10" d="M23,5.5C13,5.6,4.9,13.7,4.9,23.8
		C4.9,37.6,23,48.2,23,48.2s18.1-10.6,18.1-24.5C41.1,13.7,33,5.6,23,5.5z"/>
	<g>
		<path fill="#031106" d="M38.9,22.4c-0.4-0.2-0.8-0.3-1.2-0.3c-0.8,0-1.6,0.3-2.1,0.9v-0.4l0,0h-0.9v5.2l0,0h0.9l0,0l0,0V25
			c0.1-1.1,1-1.9,2.1-1.9c0.5,0,0.9,0.2,1.2,0.4c0,0,0,0,0.1,0l0.6-0.7C39.3,22.7,39.1,22.5,38.9,22.4z"/>
		<path fill="#031106" d="M30.6,22.2c-1.7,0-3,1.4-3,3c0,1.7,1.4,3,3,3s3-1.4,3-3C33.7,23.5,32.3,22.2,30.6,22.2z M30.6,27.3
			c-1.2,0-2.1-0.9-2.1-2.1c0-1.2,0.9-2.1,2.1-2.1c1,0,1.8,0.7,2.1,1.6h-3v0.9h3C32.5,26.6,31.6,27.3,30.6,27.3z"/>
		<polygon fill="#031106" points="27.3,22.3 25.9,22.3 25.9,20.7 25,20.7 25,22.3 23.1,22.3 23.1,20.7 22.2,20.7 22.2,22.3 
			20.8,22.3 20.8,23.2 22.2,23.2 22.2,27.8 23.1,27.8 23.1,23.2 25,23.2 25,27.8 25.9,27.8 25.9,23.2 27.3,23.2 		"/>
		<path fill="#031106" d="M20.4,25.2c0-1.7-1.4-3-3-3s-3,1.4-3,3c0,1.7,1.4,3,3,3c0.8,0,1.6-0.3,2.1-0.9v0.4h0.9L20.4,25.2
			L20.4,25.2z M17.4,27.3c-1.2,0-2.1-0.9-2.1-2.1c0-1.2,0.9-2.1,2.1-2.1s2.1,0.9,2.1,2.1C19.5,26.4,18.5,27.3,17.4,27.3z"/>
		<path fill="#031106" d="M10.5,22.2c-0.8,0-1.6,0.3-2.1,0.9v-2.4H7.4v4.6h0c0,1.7,1.4,3,3,3c1.7,0,3-1.4,3-3
			C13.5,23.5,12.1,22.2,10.5,22.2z M10.5,27.3c-1.2,0-2.1-0.9-2.1-2.1c0-1.2,0.9-2.1,2.1-2.1s2.1,0.9,2.1,2.1
			C12.6,26.4,11.6,27.3,10.5,27.3z"/>
	</g>
	<path fill="#FFFFFF" stroke="#000000" stroke-width="0.2846" stroke-miterlimit="10" d="M45.4,8.9c-0.3-1.8-1.9-3.2-3.8-3.2H29
		c-1.9,0-3.5,1.4-3.8,3.2l0,0v2.8l0,0c0.3,1.8,1.9,3.2,3.8,3.2h12.6c1.9,0,3.5-1.4,3.8-3.2c0.3,0,0.6-0.3,0.6-0.7V9.6
		C46,9.3,45.8,9,45.4,8.9z"/>
	<path fill="#00C17B" d="M26.6,10.4v-0.2c0-1.6,1.3-2.9,2.9-2.9h11.7c1.6,0,2.9,1.3,2.9,2.9v0.2c0,1.6-1.3,2.9-2.9,2.9H29.5
		C27.9,13.3,26.6,12,26.6,10.4z"/>
</g>
<g>
	<g opacity="0.25">
		<path fill="#FFFFFF" d="M72.3,1c-12.1,0.1-22,9.9-22,22.1c0,16.8,22,29.6,22,29.6s22-12.9,22-29.6C94.3,10.9,84.4,1.1,72.3,1z"/>
	</g>
	<path fill="#E2D827" stroke="#FFFFFF" stroke-width="1.1384" stroke-miterlimit="10" d="M72.3,5.5c-10,0.1-18.1,8.2-18.1,18.2
		c0,13.9,18.1,24.5,18.1,24.5s18.1-10.6,18.1-24.5C90.4,13.7,82.3,5.6,72.3,5.5z"/>
	<g>
		<path fill="#141204" d="M88.2,22.4c-0.4-0.2-0.8-0.3-1.2-0.3c-0.8,0-1.6,0.3-2.1,0.9v-0.4l0,0h-0.9v5.2l0,0h0.9l0,0l0,0V25
			c0.1-1.1,1-1.9,2.1-1.9c0.5,0,0.9,0.2,1.2,0.4c0,0,0,0,0.1,0l0.6-0.7C88.6,22.7,88.4,22.5,88.2,22.4z"/>
		<path fill="#141204" d="M79.9,22.2c-1.7,0-3,1.4-3,3c0,1.7,1.4,3,3,3s3-1.4,3-3C83,23.5,81.6,22.2,79.9,22.2z M79.9,27.3
			c-1.2,0-2.1-0.9-2.1-2.1c0-1.2,0.9-2.1,2.1-2.1c1,0,1.8,0.7,2.1,1.6h-3v0.9h3C81.8,26.6,81,27.3,79.9,27.3z"/>
		<polygon fill="#141204" points="76.6,22.3 75.2,22.3 75.2,20.7 74.3,20.7 74.3,22.3 72.4,22.3 72.4,20.7 71.5,20.7 71.5,22.3 
			70.1,22.3 70.1,23.2 71.5,23.2 71.5,27.8 72.4,27.8 72.4,23.2 74.3,23.2 74.3,27.8 75.2,27.8 75.2,23.2 76.6,23.2 		"/>
		<path fill="#141204" d="M69.7,25.2c0-1.7-1.4-3-3-3s-3,1.4-3,3c0,1.7,1.4,3,3,3c0.8,0,1.6-0.3,2.1-0.9v0.4h0.9L69.7,25.2
			L69.7,25.2z M66.7,27.3c-1.2,0-2.1-0.9-2.1-2.1c0-1.2,0.9-2.1,2.1-2.1s2.1,0.9,2.1,2.1C68.8,26.4,67.8,27.3,66.7,27.3z"/>
		<path fill="#141204" d="M59.8,22.2c-0.8,0-1.6,0.3-2.1,0.9v-2.4h-0.9v4.6h0c0,1.7,1.4,3,3,3c1.7,0,3-1.4,3-3
			C62.8,23.5,61.5,22.2,59.8,22.2z M59.8,27.3c-1.2,0-2.1-0.9-2.1-2.1c0-1.2,0.9-2.1,2.1-2.1c1.2,0,2.1,0.9,2.1,2.1
			C61.9,26.4,60.9,27.3,59.8,27.3z"/>
	</g>
	<path fill="#FFFFFF" stroke="#000000" stroke-width="0.2846" stroke-miterlimit="10" d="M94.8,8.9c-0.3-1.8-1.9-3.2-3.8-3.2H78.3
		c-1.9,0-3.5,1.4-3.8,3.2l0,0v2.8l0,0c0.3,1.8,1.9,3.2,3.8,3.2h12.6c1.9,0,3.5-1.4,3.8-3.2c0.3,0,0.6-0.3,0.6-0.7V9.6
		C95.3,9.3,95.1,9,94.8,8.9z"/>
	<path fill="#E2D827" d="M75.9,10.4v-0.2c0-1.6,1.3-2.9,2.9-2.9h11.7c1.6,0,2.9,1.3,2.9,2.9v0.2c0,1.6-1.3,2.9-2.9,2.9H78.8
		C77.2,13.3,75.9,12,75.9,10.4z"/>
	<g>
		<rect x="84.9" y="7.1" fill="#FFFFFF" width="8.8" height="6.4"/>
	</g>
</g>
<g>
	<path opacity="0.25" fill="#FFFFFF" d="M121.5,1.1c-12.1,0.1-21.9,9.9-21.9,22c0,16.7,21.9,29.5,21.9,29.5s21.9-12.8,21.9-29.5
		C143.4,11,133.6,1.2,121.5,1.1z"/>
	<path fill="#E86B6B" stroke="#FFFFFF" stroke-width="1.1341" stroke-miterlimit="10" d="M121.5,5.6c-10,0.1-18.1,8.2-18.1,18.2
		c0,13.8,18.1,24.4,18.1,24.4s18.1-10.6,18.1-24.4C139.6,13.8,131.5,5.7,121.5,5.6z"/>
	<g>
		<path fill="#160404" d="M138,22.4c-0.4-0.2-0.8-0.3-1.2-0.3c-0.8,0-1.6,0.3-2.1,0.8v-0.4l0,0h-0.9v5.2l0,0h0.9l0,0l0,0V25
			c0.1-1.1,1-1.9,2.1-1.9c0.5,0,0.9,0.2,1.2,0.4c0,0,0,0,0.1,0l0.6-0.7C138.4,22.7,138.2,22.5,138,22.4z"/>
		<path fill="#160404" d="M129.7,22.2c-1.7,0-3,1.4-3,3c0,1.7,1.4,3,3,3s3-1.4,3-3C132.7,23.5,131.4,22.2,129.7,22.2z M129.7,27.3
			c-1.2,0-2.1-0.9-2.1-2.1c0-1.2,0.9-2.1,2.1-2.1c1,0,1.8,0.7,2.1,1.6h-3v0.9h3C131.6,26.6,130.7,27.3,129.7,27.3z"/>
		<polygon fill="#160404" points="126.4,22.3 125,22.3 125,20.7 124.1,20.7 124.1,22.3 122.2,22.3 122.2,20.7 121.3,20.7 
			121.3,22.3 119.9,22.3 119.9,23.3 121.3,23.3 121.3,27.8 122.2,27.8 122.2,23.3 124.1,23.3 124.1,27.8 125,27.8 125,23.3 
			126.4,23.3 		"/>
		<path fill="#160404" d="M119.5,25.2c0-1.7-1.4-3-3-3c-1.7,0-3,1.4-3,3c0,1.7,1.4,3,3,3c0.8,0,1.6-0.3,2.1-0.9v0.4h0.9L119.5,25.2
			L119.5,25.2z M116.5,27.3c-1.2,0-2.1-0.9-2.1-2.1c0-1.2,0.9-2.1,2.1-2.1s2.1,0.9,2.1,2.1C118.6,26.4,117.7,27.3,116.5,27.3z"/>
		<path fill="#160404" d="M109.6,22.2c-0.8,0-1.6,0.3-2.1,0.9v-2.4h-0.9v4.5h0c0,1.7,1.4,3,3,3c1.7,0,3-1.4,3-3
			C112.7,23.5,111.3,22.2,109.6,22.2z M109.6,27.3c-1.2,0-2.1-0.9-2.1-2.1c0-1.2,0.9-2.1,2.1-2.1s2.1,0.9,2.1,2.1
			C111.7,26.4,110.8,27.3,109.6,27.3z"/>
	</g>
	<path fill="#FFFFFF" stroke="#000000" stroke-width="0.2835" stroke-miterlimit="10" d="M144.1,9c-0.3-1.8-1.9-3.2-3.8-3.2h-12.6
		c-1.9,0-3.5,1.4-3.8,3.2l0,0v2.8l0,0c0.3,1.8,1.9,3.2,3.8,3.2h12.6c1.9,0,3.5-1.4,3.8-3.2c0.3,0,0.6-0.3,0.6-0.7V9.7
		C144.7,9.3,144.4,9,144.1,9z"/>
	<path fill="#E86B6B" d="M125.3,10.5v-0.2c0-1.6,1.3-2.9,2.9-2.9h11.6c1.6,0,2.9,1.3,2.9,2.9v0.2c0,1.6-1.3,2.9-2.9,2.9h-11.6
		C126.6,13.4,125.3,12.1,125.3,10.5z"/>
	<g>
		<rect x="128.6" y="7.2" fill="#FFFFFF" width="14.4" height="6.4"/>
	</g>
</g>
<g>
	<path opacity="0.4" fill="#FF4A4A" d="M380.2,0.2c-16.6,0.1-30,13.6-30,30.2c0,22.9,30,40.5,30,40.5s30-17.6,30-40.5
		C410.2,13.7,396.7,0.3,380.2,0.2z"/>
	<path fill="#FF4A4A" stroke="#FFFFFF" stroke-width="1.5555" stroke-miterlimit="10" d="M380.2,6.3c-13.7,0.1-24.8,11.2-24.8,24.9
		c0,18.9,24.8,33.4,24.8,33.4s24.8-14.5,24.8-33.4C404.9,17.5,393.8,6.4,380.2,6.3z"/>
	<path fill="#FFFFFF" d="M372.4,24.4c0,0,1,2.7-3.5,9.5c-4.5,6.9,0.6,17.2,10.1,17c0,0-0.2-0.9,0-3.1s0.5-3.8,0.5-3.8s0.3,3.2,1,4.6
		s1.3,2.1,1.3,2.1s3.3-0.1,5.5-1.8s4.8-4.4,4.9-8.5s-2.1-8.1-2.4-10.2s-0.4-3.5-0.4-3.5s-1.6,1.7-1.9,4.4s-0.2,5.7-2.1,7.9
		c0,0,1.2-3,1-5.9c-0.2-2.9-1.1-6.1-2.6-8.4c-1.6-2.3-1.9-5.6-1.8-7.2c0.1-1.5,0.4-2.6,0.4-2.6s-3.7,1.6-5,4.7s-1.2,5.8-1.2,7.2
		c0.1,1.4,0,4.2-0.5,6.1c0,0-0.8-3.5-1.7-5.6S372.4,24.4,372.4,24.4z"/>
</g>
</svg>
