<?xml version="1.0" encoding="utf-8"?>
<!-- Generator: Adobe Illustrator 29.1.0, SVG Export Plug-In . SVG Version: 9.03 Build 55587)  -->
<svg version="1.1" id="레이어_1" xmlns="http://www.w3.org/2000/svg" xmlns:xlink="http://www.w3.org/1999/xlink" x="0px"
	 y="0px" width="64px" height="71px" viewBox="0 0 64 71" enable-background="new 0 0 64 71" xml:space="preserve">
<g>
	<g>
		<path opacity="0.25" fill="#00C17B" d="M31.3,1C15.1,1.1,2,14.3,2,30.5C2,52.8,31.3,70,31.3,70s29.3-17.2,29.3-39.5
			C60.5,14.3,47.5,1.1,31.3,1z"/>
		<path fill="#FFFFFF" stroke="#00C17B" stroke-width="1.5178" stroke-miterlimit="10" d="M31.3,7C17.9,7.1,7.1,18,7.1,31.3
			C7.1,49.8,31.3,64,31.3,64s24.2-14.2,24.2-32.6C55.4,18,44.6,7.1,31.3,7z"/>
		<g>
			<path fill="#031106" d="M52.5,29.6c-0.5-0.2-1.1-0.4-1.7-0.4c-1.1,0-2.1,0.4-2.8,1.1v-0.6l0,0h-1.2v6.9l0,0H48l0,0l0,0v-3.7
				c0.2-1.4,1.3-2.5,2.8-2.5c0.6,0,1.2,0.2,1.7,0.5c0,0,0.1,0,0.1,0.1l0.7-1C53.1,29.9,52.8,29.7,52.5,29.6z"/>
			<path fill="#031106" d="M41.5,29.2c-2.2,0-4,1.8-4,4c0,2.2,1.8,4,4,4s4-1.8,4-4C45.5,31,43.7,29.2,41.5,29.2z M41.5,36.1
				c-1.6,0-2.8-1.3-2.8-2.8c0-1.6,1.3-2.8,2.8-2.8c1.3,0,2.5,0.9,2.7,2.2h-4v1.2h4.1C43.9,35.1,42.8,36.1,41.5,36.1z"/>
			<polygon fill="#031106" points="37,29.4 35.2,29.4 35.2,27.2 34,27.2 34,29.4 31.4,29.4 31.4,27.2 30.2,27.2 30.2,29.4 
				28.4,29.4 28.4,30.7 30.2,30.7 30.2,36.7 31.4,36.7 31.4,30.7 34,30.7 34,36.7 35.2,36.7 35.2,30.7 37,30.7 			"/>
			<path fill="#031106" d="M27.8,33.2c0-2.2-1.8-4-4-4s-4,1.8-4,4c0,2.2,1.8,4,4,4c1.1,0,2.1-0.4,2.8-1.2v0.6h1.2L27.8,33.2
				L27.8,33.2z M23.8,36.1c-1.6,0-2.8-1.3-2.8-2.8c0-1.6,1.3-2.8,2.8-2.8c1.6,0,2.8,1.3,2.8,2.8C26.6,34.8,25.3,36.1,23.8,36.1z"/>
			<path fill="#031106" d="M14.6,29.2c-1.1,0-2.1,0.4-2.8,1.1v-3.2h-1.2v6.1h0c0,2.2,1.8,4,4,4c2.2,0,4-1.8,4-4
				C18.6,31,16.8,29.2,14.6,29.2z M14.6,36.1c-1.6,0-2.8-1.3-2.8-2.8c0-1.6,1.3-2.8,2.8-2.8s2.8,1.3,2.8,2.8
				C17.4,34.8,16.1,36.1,14.6,36.1z"/>
		</g>
	</g>
	<path fill="#FFFFFF" stroke="#000000" stroke-width="0.3795" stroke-miterlimit="10" d="M61.2,11.6c-0.4-2.5-2.5-4.3-5.1-4.3H39.3
		c-2.6,0-4.7,1.9-5.1,4.3l0,0v3.7l0,0c0.4,2.4,2.5,4.3,5.1,4.3h16.8c2.6,0,4.7-1.9,5.1-4.3c0.4-0.1,0.8-0.4,0.8-0.9v-1.9
		C62,12,61.7,11.6,61.2,11.6z"/>
	<path fill="#00C17B" d="M36.1,13.6v-0.3c0-2.1,1.7-3.9,3.9-3.9h15.6c2.1,0,3.9,1.7,3.9,3.9v0.3c0,2.1-1.7,3.9-3.9,3.9H39.9
		C37.8,17.4,36.1,15.7,36.1,13.6z"/>
</g>
<g>
	<path opacity="0.25" fill="#E2D827" d="M98.1,1C81.9,1.1,68.9,14.3,68.9,30.5C68.9,52.8,98.1,70,98.1,70s29.3-17.2,29.3-39.5
		C127.4,14.3,114.3,1.1,98.1,1z"/>
	<path fill="#FFFFFF" stroke="#E2D827" stroke-width="1.5178" stroke-miterlimit="10" d="M98.1,7C84.8,7.1,74,18,74,31.3
		C74,49.8,98.1,64,98.1,64s24.2-14.2,24.2-32.6C122.3,18,111.5,7.1,98.1,7z"/>
	<g>
		<path fill="#141204" d="M119.3,29.6c-0.5-0.2-1.1-0.4-1.7-0.4c-1.1,0-2.1,0.4-2.8,1.1v-0.6l0,0h-1.2v6.9l0,0h1.2l0,0l0,0v-3.7
			c0.2-1.4,1.3-2.5,2.8-2.5c0.6,0,1.2,0.2,1.7,0.5c0,0,0.1,0,0.1,0.1l0.7-1C119.9,29.9,119.6,29.7,119.3,29.6z"/>
		<path fill="#141204" d="M108.3,29.2c-2.2,0-4,1.8-4,4c0,2.2,1.8,4,4,4s4-1.8,4-4C112.4,31,110.6,29.2,108.3,29.2z M108.3,36.1
			c-1.6,0-2.8-1.3-2.8-2.8c0-1.6,1.3-2.8,2.8-2.8c1.3,0,2.5,0.9,2.7,2.2h-4v1.2h4.1C110.8,35.1,109.7,36.1,108.3,36.1z"/>
		<polygon fill="#141204" points="103.9,29.4 102.1,29.4 102.1,27.2 100.8,27.2 100.8,29.4 98.3,29.4 98.3,27.2 97,27.2 97,29.4 
			95.2,29.4 95.2,30.7 97,30.7 97,36.7 98.3,36.7 98.3,30.7 100.8,30.7 100.8,36.7 102.1,36.7 102.1,30.7 103.9,30.7 		"/>
		<path fill="#141204" d="M94.7,33.2c0-2.2-1.8-4-4-4s-4,1.8-4,4c0,2.2,1.8,4,4,4c1.1,0,2.1-0.4,2.8-1.2v0.6h1.2L94.7,33.2
			L94.7,33.2z M90.6,36.1c-1.6,0-2.8-1.3-2.8-2.8c0-1.6,1.3-2.8,2.8-2.8c1.6,0,2.8,1.3,2.8,2.8C93.5,34.8,92.2,36.1,90.6,36.1z"/>
		<path fill="#141204" d="M81.4,29.2c-1.1,0-2.1,0.4-2.8,1.1v-3.2h-1.2v6.1h0c0,2.2,1.8,4,4,4c2.2,0,4-1.8,4-4
			C85.5,31,83.7,29.2,81.4,29.2z M81.4,36.1c-1.6,0-2.8-1.3-2.8-2.8c0-1.6,1.3-2.8,2.8-2.8c1.6,0,2.8,1.3,2.8,2.8
			C84.3,34.8,83,36.1,81.4,36.1z"/>
	</g>
	<path fill="#FFFFFF" stroke="#000000" stroke-width="0.3795" stroke-miterlimit="10" d="M128.1,11.6c-0.4-2.5-2.5-4.3-5.1-4.3
		h-16.8c-2.6,0-4.7,1.9-5.1,4.3l0,0v3.7l0,0c0.4,2.4,2.5,4.3,5.1,4.3H123c2.6,0,4.7-1.9,5.1-4.3c0.4-0.1,0.8-0.4,0.8-0.9v-1.9
		C128.9,12,128.5,11.6,128.1,11.6z"/>
	<path fill="#E2D827" d="M102.9,13.6v-0.3c0-2.1,1.7-3.9,3.9-3.9h15.6c2.1,0,3.9,1.7,3.9,3.9v0.3c0,2.1-1.7,3.9-3.9,3.9h-15.6
		C104.6,17.4,102.9,15.7,102.9,13.6z"/>
	<g>
		<rect x="115" y="9.2" fill="#FFFFFF" width="11.7" height="8.5"/>
	</g>
</g>
<g>
	<path opacity="0.25" fill="#E86B6B" d="M164.9,1.1c-16.1,0.1-29.2,13.2-29.2,29.3c0,22.3,29.2,39.4,29.2,39.4S194,52.8,194,30.5
		C194,14.3,181,1.2,164.9,1.1z"/>
	<path fill="#FFFFFF" stroke="#E86B6B" stroke-width="1.5122" stroke-miterlimit="10" d="M164.9,7.1c-13.3,0.1-24.1,10.9-24.1,24.2
		c0,18.4,24.1,32.5,24.1,32.5S189,49.8,189,31.4C189,18,178.2,7.2,164.9,7.1z"/>
	<g>
		<path fill="#160404" d="M186.8,29.6c-0.5-0.2-1.1-0.4-1.7-0.4c-1.1,0-2.1,0.4-2.8,1.1v-0.6l0,0h-1.2v6.9l0,0h1.2l0,0l0,0V33
			c0.2-1.4,1.3-2.5,2.8-2.5c0.6,0,1.2,0.2,1.7,0.5c0,0,0.1,0,0.1,0.1l0.7-1C187.4,29.9,187.1,29.7,186.8,29.6z"/>
		<path fill="#160404" d="M175.8,29.2c-2.2,0-4,1.8-4,4c0,2.2,1.8,4,4,4s4-1.8,4-4C179.8,31,178,29.2,175.8,29.2z M175.8,36.1
			c-1.6,0-2.8-1.3-2.8-2.8c0-1.6,1.3-2.8,2.8-2.8c1.3,0,2.4,0.9,2.7,2.2h-4v1.2h4C178.3,35.1,177.1,36.1,175.8,36.1z"/>
		<polygon fill="#160404" points="171.3,29.4 169.5,29.4 169.5,27.2 168.3,27.2 168.3,29.4 165.8,29.4 165.8,27.2 164.6,27.2 
			164.6,29.4 162.7,29.4 162.7,30.7 164.6,30.7 164.6,36.7 165.8,36.7 165.8,30.7 168.3,30.7 168.3,36.7 169.5,36.7 169.5,30.7 
			171.3,30.7 		"/>
		<path fill="#160404" d="M162.2,33.3c0-2.2-1.8-4-4-4s-4,1.8-4,4c0,2.2,1.8,4,4,4c1.1,0,2.1-0.4,2.8-1.1v0.6h1.2L162.2,33.3
			L162.2,33.3z M158.2,36.1c-1.6,0-2.8-1.3-2.8-2.8c0-1.6,1.3-2.8,2.8-2.8c1.6,0,2.8,1.3,2.8,2.8C161,34.8,159.7,36.1,158.2,36.1z"
			/>
		<path fill="#160404" d="M149,29.2c-1.1,0-2.1,0.4-2.8,1.1v-3.1H145v6h0c0,2.2,1.8,4,4,4c2.2,0,4-1.8,4-4
			C153,31,151.2,29.2,149,29.2z M149,36.1c-1.6,0-2.8-1.3-2.8-2.8c0-1.6,1.3-2.8,2.8-2.8s2.8,1.3,2.8,2.8
			C151.8,34.8,150.6,36.1,149,36.1z"/>
	</g>
	<path fill="#FFFFFF" stroke="#000000" stroke-width="0.378" stroke-miterlimit="10" d="M194.9,11.7c-0.4-2.4-2.5-4.3-5.1-4.3h-16.8
		c-2.6,0-4.7,1.9-5.1,4.3l0,0v3.7l0,0c0.4,2.4,2.5,4.3,5.1,4.3h16.8c2.6,0,4.7-1.9,5.1-4.3c0.4-0.1,0.8-0.4,0.8-0.9v-1.9
		C195.7,12.1,195.4,11.7,194.9,11.7z"/>
	<path fill="#E86B6B" d="M169.9,13.7v-0.3c0-2.1,1.7-3.8,3.8-3.8h15.5c2.1,0,3.8,1.7,3.8,3.8v0.3c0,2.1-1.7,3.8-3.8,3.8h-15.5
		C171.6,17.5,169.9,15.8,169.9,13.7z"/>
	<g>
		<rect x="174.3" y="9.3" fill="#FFFFFF" width="19.1" height="8.5"/>
	</g>
</g>
<g>
	<path opacity="0.25" fill="#FFFFFF" d="M-125,1c-12.1,0.1-22,9.9-22,22.1c0,16.8,22,29.6,22,29.6s22-12.9,22-29.6
		C-103,10.9-112.9,1.1-125,1z"/>
	<path fill="#00C17B" stroke="#FFFFFF" stroke-width="1.1384" stroke-miterlimit="10" d="M-125,5.5c-10,0.1-18.1,8.2-18.1,18.2
		c0,13.9,18.1,24.5,18.1,24.5s18.1-10.6,18.1-24.5C-106.9,13.7-115,5.6-125,5.5z"/>
	<g>
		<path fill="#031106" d="M-109.1,22.4c-0.4-0.2-0.8-0.3-1.2-0.3c-0.8,0-1.6,0.3-2.1,0.9v-0.4l0,0h-0.9v5.2l0,0h0.9l0,0l0,0V25
			c0.1-1.1,1-1.9,2.1-1.9c0.5,0,0.9,0.2,1.2,0.4c0,0,0,0,0.1,0l0.6-0.7C-108.7,22.7-108.9,22.5-109.1,22.4z"/>
		<path fill="#031106" d="M-117.4,22.2c-1.7,0-3,1.4-3,3c0,1.7,1.4,3,3,3c1.7,0,3-1.4,3-3C-114.3,23.5-115.7,22.2-117.4,22.2z
			 M-117.4,27.3c-1.2,0-2.1-0.9-2.1-2.1c0-1.2,0.9-2.1,2.1-2.1c1,0,1.8,0.7,2.1,1.6h-3v0.9h3C-115.5,26.6-116.3,27.3-117.4,27.3z"/>
		<polygon fill="#031106" points="-120.7,22.3 -122.1,22.3 -122.1,20.7 -123,20.7 -123,22.3 -124.9,22.3 -124.9,20.7 -125.8,20.7 
			-125.8,22.3 -127.2,22.3 -127.2,23.2 -125.8,23.2 -125.8,27.8 -124.9,27.8 -124.9,23.2 -123,23.2 -123,27.8 -122.1,27.8 
			-122.1,23.2 -120.7,23.2 		"/>
		<path fill="#031106" d="M-127.6,25.2c0-1.7-1.4-3-3-3c-1.7,0-3,1.4-3,3c0,1.7,1.4,3,3,3c0.8,0,1.6-0.3,2.1-0.9v0.4h0.9
			L-127.6,25.2L-127.6,25.2z M-130.6,27.3c-1.2,0-2.1-0.9-2.1-2.1c0-1.2,0.9-2.1,2.1-2.1s2.1,0.9,2.1,2.1
			C-128.5,26.4-129.5,27.3-130.6,27.3z"/>
		<path fill="#031106" d="M-137.5,22.2c-0.8,0-1.6,0.3-2.1,0.9v-2.4h-0.9v4.6h0c0,1.7,1.4,3,3,3c1.7,0,3-1.4,3-3
			C-134.5,23.5-135.8,22.2-137.5,22.2z M-137.5,27.3c-1.2,0-2.1-0.9-2.1-2.1c0-1.2,0.9-2.1,2.1-2.1s2.1,0.9,2.1,2.1
			C-135.4,26.4-136.4,27.3-137.5,27.3z"/>
	</g>
	<path fill="#FFFFFF" stroke="#000000" stroke-width="0.2846" stroke-miterlimit="10" d="M-102.5,8.9c-0.3-1.8-1.9-3.2-3.8-3.2H-119
		c-1.9,0-3.5,1.4-3.8,3.2l0,0v2.8l0,0c0.3,1.8,1.9,3.2,3.8,3.2h12.6c1.9,0,3.5-1.4,3.8-3.2c0.3,0,0.6-0.3,0.6-0.7V9.6
		C-102,9.3-102.2,9-102.5,8.9z"/>
	<path fill="#00C17B" d="M-121.4,10.4v-0.2c0-1.6,1.3-2.9,2.9-2.9h11.7c1.6,0,2.9,1.3,2.9,2.9v0.2c0,1.6-1.3,2.9-2.9,2.9h-11.7
		C-120.1,13.3-121.4,12-121.4,10.4z"/>
</g>
<g>
	<g opacity="0.25">
		<path fill="#FFFFFF" d="M-75.7,1c-12.1,0.1-22,9.9-22,22.1c0,16.8,22,29.6,22,29.6s22-12.9,22-29.6C-53.7,10.9-63.5,1.1-75.7,1z"
			/>
	</g>
	<path fill="#E2D827" stroke="#FFFFFF" stroke-width="1.1384" stroke-miterlimit="10" d="M-75.7,5.5c-10,0.1-18.1,8.2-18.1,18.2
		c0,13.9,18.1,24.5,18.1,24.5s18.1-10.6,18.1-24.5C-57.6,13.7-65.7,5.6-75.7,5.5z"/>
	<g>
		<path fill="#141204" d="M-59.8,22.4c-0.4-0.2-0.8-0.3-1.2-0.3c-0.8,0-1.6,0.3-2.1,0.9v-0.4l0,0H-64v5.2l0,0h0.9l0,0l0,0V25
			c0.1-1.1,1-1.9,2.1-1.9c0.5,0,0.9,0.2,1.2,0.4c0,0,0,0,0.1,0l0.6-0.7C-59.3,22.7-59.5,22.5-59.8,22.4z"/>
		<path fill="#141204" d="M-68,22.2c-1.7,0-3,1.4-3,3c0,1.7,1.4,3,3,3s3-1.4,3-3C-65,23.5-66.4,22.2-68,22.2z M-68,27.3
			c-1.2,0-2.1-0.9-2.1-2.1c0-1.2,0.9-2.1,2.1-2.1c1,0,1.8,0.7,2.1,1.6h-3v0.9h3C-66.2,26.6-67,27.3-68,27.3z"/>
		<polygon fill="#141204" points="-71.4,22.3 -72.7,22.3 -72.7,20.7 -73.7,20.7 -73.7,22.3 -75.6,22.3 -75.6,20.7 -76.5,20.7 
			-76.5,22.3 -77.9,22.3 -77.9,23.2 -76.5,23.2 -76.5,27.8 -75.6,27.8 -75.6,23.2 -73.7,23.2 -73.7,27.8 -72.7,27.8 -72.7,23.2 
			-71.4,23.2 		"/>
		<path fill="#141204" d="M-78.3,25.2c0-1.7-1.4-3-3-3s-3,1.4-3,3c0,1.7,1.4,3,3,3c0.8,0,1.6-0.3,2.1-0.9v0.4h0.9L-78.3,25.2
			L-78.3,25.2z M-81.3,27.3c-1.2,0-2.1-0.9-2.1-2.1c0-1.2,0.9-2.1,2.1-2.1s2.1,0.9,2.1,2.1C-79.2,26.4-80.1,27.3-81.3,27.3z"/>
		<path fill="#141204" d="M-88.2,22.2c-0.8,0-1.6,0.3-2.1,0.9v-2.4h-0.9v4.6h0c0,1.7,1.4,3,3,3c1.7,0,3-1.4,3-3
			C-85.2,23.5-86.5,22.2-88.2,22.2z M-88.2,27.3c-1.2,0-2.1-0.9-2.1-2.1c0-1.2,0.9-2.1,2.1-2.1s2.1,0.9,2.1,2.1
			C-86.1,26.4-87,27.3-88.2,27.3z"/>
	</g>
	<path fill="#FFFFFF" stroke="#000000" stroke-width="0.2846" stroke-miterlimit="10" d="M-53.2,8.9c-0.3-1.8-1.9-3.2-3.8-3.2h-12.6
		c-1.9,0-3.5,1.4-3.8,3.2l0,0v2.8l0,0c0.3,1.8,1.9,3.2,3.8,3.2H-57c1.9,0,3.5-1.4,3.8-3.2c0.3,0,0.6-0.3,0.6-0.7V9.6
		C-52.6,9.3-52.9,9-53.2,8.9z"/>
	<path fill="#E2D827" d="M-72.1,10.4v-0.2c0-1.6,1.3-2.9,2.9-2.9h11.7c1.6,0,2.9,1.3,2.9,2.9v0.2c0,1.6-1.3,2.9-2.9,2.9h-11.7
		C-70.8,13.3-72.1,12-72.1,10.4z"/>
	<g>
		<rect x="-63.1" y="7.1" fill="#FFFFFF" width="8.8" height="6.4"/>
	</g>
</g>
<g>
	<path opacity="0.25" fill="#FFFFFF" d="M-26.4,1.1c-12.1,0.1-21.9,9.9-21.9,22c0,16.7,21.9,29.5,21.9,29.5S-4.6,39.8-4.6,23.1
		C-4.6,11-14.4,1.2-26.4,1.1z"/>
	<path fill="#E86B6B" stroke="#FFFFFF" stroke-width="1.1341" stroke-miterlimit="10" d="M-26.4,5.6c-10,0.1-18.1,8.2-18.1,18.2
		c0,13.8,18.1,24.4,18.1,24.4S-8.4,37.6-8.4,23.8C-8.4,13.8-16.5,5.7-26.4,5.6z"/>
	<g>
		<path fill="#160404" d="M-10,22.4c-0.4-0.2-0.8-0.3-1.2-0.3c-0.8,0-1.6,0.3-2.1,0.8v-0.4l0,0h-0.9v5.2l0,0h0.9l0,0l0,0V25
			c0.1-1.1,1-1.9,2.1-1.9c0.5,0,0.9,0.2,1.2,0.4c0,0,0,0,0.1,0l0.6-0.7C-9.6,22.7-9.8,22.5-10,22.4z"/>
		<path fill="#160404" d="M-18.3,22.2c-1.7,0-3,1.4-3,3c0,1.7,1.4,3,3,3s3-1.4,3-3C-15.2,23.5-16.6,22.2-18.3,22.2z M-18.3,27.3
			c-1.2,0-2.1-0.9-2.1-2.1c0-1.2,0.9-2.1,2.1-2.1c1,0,1.8,0.7,2.1,1.6h-3v0.9h3C-16.4,26.6-17.3,27.3-18.3,27.3z"/>
		<polygon fill="#160404" points="-21.6,22.3 -22.9,22.3 -22.9,20.7 -23.9,20.7 -23.9,22.3 -25.8,22.3 -25.8,20.7 -26.7,20.7 
			-26.7,22.3 -28,22.3 -28,23.3 -26.7,23.3 -26.7,27.8 -25.8,27.8 -25.8,23.3 -23.9,23.3 -23.9,27.8 -22.9,27.8 -22.9,23.3 
			-21.6,23.3 		"/>
		<path fill="#160404" d="M-28.5,25.2c0-1.7-1.4-3-3-3c-1.7,0-3,1.4-3,3c0,1.7,1.4,3,3,3c0.8,0,1.6-0.3,2.1-0.9v0.4h0.9L-28.5,25.2
			L-28.5,25.2z M-31.5,27.3c-1.2,0-2.1-0.9-2.1-2.1c0-1.2,0.9-2.1,2.1-2.1c1.2,0,2.1,0.9,2.1,2.1C-29.4,26.4-30.3,27.3-31.5,27.3z"
			/>
		<path fill="#160404" d="M-38.4,22.2c-0.8,0-1.6,0.3-2.1,0.9v-2.4h-0.9v4.5h0c0,1.7,1.4,3,3,3c1.7,0,3-1.4,3-3
			C-35.3,23.5-36.7,22.2-38.4,22.2z M-38.4,27.3c-1.2,0-2.1-0.9-2.1-2.1c0-1.2,0.9-2.1,2.1-2.1c1.2,0,2.1,0.9,2.1,2.1
			C-36.2,26.4-37.2,27.3-38.4,27.3z"/>
	</g>
	<path fill="#FFFFFF" stroke="#000000" stroke-width="0.2835" stroke-miterlimit="10" d="M-3.9,9c-0.3-1.8-1.9-3.2-3.8-3.2h-12.6
		c-1.9,0-3.5,1.4-3.8,3.2l0,0v2.8l0,0c0.3,1.8,1.9,3.2,3.8,3.2h12.6c1.9,0,3.5-1.4,3.8-3.2c0.3,0,0.6-0.3,0.6-0.7V9.7
		C-3.3,9.3-3.6,9-3.9,9z"/>
	<path fill="#E86B6B" d="M-22.7,10.5v-0.2c0-1.6,1.3-2.9,2.9-2.9h11.6c1.6,0,2.9,1.3,2.9,2.9v0.2c0,1.6-1.3,2.9-2.9,2.9h-11.6
		C-21.4,13.4-22.7,12.1-22.7,10.5z"/>
	<g>
		<rect x="-19.4" y="7.2" fill="#FFFFFF" width="14.4" height="6.4"/>
	</g>
</g>
<g>
	<path opacity="0.4" fill="#FF4A4A" d="M232.2,0.2c-16.6,0.1-30,13.6-30,30.2c0,22.9,30,40.5,30,40.5s30-17.6,30-40.5
		C262.2,13.7,248.8,0.3,232.2,0.2z"/>
	<path fill="#FF4A4A" stroke="#FFFFFF" stroke-width="1.5555" stroke-miterlimit="10" d="M232.2,6.3c-13.7,0.1-24.8,11.2-24.8,24.9
		c0,18.9,24.8,33.4,24.8,33.4s24.8-14.5,24.8-33.4C256.9,17.5,245.9,6.4,232.2,6.3z"/>
	<path fill="#FFFFFF" d="M224.4,24.4c0,0,1,2.7-3.5,9.5s0.6,17.2,10.1,17c0,0-0.2-0.9,0-3.1c0.2-2.2,0.5-3.8,0.5-3.8s0.3,3.2,1,4.6
		c0.7,1.4,1.3,2.1,1.3,2.1s3.3-0.1,5.5-1.8c2.2-1.7,4.8-4.4,4.9-8.5c0.1-4.1-2.1-8.1-2.4-10.2s-0.4-3.5-0.4-3.5s-1.6,1.7-1.9,4.4
		s-0.2,5.7-2.1,7.9c0,0,1.2-3,1-5.9c-0.2-2.9-1.1-6.1-2.6-8.4c-1.6-2.3-1.9-5.6-1.8-7.2c0.1-1.5,0.4-2.6,0.4-2.6s-3.7,1.6-5,4.7
		s-1.2,5.8-1.2,7.2c0.1,1.4,0,4.2-0.5,6.1c0,0-0.8-3.5-1.7-5.6S224.4,24.4,224.4,24.4z"/>
</g>
</svg>
