<?xml version="1.0" encoding="utf-8"?>
<!-- Generator: Adobe Illustrator 29.1.0, SVG Export Plug-In . SVG Version: 9.03 Build 55587)  -->
<svg version="1.1" id="레이어_1" xmlns="http://www.w3.org/2000/svg" xmlns:xlink="http://www.w3.org/1999/xlink" x="0px"
	 y="0px" width="64px" height="71px" viewBox="0 0 64 71" enable-background="new 0 0 64 71" xml:space="preserve">
<g>
	<g>
		<path opacity="0.25" fill="#00C17B" d="M-168.9,1c-16.2,0.1-29.3,13.2-29.3,29.5c0,22.4,29.3,39.5,29.3,39.5s29.3-17.2,29.3-39.5
			C-139.6,14.3-152.7,1.1-168.9,1z"/>
		<path fill="#FFFFFF" stroke="#00C17B" stroke-width="1.5178" stroke-miterlimit="10" d="M-168.9,7c-13.4,0.1-24.2,10.9-24.2,24.3
			c0,18.5,24.2,32.6,24.2,32.6s24.2-14.2,24.2-32.6C-144.7,18-155.5,7.1-168.9,7z"/>
		<g>
			<path fill="#031106" d="M-147.7,29.6c-0.5-0.2-1.1-0.4-1.7-0.4c-1.1,0-2.1,0.4-2.8,1.1v-0.6l0,0h-1.2v6.9l0,0h1.2l0,0l0,0v-3.7
				c0.2-1.4,1.3-2.5,2.8-2.5c0.6,0,1.2,0.2,1.7,0.5c0,0,0.1,0,0.1,0.1l0.7-1C-147.1,29.9-147.4,29.7-147.7,29.6z"/>
			<path fill="#031106" d="M-158.7,29.2c-2.2,0-4,1.8-4,4c0,2.2,1.8,4,4,4c2.2,0,4-1.8,4-4C-154.7,31-156.5,29.2-158.7,29.2z
				 M-158.7,36.1c-1.6,0-2.8-1.3-2.8-2.8c0-1.6,1.3-2.8,2.8-2.8c1.3,0,2.5,0.9,2.7,2.2h-4v1.2h4.1
				C-156.2,35.1-157.4,36.1-158.7,36.1z"/>
			<polygon fill="#031106" points="-163.2,29.4 -165,29.4 -165,27.2 -166.2,27.2 -166.2,29.4 -168.8,29.4 -168.8,27.2 -170,27.2 
				-170,29.4 -171.8,29.4 -171.8,30.7 -170,30.7 -170,36.7 -168.8,36.7 -168.8,30.7 -166.2,30.7 -166.2,36.7 -165,36.7 -165,30.7 
				-163.2,30.7 			"/>
			<path fill="#031106" d="M-172.4,33.2c0-2.2-1.8-4-4-4c-2.2,0-4,1.8-4,4c0,2.2,1.8,4,4,4c1.1,0,2.1-0.4,2.8-1.2v0.6h1.2
				L-172.4,33.2L-172.4,33.2z M-176.4,36.1c-1.6,0-2.8-1.3-2.8-2.8c0-1.6,1.3-2.8,2.8-2.8c1.6,0,2.8,1.3,2.8,2.8
				C-173.6,34.8-174.8,36.1-176.4,36.1z"/>
			<path fill="#031106" d="M-185.6,29.2c-1.1,0-2.1,0.4-2.8,1.1v-3.2h-1.2v6.1h0c0,2.2,1.8,4,4,4c2.2,0,4-1.8,4-4
				C-181.6,31-183.4,29.2-185.6,29.2z M-185.6,36.1c-1.6,0-2.8-1.3-2.8-2.8c0-1.6,1.3-2.8,2.8-2.8s2.8,1.3,2.8,2.8
				C-182.8,34.8-184,36.1-185.6,36.1z"/>
		</g>
	</g>
	<path fill="#FFFFFF" stroke="#000000" stroke-width="0.3795" stroke-miterlimit="10" d="M-139,11.6c-0.4-2.5-2.5-4.3-5.1-4.3h-16.8
		c-2.6,0-4.7,1.9-5.1,4.3l0,0v3.7l0,0c0.4,2.4,2.5,4.3,5.1,4.3h16.8c2.6,0,4.7-1.9,5.1-4.3c0.4-0.1,0.8-0.4,0.8-0.9v-1.9
		C-138.2,12-138.5,11.6-139,11.6z"/>
	<path fill="#00C17B" d="M-164.1,13.6v-0.3c0-2.1,1.7-3.9,3.9-3.9h15.6c2.1,0,3.9,1.7,3.9,3.9v0.3c0,2.1-1.7,3.9-3.9,3.9h-15.6
		C-162.4,17.4-164.1,15.7-164.1,13.6z"/>
</g>
<g>
	<path opacity="0.25" fill="#E2D827" d="M-102,1c-16.2,0.1-29.3,13.2-29.3,29.5C-131.3,52.8-102,70-102,70s29.3-17.2,29.3-39.5
		C-72.8,14.3-85.9,1.1-102,1z"/>
	<path fill="#FFFFFF" stroke="#E2D827" stroke-width="1.5178" stroke-miterlimit="10" d="M-102,7c-13.4,0.1-24.2,10.9-24.2,24.3
		C-126.2,49.8-102,64-102,64s24.2-14.2,24.2-32.6C-77.9,18-88.7,7.1-102,7z"/>
	<g>
		<path fill="#141204" d="M-80.8,29.6c-0.5-0.2-1.1-0.4-1.7-0.4c-1.1,0-2.1,0.4-2.8,1.1v-0.6l0,0h-1.2v6.9l0,0h1.2l0,0l0,0v-3.7
			c0.2-1.4,1.3-2.5,2.8-2.5c0.6,0,1.2,0.2,1.7,0.5c0,0,0.1,0,0.1,0.1l0.7-1C-80.3,29.9-80.5,29.7-80.8,29.6z"/>
		<path fill="#141204" d="M-91.9,29.2c-2.2,0-4,1.8-4,4c0,2.2,1.8,4,4,4s4-1.8,4-4C-87.8,31-89.6,29.2-91.9,29.2z M-91.9,36.1
			c-1.6,0-2.8-1.3-2.8-2.8c0-1.6,1.3-2.8,2.8-2.8c1.3,0,2.5,0.9,2.7,2.2h-4v1.2h4.1C-89.4,35.1-90.5,36.1-91.9,36.1z"/>
		<polygon fill="#141204" points="-96.3,29.4 -98.1,29.4 -98.1,27.2 -99.4,27.2 -99.4,29.4 -101.9,29.4 -101.9,27.2 -103.1,27.2 
			-103.1,29.4 -104.9,29.4 -104.9,30.7 -103.1,30.7 -103.1,36.7 -101.9,36.7 -101.9,30.7 -99.4,30.7 -99.4,36.7 -98.1,36.7 
			-98.1,30.7 -96.3,30.7 		"/>
		<path fill="#141204" d="M-105.5,33.2c0-2.2-1.8-4-4-4s-4,1.8-4,4c0,2.2,1.8,4,4,4c1.1,0,2.1-0.4,2.8-1.2v0.6h1.2L-105.5,33.2
			L-105.5,33.2z M-109.5,36.1c-1.6,0-2.8-1.3-2.8-2.8c0-1.6,1.3-2.8,2.8-2.8c1.6,0,2.8,1.3,2.8,2.8C-106.7,34.8-108,36.1-109.5,36.1
			z"/>
		<path fill="#141204" d="M-118.7,29.2c-1.1,0-2.1,0.4-2.8,1.1v-3.2h-1.2v6.1h0c0,2.2,1.8,4,4,4c2.2,0,4-1.8,4-4
			C-114.7,31-116.5,29.2-118.7,29.2z M-118.7,36.1c-1.6,0-2.8-1.3-2.8-2.8c0-1.6,1.3-2.8,2.8-2.8c1.6,0,2.8,1.3,2.8,2.8
			C-115.9,34.8-117.2,36.1-118.7,36.1z"/>
	</g>
	<path fill="#FFFFFF" stroke="#000000" stroke-width="0.3795" stroke-miterlimit="10" d="M-72.1,11.6c-0.4-2.5-2.5-4.3-5.1-4.3H-94
		c-2.6,0-4.7,1.9-5.1,4.3l0,0v3.7l0,0c0.4,2.4,2.5,4.3,5.1,4.3h16.8c2.6,0,4.7-1.9,5.1-4.3c0.4-0.1,0.8-0.4,0.8-0.9v-1.9
		C-71.3,12-71.7,11.6-72.1,11.6z"/>
	<path fill="#E2D827" d="M-97.3,13.6v-0.3c0-2.1,1.7-3.9,3.9-3.9h15.6c2.1,0,3.9,1.7,3.9,3.9v0.3c0,2.1-1.7,3.9-3.9,3.9h-15.6
		C-95.5,17.4-97.3,15.7-97.3,13.6z"/>
	<g>
		<rect x="-85.2" y="9.2" fill="#FFFFFF" width="11.7" height="8.5"/>
	</g>
</g>
<g>
	<path opacity="0.25" fill="#E86B6B" d="M-35.3,1.1c-16.1,0.1-29.2,13.2-29.2,29.3c0,22.3,29.2,39.4,29.2,39.4S-6.1,52.8-6.1,30.5
		C-6.1,14.3-19.2,1.2-35.3,1.1z"/>
	<path fill="#FFFFFF" stroke="#E86B6B" stroke-width="1.5122" stroke-miterlimit="10" d="M-35.3,7.1C-48.6,7.2-59.4,18-59.4,31.4
		c0,18.4,24.1,32.5,24.1,32.5s24.1-14.1,24.1-32.5C-11.2,18-22,7.2-35.3,7.1z"/>
	<g>
		<path fill="#160404" d="M-13.4,29.6c-0.5-0.2-1.1-0.4-1.7-0.4c-1.1,0-2.1,0.4-2.8,1.1v-0.6l0,0h-1.2v6.9l0,0h1.2l0,0l0,0V33
			c0.2-1.4,1.3-2.5,2.8-2.5c0.6,0,1.2,0.2,1.7,0.5c0,0,0.1,0,0.1,0.1l0.7-1C-12.8,29.9-13.1,29.7-13.4,29.6z"/>
		<path fill="#160404" d="M-24.4,29.2c-2.2,0-4,1.8-4,4c0,2.2,1.8,4,4,4s4-1.8,4-4C-20.4,31-22.2,29.2-24.4,29.2z M-24.4,36.1
			c-1.6,0-2.8-1.3-2.8-2.8c0-1.6,1.3-2.8,2.8-2.8c1.3,0,2.4,0.9,2.7,2.2h-4v1.2h4C-21.9,35.1-23,36.1-24.4,36.1z"/>
		<polygon fill="#160404" points="-28.8,29.4 -30.6,29.4 -30.6,27.2 -31.9,27.2 -31.9,29.4 -34.4,29.4 -34.4,27.2 -35.6,27.2 
			-35.6,29.4 -37.4,29.4 -37.4,30.7 -35.6,30.7 -35.6,36.7 -34.4,36.7 -34.4,30.7 -31.9,30.7 -31.9,36.7 -30.6,36.7 -30.6,30.7 
			-28.8,30.7 		"/>
		<path fill="#160404" d="M-38,33.3c0-2.2-1.8-4-4-4s-4,1.8-4,4c0,2.2,1.8,4,4,4c1.1,0,2.1-0.4,2.8-1.1v0.6h1.2L-38,33.3L-38,33.3z
			 M-42,36.1c-1.6,0-2.8-1.3-2.8-2.8c0-1.6,1.3-2.8,2.8-2.8c1.6,0,2.8,1.3,2.8,2.8C-39.2,34.8-40.5,36.1-42,36.1z"/>
		<path fill="#160404" d="M-51.2,29.2c-1.1,0-2.1,0.4-2.8,1.1v-3.1h-1.2v6h0c0,2.2,1.8,4,4,4c2.2,0,4-1.8,4-4
			C-47.1,31-48.9,29.2-51.2,29.2z M-51.2,36.1c-1.6,0-2.8-1.3-2.8-2.8c0-1.6,1.3-2.8,2.8-2.8c1.6,0,2.8,1.3,2.8,2.8
			C-48.4,34.8-49.6,36.1-51.2,36.1z"/>
	</g>
	<path fill="#FFFFFF" stroke="#000000" stroke-width="0.378" stroke-miterlimit="10" d="M-5.2,11.7c-0.4-2.4-2.5-4.3-5.1-4.3h-16.8
		c-2.6,0-4.7,1.9-5.1,4.3l0,0v3.7l0,0c0.4,2.4,2.5,4.3,5.1,4.3h16.8c2.6,0,4.7-1.9,5.1-4.3c0.4-0.1,0.8-0.4,0.8-0.9v-1.9
		C-4.5,12.1-4.8,11.7-5.2,11.7z"/>
	<path fill="#E86B6B" d="M-30.3,13.7v-0.3c0-2.1,1.7-3.8,3.8-3.8h15.5c2.1,0,3.8,1.7,3.8,3.8v0.3c0,2.1-1.7,3.8-3.8,3.8h-15.5
		C-28.6,17.5-30.3,15.8-30.3,13.7z"/>
	<g>
		<rect x="-25.8" y="9.3" fill="#FFFFFF" width="19.1" height="8.5"/>
	</g>
</g>
<g>
	<path opacity="0.25" fill="#FFFFFF" d="M-325.2,1c-12.1,0.1-22,9.9-22,22.1c0,16.8,22,29.6,22,29.6s22-12.9,22-29.6
		C-303.2,10.9-313,1.1-325.2,1z"/>
	<path fill="#00C17B" stroke="#FFFFFF" stroke-width="1.1384" stroke-miterlimit="10" d="M-325.2,5.5c-10,0.1-18.1,8.2-18.1,18.2
		c0,13.9,18.1,24.5,18.1,24.5s18.1-10.6,18.1-24.5C-307.1,13.7-315.2,5.6-325.2,5.5z"/>
	<g>
		<path fill="#031106" d="M-309.3,22.4c-0.4-0.2-0.8-0.3-1.2-0.3c-0.8,0-1.6,0.3-2.1,0.9v-0.4l0,0h-0.9v5.2l0,0h0.9l0,0l0,0V25
			c0.1-1.1,1-1.9,2.1-1.9c0.5,0,0.9,0.2,1.2,0.4c0,0,0,0,0.1,0l0.6-0.7C-308.8,22.7-309,22.5-309.3,22.4z"/>
		<path fill="#031106" d="M-317.5,22.2c-1.7,0-3,1.4-3,3c0,1.7,1.4,3,3,3s3-1.4,3-3C-314.5,23.5-315.9,22.2-317.5,22.2z
			 M-317.5,27.3c-1.2,0-2.1-0.9-2.1-2.1c0-1.2,0.9-2.1,2.1-2.1c1,0,1.8,0.7,2.1,1.6h-3v0.9h3C-315.7,26.6-316.5,27.3-317.5,27.3z"/>
		<polygon fill="#031106" points="-320.9,22.3 -322.2,22.3 -322.2,20.7 -323.2,20.7 -323.2,22.3 -325.1,22.3 -325.1,20.7 -326,20.7 
			-326,22.3 -327.4,22.3 -327.4,23.2 -326,23.2 -326,27.8 -325.1,27.8 -325.1,23.2 -323.2,23.2 -323.2,27.8 -322.2,27.8 
			-322.2,23.2 -320.9,23.2 		"/>
		<path fill="#031106" d="M-327.8,25.2c0-1.7-1.4-3-3-3c-1.7,0-3,1.4-3,3c0,1.7,1.4,3,3,3c0.8,0,1.6-0.3,2.1-0.9v0.4h0.9
			L-327.8,25.2L-327.8,25.2z M-330.8,27.3c-1.2,0-2.1-0.9-2.1-2.1c0-1.2,0.9-2.1,2.1-2.1c1.2,0,2.1,0.9,2.1,2.1
			C-328.7,26.4-329.6,27.3-330.8,27.3z"/>
		<path fill="#031106" d="M-337.7,22.2c-0.8,0-1.6,0.3-2.1,0.9v-2.4h-0.9v4.6h0c0,1.7,1.4,3,3,3c1.7,0,3-1.4,3-3
			C-334.7,23.5-336,22.2-337.7,22.2z M-337.7,27.3c-1.2,0-2.1-0.9-2.1-2.1c0-1.2,0.9-2.1,2.1-2.1c1.2,0,2.1,0.9,2.1,2.1
			C-335.6,26.4-336.5,27.3-337.7,27.3z"/>
	</g>
	<path fill="#FFFFFF" stroke="#000000" stroke-width="0.2846" stroke-miterlimit="10" d="M-302.7,8.9c-0.3-1.8-1.9-3.2-3.8-3.2
		h-12.6c-1.9,0-3.5,1.4-3.8,3.2l0,0v2.8l0,0c0.3,1.8,1.9,3.2,3.8,3.2h12.6c1.9,0,3.5-1.4,3.8-3.2c0.3,0,0.6-0.3,0.6-0.7V9.6
		C-302.1,9.3-302.4,9-302.7,8.9z"/>
	<path fill="#00C17B" d="M-321.6,10.4v-0.2c0-1.6,1.3-2.9,2.9-2.9h11.7c1.6,0,2.9,1.3,2.9,2.9v0.2c0,1.6-1.3,2.9-2.9,2.9h-11.7
		C-320.3,13.3-321.6,12-321.6,10.4z"/>
</g>
<g>
	<g opacity="0.25">
		<path fill="#FFFFFF" d="M-275.9,1c-12.1,0.1-22,9.9-22,22.1c0,16.8,22,29.6,22,29.6s22-12.9,22-29.6
			C-253.9,10.9-263.7,1.1-275.9,1z"/>
	</g>
	<path fill="#E2D827" stroke="#FFFFFF" stroke-width="1.1384" stroke-miterlimit="10" d="M-275.9,5.5c-10,0.1-18.1,8.2-18.1,18.2
		c0,13.9,18.1,24.5,18.1,24.5s18.1-10.6,18.1-24.5C-257.7,13.7-265.8,5.6-275.9,5.5z"/>
	<g>
		<path fill="#141204" d="M-259.9,22.4c-0.4-0.2-0.8-0.3-1.2-0.3c-0.8,0-1.6,0.3-2.1,0.9v-0.4l0,0h-0.9v5.2l0,0h0.9l0,0l0,0V25
			c0.1-1.1,1-1.9,2.1-1.9c0.5,0,0.9,0.2,1.2,0.4c0,0,0,0,0.1,0l0.6-0.7C-259.5,22.7-259.7,22.5-259.9,22.4z"/>
		<path fill="#141204" d="M-268.2,22.2c-1.7,0-3,1.4-3,3c0,1.7,1.4,3,3,3s3-1.4,3-3C-265.2,23.5-266.5,22.2-268.2,22.2z
			 M-268.2,27.3c-1.2,0-2.1-0.9-2.1-2.1c0-1.2,0.9-2.1,2.1-2.1c1,0,1.8,0.7,2.1,1.6h-3v0.9h3C-266.4,26.6-267.2,27.3-268.2,27.3z"/>
		<polygon fill="#141204" points="-271.6,22.3 -272.9,22.3 -272.9,20.7 -273.8,20.7 -273.8,22.3 -275.7,22.3 -275.7,20.7 
			-276.7,20.7 -276.7,22.3 -278,22.3 -278,23.2 -276.7,23.2 -276.7,27.8 -275.7,27.8 -275.7,23.2 -273.8,23.2 -273.8,27.8 
			-272.9,27.8 -272.9,23.2 -271.6,23.2 		"/>
		<path fill="#141204" d="M-278.4,25.2c0-1.7-1.4-3-3-3s-3,1.4-3,3c0,1.7,1.4,3,3,3c0.8,0,1.6-0.3,2.1-0.9v0.4h0.9L-278.4,25.2
			L-278.4,25.2z M-281.5,27.3c-1.2,0-2.1-0.9-2.1-2.1c0-1.2,0.9-2.1,2.1-2.1s2.1,0.9,2.1,2.1C-279.4,26.4-280.3,27.3-281.5,27.3z"/>
		<path fill="#141204" d="M-288.4,22.2c-0.8,0-1.6,0.3-2.1,0.9v-2.4h-0.9v4.6h0c0,1.7,1.4,3,3,3c1.7,0,3-1.4,3-3
			C-285.3,23.5-286.7,22.2-288.4,22.2z M-288.4,27.3c-1.2,0-2.1-0.9-2.1-2.1c0-1.2,0.9-2.1,2.1-2.1s2.1,0.9,2.1,2.1
			C-286.3,26.4-287.2,27.3-288.4,27.3z"/>
	</g>
	<path fill="#FFFFFF" stroke="#000000" stroke-width="0.2846" stroke-miterlimit="10" d="M-253.4,8.9c-0.3-1.8-1.9-3.2-3.8-3.2
		h-12.6c-1.9,0-3.5,1.4-3.8,3.2l0,0v2.8l0,0c0.3,1.8,1.9,3.2,3.8,3.2h12.6c1.9,0,3.5-1.4,3.8-3.2c0.3,0,0.6-0.3,0.6-0.7V9.6
		C-252.8,9.3-253.1,9-253.4,8.9z"/>
	<path fill="#E2D827" d="M-272.3,10.4v-0.2c0-1.6,1.3-2.9,2.9-2.9h11.7c1.6,0,2.9,1.3,2.9,2.9v0.2c0,1.6-1.3,2.9-2.9,2.9h-11.7
		C-271,13.3-272.3,12-272.3,10.4z"/>
	<g>
		<rect x="-263.2" y="7.1" fill="#FFFFFF" width="8.8" height="6.4"/>
	</g>
</g>
<g>
	<path opacity="0.25" fill="#FFFFFF" d="M-226.6,1.1c-12.1,0.1-21.9,9.9-21.9,22c0,16.7,21.9,29.5,21.9,29.5s21.9-12.8,21.9-29.5
		C-204.7,11-214.5,1.2-226.6,1.1z"/>
	<path fill="#E86B6B" stroke="#FFFFFF" stroke-width="1.1341" stroke-miterlimit="10" d="M-226.6,5.6c-10,0.1-18.1,8.2-18.1,18.2
		c0,13.8,18.1,24.4,18.1,24.4s18.1-10.6,18.1-24.4C-208.6,13.8-216.6,5.7-226.6,5.6z"/>
	<g>
		<path fill="#160404" d="M-210.2,22.4c-0.4-0.2-0.8-0.3-1.2-0.3c-0.8,0-1.6,0.3-2.1,0.8v-0.4l0,0h-0.9v5.2l0,0h0.9l0,0l0,0V25
			c0.1-1.1,1-1.9,2.1-1.9c0.5,0,0.9,0.2,1.2,0.4c0,0,0,0,0.1,0l0.6-0.7C-209.8,22.7-210,22.5-210.2,22.4z"/>
		<path fill="#160404" d="M-218.4,22.2c-1.7,0-3,1.4-3,3c0,1.7,1.4,3,3,3c1.7,0,3-1.4,3-3C-215.4,23.5-216.8,22.2-218.4,22.2z
			 M-218.4,27.3c-1.2,0-2.1-0.9-2.1-2.1c0-1.2,0.9-2.1,2.1-2.1c1,0,1.8,0.7,2.1,1.6h-3v0.9h3C-216.6,26.6-217.4,27.3-218.4,27.3z"/>
		<polygon fill="#160404" points="-221.8,22.3 -223.1,22.3 -223.1,20.7 -224,20.7 -224,22.3 -225.9,22.3 -225.9,20.7 -226.9,20.7 
			-226.9,22.3 -228.2,22.3 -228.2,23.3 -226.9,23.3 -226.9,27.8 -225.9,27.8 -225.9,23.3 -224,23.3 -224,27.8 -223.1,27.8 
			-223.1,23.3 -221.8,23.3 		"/>
		<path fill="#160404" d="M-228.6,25.2c0-1.7-1.4-3-3-3c-1.7,0-3,1.4-3,3c0,1.7,1.4,3,3,3c0.8,0,1.6-0.3,2.1-0.9v0.4h0.9
			L-228.6,25.2L-228.6,25.2z M-231.7,27.3c-1.2,0-2.1-0.9-2.1-2.1c0-1.2,0.9-2.1,2.1-2.1c1.2,0,2.1,0.9,2.1,2.1
			C-229.5,26.4-230.5,27.3-231.7,27.3z"/>
		<path fill="#160404" d="M-238.5,22.2c-0.8,0-1.6,0.3-2.1,0.9v-2.4h-0.9v4.5h0c0,1.7,1.4,3,3,3c1.7,0,3-1.4,3-3
			C-235.5,23.5-236.9,22.2-238.5,22.2z M-238.5,27.3c-1.2,0-2.1-0.9-2.1-2.1c0-1.2,0.9-2.1,2.1-2.1s2.1,0.9,2.1,2.1
			C-236.4,26.4-237.4,27.3-238.5,27.3z"/>
	</g>
	<path fill="#FFFFFF" stroke="#000000" stroke-width="0.2835" stroke-miterlimit="10" d="M-204.1,9c-0.3-1.8-1.9-3.2-3.8-3.2h-12.6
		c-1.9,0-3.5,1.4-3.8,3.2l0,0v2.8l0,0c0.3,1.8,1.9,3.2,3.8,3.2h12.6c1.9,0,3.5-1.4,3.8-3.2c0.3,0,0.6-0.3,0.6-0.7V9.7
		C-203.5,9.3-203.8,9-204.1,9z"/>
	<path fill="#E86B6B" d="M-222.9,10.5v-0.2c0-1.6,1.3-2.9,2.9-2.9h11.6c1.6,0,2.9,1.3,2.9,2.9v0.2c0,1.6-1.3,2.9-2.9,2.9H-220
		C-221.6,13.4-222.9,12.1-222.9,10.5z"/>
	<g>
		<rect x="-219.5" y="7.2" fill="#FFFFFF" width="14.4" height="6.4"/>
	</g>
</g>
<g>
	<path opacity="0.4" fill="#FF4A4A" d="M32,0.2C15.4,0.3,2,13.7,2,30.3c0,22.9,30,40.5,30,40.5s30-17.6,30-40.5
		C62,13.7,48.6,0.3,32,0.2z"/>
	<path fill="#FF4A4A" stroke="#FFFFFF" stroke-width="1.5555" stroke-miterlimit="10" d="M32,6.3C18.3,6.4,7.2,17.5,7.2,31.2
		C7.2,50.2,32,64.7,32,64.7s24.8-14.5,24.8-33.4C56.8,17.5,45.7,6.4,32,6.3z"/>
	<path fill="#FFFFFF" d="M24.3,24.4c0,0,1,2.7-3.5,9.5s0.6,17.2,10.1,17c0,0-0.2-0.9,0-3.1c0.2-2.2,0.5-3.8,0.5-3.8s0.3,3.2,1,4.6
		c0.7,1.4,1.3,2.1,1.3,2.1s3.3-0.1,5.5-1.8s4.8-4.4,4.9-8.5s-2.1-8.1-2.4-10.2s-0.4-3.5-0.4-3.5s-1.6,1.7-1.9,4.4s-0.2,5.7-2.1,7.9
		c0,0,1.2-3,1-5.9c-0.2-2.9-1.1-6.1-2.6-8.4c-1.6-2.3-1.9-5.6-1.8-7.2c0.1-1.5,0.4-2.6,0.4-2.6s-3.7,1.6-5,4.7
		c-1.3,3.1-1.2,5.8-1.2,7.2c0.1,1.4,0,4.2-0.5,6.1c0,0-0.8-3.5-1.7-5.6S24.3,24.4,24.3,24.4z"/>
</g>
</svg>
