<?xml version="1.0" encoding="utf-8"?>
<!-- Generator: Adobe Illustrator 29.1.0, SVG Export Plug-In . SVG Version: 9.03 Build 55587)  -->
<svg version="1.1" id="레이어_1" xmlns="http://www.w3.org/2000/svg" xmlns:xlink="http://www.w3.org/1999/xlink" x="0px"
	 y="0px" width="47px" height="53.8px" viewBox="0 0 47 53.8" enable-background="new 0 0 47 53.8" xml:space="preserve">
<g>
	<g>
		<path opacity="0.25" fill="#00C17B" d="M129.9,1c-16.2,0.1-29.3,13.2-29.3,29.5c0,22.4,29.3,39.5,29.3,39.5s29.3-17.2,29.3-39.5
			C159.2,14.3,146.1,1.1,129.9,1z"/>
		<path fill="#FFFFFF" stroke="#00C17B" stroke-width="1.5178" stroke-miterlimit="10" d="M129.9,7c-13.4,0.1-24.2,10.9-24.2,24.3
			c0,18.5,24.2,32.6,24.2,32.6s24.2-14.2,24.2-32.6C154.1,18,143.3,7.1,129.9,7z"/>
		<g>
			<path fill="#031106" d="M151.2,29.6c-0.5-0.2-1.1-0.4-1.7-0.4c-1.1,0-2.1,0.4-2.8,1.1v-0.6l0,0h-1.2v6.9l0,0h1.2l0,0l0,0v-3.7
				c0.2-1.4,1.3-2.5,2.8-2.5c0.6,0,1.2,0.2,1.7,0.5c0,0,0.1,0,0.1,0.1l0.7-1C151.7,29.9,151.5,29.7,151.2,29.6z"/>
			<path fill="#031106" d="M140.1,29.2c-2.2,0-4,1.8-4,4c0,2.2,1.8,4,4,4c2.2,0,4-1.8,4-4C144.2,31,142.4,29.2,140.1,29.2z
				 M140.1,36.1c-1.6,0-2.8-1.3-2.8-2.8c0-1.6,1.3-2.8,2.8-2.8c1.3,0,2.5,0.9,2.7,2.2h-4v1.2h4.1C142.6,35.1,141.5,36.1,140.1,36.1z
				"/>
			<polygon fill="#031106" points="135.7,29.4 133.9,29.4 133.9,27.2 132.6,27.2 132.6,29.4 130.1,29.4 130.1,27.2 128.8,27.2 
				128.8,29.4 127,29.4 127,30.7 128.8,30.7 128.8,36.7 130.1,36.7 130.1,30.7 132.6,30.7 132.6,36.7 133.9,36.7 133.9,30.7 
				135.7,30.7 			"/>
			<path fill="#031106" d="M126.5,33.2c0-2.2-1.8-4-4-4c-2.2,0-4,1.8-4,4c0,2.2,1.8,4,4,4c1.1,0,2.1-0.4,2.8-1.2v0.6h1.2L126.5,33.2
				L126.5,33.2z M122.4,36.1c-1.6,0-2.8-1.3-2.8-2.8c0-1.6,1.3-2.8,2.8-2.8c1.6,0,2.8,1.3,2.8,2.8C125.3,34.8,124,36.1,122.4,36.1z"
				/>
			<path fill="#031106" d="M113.2,29.2c-1.1,0-2.1,0.4-2.8,1.1v-3.2h-1.2v6.1h0c0,2.2,1.8,4,4,4c2.2,0,4-1.8,4-4
				C117.3,31,115.5,29.2,113.2,29.2z M113.2,36.1c-1.6,0-2.8-1.3-2.8-2.8c0-1.6,1.3-2.8,2.8-2.8c1.6,0,2.8,1.3,2.8,2.8
				C116.1,34.8,114.8,36.1,113.2,36.1z"/>
		</g>
	</g>
	<path fill="#FFFFFF" stroke="#000000" stroke-width="0.3795" stroke-miterlimit="10" d="M159.9,11.6c-0.4-2.5-2.5-4.3-5.1-4.3H138
		c-2.6,0-4.7,1.9-5.1,4.3l0,0v3.7l0,0c0.4,2.4,2.5,4.3,5.1,4.3h16.8c2.6,0,4.7-1.9,5.1-4.3c0.4-0.1,0.8-0.4,0.8-0.9v-1.9
		C160.7,12,160.3,11.6,159.9,11.6z"/>
	<path fill="#00C17B" d="M134.7,13.6v-0.3c0-2.1,1.7-3.9,3.9-3.9h15.6c2.1,0,3.9,1.7,3.9,3.9v0.3c0,2.1-1.7,3.9-3.9,3.9h-15.6
		C136.4,17.4,134.7,15.7,134.7,13.6z"/>
</g>
<g>
	<path opacity="0.25" fill="#E2D827" d="M196.8,1c-16.2,0.1-29.3,13.2-29.3,29.5c0,22.4,29.3,39.5,29.3,39.5s29.3-17.2,29.3-39.5
		C226.1,14.3,213,1.1,196.8,1z"/>
	<path fill="#FFFFFF" stroke="#E2D827" stroke-width="1.5178" stroke-miterlimit="10" d="M196.8,7c-13.4,0.1-24.2,10.9-24.2,24.3
		c0,18.5,24.2,32.6,24.2,32.6S221,49.8,221,31.3C221,18,210.2,7.1,196.8,7z"/>
	<g>
		<path fill="#141204" d="M218,29.6c-0.5-0.2-1.1-0.4-1.7-0.4c-1.1,0-2.1,0.4-2.8,1.1v-0.6l0,0h-1.2v6.9l0,0h1.2l0,0l0,0v-3.7
			c0.2-1.4,1.3-2.5,2.8-2.5c0.6,0,1.2,0.2,1.7,0.5c0,0,0.1,0,0.1,0.1l0.7-1C218.6,29.9,218.3,29.7,218,29.6z"/>
		<path fill="#141204" d="M207,29.2c-2.2,0-4,1.8-4,4c0,2.2,1.8,4,4,4c2.2,0,4-1.8,4-4C211,31,209.2,29.2,207,29.2z M207,36.1
			c-1.6,0-2.8-1.3-2.8-2.8c0-1.6,1.3-2.8,2.8-2.8c1.3,0,2.5,0.9,2.7,2.2h-4v1.2h4.1C209.5,35.1,208.3,36.1,207,36.1z"/>
		<polygon fill="#141204" points="202.5,29.4 200.7,29.4 200.7,27.2 199.5,27.2 199.5,29.4 196.9,29.4 196.9,27.2 195.7,27.2 
			195.7,29.4 193.9,29.4 193.9,30.7 195.7,30.7 195.7,36.7 196.9,36.7 196.9,30.7 199.5,30.7 199.5,36.7 200.7,36.7 200.7,30.7 
			202.5,30.7 		"/>
		<path fill="#141204" d="M193.3,33.2c0-2.2-1.8-4-4-4c-2.2,0-4,1.8-4,4c0,2.2,1.8,4,4,4c1.1,0,2.1-0.4,2.8-1.2v0.6h1.2L193.3,33.2
			L193.3,33.2z M189.3,36.1c-1.6,0-2.8-1.3-2.8-2.8c0-1.6,1.3-2.8,2.8-2.8c1.6,0,2.8,1.3,2.8,2.8C192.1,34.8,190.9,36.1,189.3,36.1z
			"/>
		<path fill="#141204" d="M180.1,29.2c-1.1,0-2.1,0.4-2.8,1.1v-3.2h-1.2v6.1h0c0,2.2,1.8,4,4,4c2.2,0,4-1.8,4-4
			C184.1,31,182.3,29.2,180.1,29.2z M180.1,36.1c-1.6,0-2.8-1.3-2.8-2.8c0-1.6,1.3-2.8,2.8-2.8s2.8,1.3,2.8,2.8
			C182.9,34.8,181.7,36.1,180.1,36.1z"/>
	</g>
	<path fill="#FFFFFF" stroke="#000000" stroke-width="0.3795" stroke-miterlimit="10" d="M226.7,11.6c-0.4-2.5-2.5-4.3-5.1-4.3
		h-16.8c-2.6,0-4.7,1.9-5.1,4.3l0,0v3.7l0,0c0.4,2.4,2.5,4.3,5.1,4.3h16.8c2.6,0,4.7-1.9,5.1-4.3c0.4-0.1,0.8-0.4,0.8-0.9v-1.9
		C227.5,12,227.2,11.6,226.7,11.6z"/>
	<path fill="#E2D827" d="M201.6,13.6v-0.3c0-2.1,1.7-3.9,3.9-3.9H221c2.1,0,3.9,1.7,3.9,3.9v0.3c0,2.1-1.7,3.9-3.9,3.9h-15.6
		C203.3,17.4,201.6,15.7,201.6,13.6z"/>
	<g>
		<rect x="213.6" y="9.2" fill="#FFFFFF" width="11.7" height="8.5"/>
	</g>
</g>
<g>
	<path opacity="0.25" fill="#E86B6B" d="M263.5,1.1c-16.1,0.1-29.2,13.2-29.2,29.3c0,22.3,29.2,39.4,29.2,39.4s29.2-17.1,29.2-39.4
		C292.7,14.3,279.7,1.2,263.5,1.1z"/>
	<path fill="#FFFFFF" stroke="#E86B6B" stroke-width="1.5122" stroke-miterlimit="10" d="M263.5,7.1c-13.3,0.1-24.1,10.9-24.1,24.2
		c0,18.4,24.1,32.5,24.1,32.5s24.1-14.1,24.1-32.5C287.6,18,276.9,7.2,263.5,7.1z"/>
	<g>
		<path fill="#160404" d="M285.4,29.6c-0.5-0.2-1.1-0.4-1.7-0.4c-1.1,0-2.1,0.4-2.8,1.1v-0.6l0,0h-1.2v6.9l0,0h1.2l0,0l0,0V33
			c0.2-1.4,1.3-2.5,2.8-2.5c0.6,0,1.2,0.2,1.7,0.5c0,0,0.1,0,0.1,0.1l0.7-1C286,29.9,285.7,29.7,285.4,29.6z"/>
		<path fill="#160404" d="M274.5,29.2c-2.2,0-4,1.8-4,4c0,2.2,1.8,4,4,4c2.2,0,4-1.8,4-4C278.5,31,276.7,29.2,274.5,29.2z
			 M274.5,36.1c-1.6,0-2.8-1.3-2.8-2.8c0-1.6,1.3-2.8,2.8-2.8c1.3,0,2.4,0.9,2.7,2.2h-4v1.2h4C276.9,35.1,275.8,36.1,274.5,36.1z"/>
		<polygon fill="#160404" points="270,29.4 268.2,29.4 268.2,27.2 267,27.2 267,29.4 264.4,29.4 264.4,27.2 263.2,27.2 263.2,29.4 
			261.4,29.4 261.4,30.7 263.2,30.7 263.2,36.7 264.4,36.7 264.4,30.7 267,30.7 267,36.7 268.2,36.7 268.2,30.7 270,30.7 		"/>
		<path fill="#160404" d="M260.9,33.3c0-2.2-1.8-4-4-4c-2.2,0-4,1.8-4,4c0,2.2,1.8,4,4,4c1.1,0,2.1-0.4,2.8-1.1v0.6h1.2L260.9,33.3
			L260.9,33.3z M256.8,36.1c-1.6,0-2.8-1.3-2.8-2.8c0-1.6,1.3-2.8,2.8-2.8c1.6,0,2.8,1.3,2.8,2.8C259.6,34.8,258.4,36.1,256.8,36.1z
			"/>
		<path fill="#160404" d="M247.7,29.2c-1.1,0-2.1,0.4-2.8,1.1v-3.1h-1.2v6h0c0,2.2,1.8,4,4,4c2.2,0,4-1.8,4-4
			C251.7,31,249.9,29.2,247.7,29.2z M247.7,36.1c-1.6,0-2.8-1.3-2.8-2.8c0-1.6,1.3-2.8,2.8-2.8c1.6,0,2.8,1.3,2.8,2.8
			C250.5,34.8,249.2,36.1,247.7,36.1z"/>
	</g>
	<path fill="#FFFFFF" stroke="#000000" stroke-width="0.378" stroke-miterlimit="10" d="M293.6,11.7c-0.4-2.4-2.5-4.3-5.1-4.3h-16.8
		c-2.6,0-4.7,1.9-5.1,4.3l0,0v3.7l0,0c0.4,2.4,2.5,4.3,5.1,4.3h16.8c2.6,0,4.7-1.9,5.1-4.3c0.4-0.1,0.8-0.4,0.8-0.9v-1.9
		C294.4,12.1,294,11.7,293.6,11.7z"/>
	<path fill="#E86B6B" d="M268.5,13.7v-0.3c0-2.1,1.7-3.8,3.8-3.8h15.5c2.1,0,3.8,1.7,3.8,3.8v0.3c0,2.1-1.7,3.8-3.8,3.8h-15.5
		C270.3,17.5,268.5,15.8,268.5,13.7z"/>
	<g>
		<rect x="273" y="9.3" fill="#FFFFFF" width="19.1" height="8.5"/>
	</g>
</g>
<g>
	<path opacity="0.25" fill="#FFFFFF" d="M-26.3,1c-12.1,0.1-22,9.9-22,22.1c0,16.8,22,29.6,22,29.6s22-12.9,22-29.6
		C-4.4,10.9-14.2,1.1-26.3,1z"/>
	<path fill="#00C17B" stroke="#FFFFFF" stroke-width="1.1384" stroke-miterlimit="10" d="M-26.3,5.5c-10,0.1-18.1,8.2-18.1,18.2
		c0,13.9,18.1,24.5,18.1,24.5S-8.2,37.6-8.2,23.8C-8.2,13.7-16.3,5.6-26.3,5.5z"/>
	<g>
		<path fill="#031106" d="M-10.4,22.4c-0.4-0.2-0.8-0.3-1.2-0.3c-0.8,0-1.6,0.3-2.1,0.9v-0.4l0,0h-0.9v5.2l0,0h0.9l0,0l0,0V25
			c0.1-1.1,1-1.9,2.1-1.9c0.5,0,0.9,0.2,1.2,0.4c0,0,0,0,0.1,0l0.6-0.7C-10,22.7-10.2,22.5-10.4,22.4z"/>
		<path fill="#031106" d="M-18.7,22.2c-1.7,0-3,1.4-3,3c0,1.7,1.4,3,3,3c1.7,0,3-1.4,3-3C-15.7,23.5-17,22.2-18.7,22.2z M-18.7,27.3
			c-1.2,0-2.1-0.9-2.1-2.1c0-1.2,0.9-2.1,2.1-2.1c1,0,1.8,0.7,2.1,1.6h-3v0.9h3C-16.8,26.6-17.7,27.3-18.7,27.3z"/>
		<polygon fill="#031106" points="-22,22.3 -23.4,22.3 -23.4,20.7 -24.3,20.7 -24.3,22.3 -26.2,22.3 -26.2,20.7 -27.2,20.7 
			-27.2,22.3 -28.5,22.3 -28.5,23.2 -27.2,23.2 -27.2,27.8 -26.2,27.8 -26.2,23.2 -24.3,23.2 -24.3,27.8 -23.4,27.8 -23.4,23.2 
			-22,23.2 		"/>
		<path fill="#031106" d="M-28.9,25.2c0-1.7-1.4-3-3-3s-3,1.4-3,3c0,1.7,1.4,3,3,3c0.8,0,1.6-0.3,2.1-0.9v0.4h0.9L-28.9,25.2
			L-28.9,25.2z M-32,27.3c-1.2,0-2.1-0.9-2.1-2.1c0-1.2,0.9-2.1,2.1-2.1s2.1,0.9,2.1,2.1C-29.8,26.4-30.8,27.3-32,27.3z"/>
		<path fill="#031106" d="M-38.9,22.2c-0.8,0-1.6,0.3-2.1,0.9v-2.4h-0.9v4.6h0c0,1.7,1.4,3,3,3c1.7,0,3-1.4,3-3
			C-35.8,23.5-37.2,22.2-38.9,22.2z M-38.9,27.3c-1.2,0-2.1-0.9-2.1-2.1c0-1.2,0.9-2.1,2.1-2.1c1.2,0,2.1,0.9,2.1,2.1
			C-36.7,26.4-37.7,27.3-38.9,27.3z"/>
	</g>
	<path fill="#FFFFFF" stroke="#000000" stroke-width="0.2846" stroke-miterlimit="10" d="M-3.9,8.9c-0.3-1.8-1.9-3.2-3.8-3.2h-12.6
		c-1.9,0-3.5,1.4-3.8,3.2l0,0v2.8l0,0c0.3,1.8,1.9,3.2,3.8,3.2h12.6c1.9,0,3.5-1.4,3.8-3.2c0.3,0,0.6-0.3,0.6-0.7V9.6
		C-3.3,9.3-3.5,9-3.9,8.9z"/>
	<path fill="#00C17B" d="M-22.8,10.4v-0.2c0-1.6,1.3-2.9,2.9-2.9h11.7c1.6,0,2.9,1.3,2.9,2.9v0.2c0,1.6-1.3,2.9-2.9,2.9h-11.7
		C-21.5,13.3-22.8,12-22.8,10.4z"/>
</g>
<g>
	<g opacity="0.25">
		<path fill="#FFFFFF" d="M23,1C10.8,1.1,1,10.9,1,23.1c0,16.8,22,29.6,22,29.6s22-12.9,22-29.6C44.9,10.9,35.1,1.1,23,1z"/>
	</g>
	<path fill="#E2D827" stroke="#FFFFFF" stroke-width="1.1384" stroke-miterlimit="10" d="M23,5.5C13,5.6,4.9,13.7,4.9,23.8
		C4.9,37.6,23,48.2,23,48.2s18.1-10.6,18.1-24.5C41.1,13.7,33,5.6,23,5.5z"/>
	<g>
		<path fill="#141204" d="M38.9,22.4c-0.4-0.2-0.8-0.3-1.2-0.3c-0.8,0-1.6,0.3-2.1,0.9v-0.4l0,0h-0.9v5.2l0,0h0.9l0,0l0,0V25
			c0.1-1.1,1-1.9,2.1-1.9c0.5,0,0.9,0.2,1.2,0.4c0,0,0,0,0.1,0l0.6-0.7C39.3,22.7,39.1,22.5,38.9,22.4z"/>
		<path fill="#141204" d="M30.6,22.2c-1.7,0-3,1.4-3,3c0,1.7,1.4,3,3,3s3-1.4,3-3C33.7,23.5,32.3,22.2,30.6,22.2z M30.6,27.3
			c-1.2,0-2.1-0.9-2.1-2.1c0-1.2,0.9-2.1,2.1-2.1c1,0,1.8,0.7,2.1,1.6h-3v0.9h3C32.5,26.6,31.6,27.3,30.6,27.3z"/>
		<polygon fill="#141204" points="27.3,22.3 25.9,22.3 25.9,20.7 25,20.7 25,22.3 23.1,22.3 23.1,20.7 22.2,20.7 22.2,22.3 
			20.8,22.3 20.8,23.2 22.2,23.2 22.2,27.8 23.1,27.8 23.1,23.2 25,23.2 25,27.8 25.9,27.8 25.9,23.2 27.3,23.2 		"/>
		<path fill="#141204" d="M20.4,25.2c0-1.7-1.4-3-3-3s-3,1.4-3,3c0,1.7,1.4,3,3,3c0.8,0,1.6-0.3,2.1-0.9v0.4h0.9L20.4,25.2
			L20.4,25.2z M17.4,27.3c-1.2,0-2.1-0.9-2.1-2.1c0-1.2,0.9-2.1,2.1-2.1s2.1,0.9,2.1,2.1C19.5,26.4,18.5,27.3,17.4,27.3z"/>
		<path fill="#141204" d="M10.5,22.2c-0.8,0-1.6,0.3-2.1,0.9v-2.4H7.4v4.6h0c0,1.7,1.4,3,3,3c1.7,0,3-1.4,3-3
			C13.5,23.5,12.1,22.2,10.5,22.2z M10.5,27.3c-1.2,0-2.1-0.9-2.1-2.1c0-1.2,0.9-2.1,2.1-2.1s2.1,0.9,2.1,2.1
			C12.6,26.4,11.6,27.3,10.5,27.3z"/>
	</g>
	<path fill="#FFFFFF" stroke="#000000" stroke-width="0.2846" stroke-miterlimit="10" d="M45.4,8.9c-0.3-1.8-1.9-3.2-3.8-3.2H29
		c-1.9,0-3.5,1.4-3.8,3.2l0,0v2.8l0,0c0.3,1.8,1.9,3.2,3.8,3.2h12.6c1.9,0,3.5-1.4,3.8-3.2c0.3,0,0.6-0.3,0.6-0.7V9.6
		C46,9.3,45.8,9,45.4,8.9z"/>
	<path fill="#E2D827" d="M26.6,10.4v-0.2c0-1.6,1.3-2.9,2.9-2.9h11.7c1.6,0,2.9,1.3,2.9,2.9v0.2c0,1.6-1.3,2.9-2.9,2.9H29.5
		C27.9,13.3,26.6,12,26.6,10.4z"/>
	<g>
		<rect x="35.6" y="7.1" fill="#FFFFFF" width="8.8" height="6.4"/>
	</g>
</g>
<g>
	<path opacity="0.25" fill="#FFFFFF" d="M72.2,1.1c-12.1,0.1-21.9,9.9-21.9,22c0,16.7,21.9,29.5,21.9,29.5s21.9-12.8,21.9-29.5
		C94.1,11,84.3,1.2,72.2,1.1z"/>
	<path fill="#E86B6B" stroke="#FFFFFF" stroke-width="1.1341" stroke-miterlimit="10" d="M72.2,5.6c-10,0.1-18.1,8.2-18.1,18.2
		c0,13.8,18.1,24.4,18.1,24.4s18.1-10.6,18.1-24.4C90.3,13.8,82.2,5.7,72.2,5.6z"/>
	<g>
		<path fill="#160404" d="M88.6,22.4c-0.4-0.2-0.8-0.3-1.2-0.3c-0.8,0-1.6,0.3-2.1,0.8v-0.4l0,0h-0.9v5.2l0,0h0.9l0,0l0,0V25
			c0.1-1.1,1-1.9,2.1-1.9c0.5,0,0.9,0.2,1.2,0.4c0,0,0,0,0.1,0l0.6-0.7C89.1,22.7,88.9,22.5,88.6,22.4z"/>
		<path fill="#160404" d="M80.4,22.2c-1.7,0-3,1.4-3,3c0,1.7,1.4,3,3,3c1.7,0,3-1.4,3-3C83.4,23.5,82.1,22.2,80.4,22.2z M80.4,27.3
			c-1.2,0-2.1-0.9-2.1-2.1c0-1.2,0.9-2.1,2.1-2.1c1,0,1.8,0.7,2.1,1.6h-3v0.9h3C82.3,26.6,81.4,27.3,80.4,27.3z"/>
		<polygon fill="#160404" points="77.1,22.3 75.7,22.3 75.7,20.7 74.8,20.7 74.8,22.3 72.9,22.3 72.9,20.7 72,20.7 72,22.3 
			70.6,22.3 70.6,23.3 72,23.3 72,27.8 72.9,27.8 72.9,23.3 74.8,23.3 74.8,27.8 75.7,27.8 75.7,23.3 77.1,23.3 		"/>
		<path fill="#160404" d="M70.2,25.2c0-1.7-1.4-3-3-3c-1.7,0-3,1.4-3,3c0,1.7,1.4,3,3,3c0.8,0,1.6-0.3,2.1-0.9v0.4h0.9L70.2,25.2
			L70.2,25.2z M67.2,27.3c-1.2,0-2.1-0.9-2.1-2.1c0-1.2,0.9-2.1,2.1-2.1s2.1,0.9,2.1,2.1C69.3,26.4,68.3,27.3,67.2,27.3z"/>
		<path fill="#160404" d="M60.3,22.2c-0.8,0-1.6,0.3-2.1,0.9v-2.4h-0.9v4.5h0c0,1.7,1.4,3,3,3c1.7,0,3-1.4,3-3
			C63.3,23.5,62,22.2,60.3,22.2z M60.3,27.3c-1.2,0-2.1-0.9-2.1-2.1c0-1.2,0.9-2.1,2.1-2.1s2.1,0.9,2.1,2.1
			C62.4,26.4,61.5,27.3,60.3,27.3z"/>
	</g>
	<path fill="#FFFFFF" stroke="#000000" stroke-width="0.2835" stroke-miterlimit="10" d="M94.8,9c-0.3-1.8-1.9-3.2-3.8-3.2H78.4
		c-1.9,0-3.5,1.4-3.8,3.2l0,0v2.8l0,0c0.3,1.8,1.9,3.2,3.8,3.2H91c1.9,0,3.5-1.4,3.8-3.2c0.3,0,0.6-0.3,0.6-0.7V9.7
		C95.3,9.3,95.1,9,94.8,9z"/>
	<path fill="#E86B6B" d="M76,10.5v-0.2c0-1.6,1.3-2.9,2.9-2.9h11.6c1.6,0,2.9,1.3,2.9,2.9v0.2c0,1.6-1.3,2.9-2.9,2.9H78.8
		C77.2,13.4,76,12.1,76,10.5z"/>
	<g>
		<rect x="79.3" y="7.2" fill="#FFFFFF" width="14.4" height="6.4"/>
	</g>
</g>
<g>
	<path opacity="0.4" fill="#FF4A4A" d="M330.8,0.2c-16.6,0.1-30,13.6-30,30.2c0,22.9,30,40.5,30,40.5s30-17.6,30-40.5
		C360.8,13.7,347.4,0.3,330.8,0.2z"/>
	<path fill="#FF4A4A" stroke="#FFFFFF" stroke-width="1.5555" stroke-miterlimit="10" d="M330.8,6.3c-13.7,0.1-24.8,11.2-24.8,24.9
		c0,18.9,24.8,33.4,24.8,33.4s24.8-14.5,24.8-33.4C355.6,17.5,344.5,6.4,330.8,6.3z"/>
	<path fill="#FFFFFF" d="M323.1,24.4c0,0,1,2.7-3.5,9.5c-4.5,6.9,0.6,17.2,10.1,17c0,0-0.2-0.9,0-3.1c0.2-2.2,0.5-3.8,0.5-3.8
		s0.3,3.2,1,4.6c0.7,1.4,1.3,2.1,1.3,2.1s3.3-0.1,5.5-1.8c2.2-1.7,4.8-4.4,4.9-8.5c0.1-4.1-2.1-8.1-2.4-10.2s-0.4-3.5-0.4-3.5
		s-1.6,1.7-1.9,4.4s-0.2,5.7-2.1,7.9c0,0,1.2-3,1-5.9c-0.2-2.9-1.1-6.1-2.6-8.4c-1.6-2.3-1.9-5.6-1.8-7.2c0.1-1.5,0.4-2.6,0.4-2.6
		s-3.7,1.6-5,4.7s-1.2,5.8-1.2,7.2c0.1,1.4,0,4.2-0.5,6.1c0,0-0.8-3.5-1.7-5.6S323.1,24.4,323.1,24.4z"/>
</g>
</svg>
